<?xml version="1.0" encoding="utf-8"?>
<svg version="1.1" id="black_1_" xmlns="http://www.w3.org/2000/svg" xmlns:xlink="http://www.w3.org/1999/xlink" x="0px" y="0px"
	 viewBox="0 0 200 145" style="enable-background:new 0 0 200 145;" xml:space="preserve">
<g id="logo">
	<path class="st0" class="st0" d="M197.5,53c0,7.1-4.1,12.8-10.7,12.8c-6.8,0-12.2-5.8-12.2-12.8c0-7.1,5.4-11,12.2-11C193.4,42,197.5,45.9,197.5,53z"/>
<g>
	<path class="st0" d="M93.1,18.4c4.5-3.3,4.3-9.5-0.7-12.8c0,0-4.6-3.6-12.2-3.6C62.1,2,50.6,13.9,50.6,29.6c0,9,4.6,15.5,4.6,25
		c0,8.4-3.7,11.4-4.7,20.5C50,79.8,50.9,89,53.1,92.8c3.8,6.4,9.8,7.2,15.4,3.7c8-4.9-2.4-13.7-2.5-20.1c-0.1-8.3,4.3-14.4,4.3-14.4
		c4.1-4.1,7.9-1.1,14.3-3.3c2.4-0.8,4.6-4.4,4.6-7.4c0-4-2.9-6.8-5.5-7.9c-5.3-2.1-9.3-0.4-12.4-3.2c-3-2.8-5.4-2.9-5.4-8.5
		c-0.1-11,7.2-17.8,16.4-13.9C85.8,19.4,89.3,21,93.1,18.4z"/>
</g>
<g>
	<path class="st0" d="M17.2,76.2C14.4,68.1,21.3,62,21.3,62c4.1-3.2,6.8-0.4,12.9-2.4c4.5-1.8,5.4-6.4,5.4-9c0-3.7-2.9-5.3-5.4-6.3
		c-5-1.9-7.5-0.8-11.4-3.1c-3.7-2.1-4.3-4.3-5.3-9.6c-1.6-9.7,6.5-18.2,18.5-13c4.1,1.7,8.1-0.2,10.1-3.7c2.7-4.9-3-12.1-14.5-13
		C9.8,0,1.2,14.9,1.3,29.9c0.1,8.6,5.3,12.5,5.4,21.6c0.1,8-4.5,15.2-5.4,23.9c-1,14.9,12.8,23.5,27.5,23c9.7-0.3,12-2.1,14.7-4.2
		c4.8-3.9,0.2-14.6-7.8-12.5C26.4,84.3,19.9,83.6,17.2,76.2z"/>
</g>
<path class="st0" d="M106.6,91.4c-3.7,0-8-4.2-8-7.8c0-7.5,5.2-11.6,10.4-15.1c3-2.1,7.5-7.3,7.5-13.7c0-7.3-7.3-12.6-8.8-13.5
	c-4.2-2.8-11-8.3-9.4-14.1c0.9-3.1,4-7.7,8.8-7.7h0.2c6.1,0.1,10.4,5.7,16.2,16c0.2,0.4,0.4,0.8,0.7,1.2c2.3,4.1,4.6,8.3,10.5,8.3
	c0.2,0,0.4,0,0.6,0c5.6-0.3,7.6-3.4,10.7-8v-0.1c0.3-0.4,0.6-0.9,0.9-1.3c7.3-10.9,12.8-16,17.2-16c0.6,0,1.1,0.1,1.8,0.3
	c4.5,1.6,6.6,4,6.2,7.5c-0.7,7.3-5,10.2-9.6,13.2l-0.9,0.6c-3.1,2.1-7.6,7.4-7.5,13.7c0.1,4.8,4.9,11.3,7.4,13.5
	c0.9,0.8,1.9,1.6,2.9,2.4c4.3,3.5,9.2,7.4,8.3,12.7c-0.5,3.3-3.4,6.2-7.1,7.3c-0.4,0.1-0.8,0.2-1.3,0.2c-4.3,0-10.2-5.8-17.2-16.8
	c-0.4-0.6-0.8-1.2-1.1-2l-0.1-0.1c-2.3-3.7-4.5-7.5-9.9-7.5c-0.2,0-0.4,0-0.6,0c-4.8,0.3-8.1,4.4-11.6,9.5
	C119.4,80.1,111.6,91.4,106.6,91.4z"/>
<g>
	<path class="st0 st2" d="M10.4,133.9l1.1,4.7l0.2,1.3l0.2-1.3l0.9-4.7h1.8l1,4.7l0.2,1.3l0.3-1.3l1.1-4.7H19l-2.3,8.2H15l-1-4.8l-0.3-1.6l-0.3,1.6
		l-1,4.8h-1.6l-2.3-8.2H10.4z"/>
	<path class="st0 st2" d="M23.3,136.2c0.4,0.2,0.8,0.5,1,0.9c0.2,0.4,0.4,0.8,0.5,1.3c0,0.3,0.1,0.7,0.1,1.2h-4.4c0,0.6,0.2,1,0.6,1.3
		c0.2,0.2,0.5,0.2,0.9,0.2c0.4,0,0.7-0.1,0.9-0.3c0.1-0.1,0.2-0.2,0.3-0.4h1.6c0,0.4-0.2,0.7-0.6,1.1c-0.5,0.6-1.3,0.9-2.3,0.9
		c-0.8,0-1.5-0.2-2.1-0.7s-0.9-1.3-0.9-2.4c0-1,0.3-1.9,0.8-2.4c0.6-0.6,1.3-0.8,2.2-0.8C22.4,135.9,22.9,136,23.3,136.2z
		 M20.9,137.5c-0.2,0.2-0.4,0.5-0.4,0.9h2.7c0-0.4-0.2-0.7-0.4-1c-0.3-0.2-0.6-0.3-0.9-0.3C21.5,137.2,21.2,137.3,20.9,137.5z"/>
	<path class="st0 st2" d="M30.5,136.8c0.5,0.6,0.7,1.3,0.7,2.2c0,0.9-0.2,1.7-0.7,2.3c-0.4,0.6-1.1,0.9-1.9,0.9c-0.5,0-0.9-0.1-1.2-0.3
		c-0.2-0.1-0.4-0.3-0.6-0.6v0.8h-1.6v-8.2h1.6v2.9c0.2-0.3,0.4-0.5,0.7-0.6c0.3-0.2,0.7-0.3,1.1-0.3
		C29.4,135.9,30.1,136.2,30.5,136.8z M29.2,140.5c0.2-0.3,0.3-0.8,0.3-1.3c0-0.4-0.1-0.8-0.2-1.1c-0.2-0.5-0.6-0.8-1.2-0.8
		c-0.6,0-1,0.3-1.2,0.8c-0.1,0.3-0.2,0.6-0.2,1.1c0,0.5,0.1,0.9,0.3,1.3c0.2,0.3,0.6,0.5,1.1,0.5C28.6,141,29,140.8,29.2,140.5z"/>
	<path class="st0 st2" d="M36.1,133.8v8.3h-1.5v-8.3H36.1z"/>
	<path class="st0 st2" d="M45.4,133.9h1.8l-2.8,8.2h-1.6l-2.8-8.2h1.8l1.8,6.2L45.4,133.9z"/>
	<path class="st0 st2" d="M49.1,135.3h-1.6v-1.5h1.6V135.3z M47.5,136h1.6v6.1h-1.6V136z"/>
	<path class="st0 st2" d="M53.5,136.1c0.3,0.2,0.5,0.4,0.7,0.7v-2.9h1.6v8.2h-1.5v-0.8c-0.2,0.4-0.5,0.6-0.8,0.8s-0.6,0.2-1.1,0.2
		c-0.7,0-1.3-0.3-1.8-0.9c-0.5-0.6-0.7-1.3-0.7-2.2c0-1,0.2-1.8,0.7-2.4c0.5-0.6,1.1-0.9,1.9-0.9C52.9,135.9,53.3,136,53.5,136.1z
		 M53.9,140.5c0.2-0.3,0.4-0.8,0.4-1.3c0-0.7-0.2-1.3-0.6-1.6c-0.2-0.2-0.5-0.3-0.8-0.3c-0.5,0-0.8,0.2-1,0.5
		c-0.2,0.3-0.3,0.8-0.3,1.3c0,0.6,0.1,1,0.3,1.3c0.2,0.3,0.6,0.5,1,0.5C53.4,141,53.7,140.8,53.9,140.5z"/>
	<path class="st0 st2" d="M60.9,136.2c0.4,0.2,0.8,0.5,1,0.9c0.2,0.4,0.4,0.8,0.5,1.3c0,0.3,0.1,0.7,0.1,1.2h-4.4c0,0.6,0.2,1,0.6,1.3
		c0.2,0.2,0.5,0.2,0.9,0.2c0.4,0,0.7-0.1,0.9-0.3c0.1-0.1,0.2-0.2,0.3-0.4h1.6c0,0.4-0.2,0.7-0.6,1.1c-0.5,0.6-1.3,0.9-2.3,0.9
		c-0.8,0-1.5-0.2-2.1-0.7s-0.9-1.3-0.9-2.4c0-1,0.3-1.9,0.8-2.4c0.6-0.6,1.3-0.8,2.2-0.8C60,135.9,60.5,136,60.9,136.2z M58.5,137.5
		c-0.2,0.2-0.4,0.5-0.4,0.9h2.7c0-0.4-0.2-0.7-0.4-1c-0.3-0.2-0.6-0.3-0.9-0.3C59.1,137.2,58.7,137.3,58.5,137.5z"/>
	<path class="st0 st2" d="M68,141.4c-0.5,0.6-1.3,0.9-2.3,0.9s-1.8-0.3-2.3-0.9c-0.5-0.6-0.8-1.4-0.8-2.3c0-0.9,0.3-1.6,0.8-2.3s1.3-1,2.3-1
		s1.8,0.3,2.3,1c0.5,0.6,0.8,1.4,0.8,2.3C68.7,140,68.5,140.7,68,141.4z M66.7,140.5c0.2-0.3,0.4-0.8,0.4-1.4c0-0.6-0.1-1.1-0.4-1.4
		c-0.2-0.3-0.6-0.5-1.1-0.5s-0.8,0.2-1.1,0.5c-0.3,0.3-0.4,0.8-0.4,1.4c0,0.6,0.1,1.1,0.4,1.4c0.2,0.3,0.6,0.5,1.1,0.5
		S66.5,140.8,66.7,140.5z"/>
	<path class="st0 st2" d="M73.7,133.8v8.3h-1.5v-8.3H73.7z"/>
	<path class="st0 st2" d="M79.1,139.6c0,0.3,0.1,0.6,0.2,0.8c0.2,0.4,0.5,0.6,1,0.6c0.3,0,0.6-0.1,0.8-0.3c0.2-0.2,0.3-0.5,0.3-0.9
		c0-0.5-0.2-0.9-0.6-1.1c-0.2-0.1-0.6-0.2-1.2-0.2v-1.1c0.5,0,0.9-0.1,1.1-0.2c0.4-0.2,0.5-0.5,0.5-0.9c0-0.3-0.1-0.6-0.3-0.8
		c-0.2-0.2-0.4-0.3-0.8-0.3c-0.4,0-0.6,0.1-0.8,0.4c-0.2,0.2-0.3,0.6-0.3,1h-1.5c0-0.4,0.1-0.8,0.2-1.1c0.1-0.3,0.3-0.6,0.6-0.9
		c0.2-0.2,0.5-0.3,0.7-0.4c0.3-0.1,0.6-0.1,1-0.1c0.8,0,1.4,0.2,1.9,0.6s0.7,0.9,0.7,1.6c0,0.5-0.1,0.9-0.4,1.2
		c-0.2,0.2-0.4,0.3-0.6,0.4c0.1,0,0.4,0.1,0.6,0.4c0.4,0.4,0.6,0.9,0.6,1.5c0,0.7-0.2,1.3-0.7,1.8c-0.5,0.5-1.2,0.8-2.1,0.8
		c-1.1,0-1.9-0.4-2.4-1.1c-0.2-0.4-0.4-0.9-0.4-1.6H79.1z"/>
	<path class="st0 st2" d="M89,134.1c0.6,0.2,1,0.5,1.4,1c0.3,0.4,0.5,0.8,0.6,1.3s0.2,0.9,0.2,1.4c0,1.1-0.2,2-0.7,2.8c-0.6,1-1.5,1.5-2.7,1.5h-3.5
		v-8.2h3.5C88.2,133.9,88.6,134,89,134.1z M85.8,135.3v5.3h1.6c0.8,0,1.4-0.4,1.7-1.2c0.2-0.4,0.3-1,0.3-1.6c0-0.8-0.1-1.5-0.4-1.9
		c-0.3-0.4-0.8-0.7-1.6-0.7H85.8z"/>
	<path class="st0 st2" d="M96,133.8v8.3h-1.5v-8.3H96z"/>
	<path class="st0 st2" d="M105.3,134.1c0.6,0.2,1,0.5,1.4,1c0.3,0.4,0.5,0.8,0.6,1.3s0.2,0.9,0.2,1.4c0,1.1-0.2,2-0.7,2.8c-0.6,1-1.5,1.5-2.7,1.5
		h-3.5v-8.2h3.5C104.6,133.9,105,134,105.3,134.1z M102.2,135.3v5.3h1.6c0.8,0,1.4-0.4,1.7-1.2c0.2-0.4,0.3-1,0.3-1.6
		c0-0.8-0.1-1.5-0.4-1.9c-0.3-0.4-0.8-0.7-1.6-0.7H102.2z"/>
	<path class="st0 st2" d="M112.2,136.2c0.4,0.2,0.8,0.5,1,0.9c0.2,0.4,0.4,0.8,0.5,1.3c0,0.3,0.1,0.7,0.1,1.2h-4.4c0,0.6,0.2,1,0.6,1.3
		c0.2,0.2,0.5,0.2,0.9,0.2c0.4,0,0.7-0.1,0.9-0.3c0.1-0.1,0.2-0.2,0.3-0.4h1.6c0,0.4-0.2,0.7-0.6,1.1c-0.5,0.6-1.3,0.9-2.3,0.9
		c-0.8,0-1.5-0.2-2.1-0.7c-0.6-0.5-0.9-1.3-0.9-2.4c0-1,0.3-1.9,0.8-2.4c0.6-0.6,1.3-0.8,2.2-0.8C111.3,135.9,111.8,136,112.2,136.2
		z M109.9,137.5c-0.2,0.2-0.4,0.5-0.4,0.9h2.7c0-0.4-0.2-0.7-0.4-1c-0.3-0.2-0.6-0.3-0.9-0.3C110.4,137.2,110.1,137.3,109.9,137.5z"
		/>
	<path class="st0 st2" d="M115.5,140.2c0,0.3,0.1,0.5,0.2,0.6c0.2,0.2,0.6,0.3,1.1,0.3c0.3,0,0.6,0,0.7-0.1c0.2-0.1,0.3-0.2,0.3-0.4
		c0-0.2-0.1-0.3-0.2-0.4s-0.7-0.3-1.7-0.5c-0.7-0.2-1.2-0.4-1.5-0.6c-0.3-0.3-0.4-0.6-0.4-1.1c0-0.6,0.2-1,0.7-1.4
		c0.4-0.4,1.1-0.6,1.9-0.6c0.8,0,1.4,0.2,1.9,0.5c0.5,0.3,0.8,0.8,0.8,1.6h-1.6c0-0.2-0.1-0.4-0.2-0.5c-0.2-0.2-0.5-0.3-0.9-0.3
		c-0.3,0-0.6,0.1-0.7,0.2s-0.2,0.2-0.2,0.4c0,0.2,0.1,0.3,0.2,0.4c0.2,0.1,0.7,0.2,1.7,0.4c0.6,0.1,1.1,0.4,1.4,0.7
		c0.3,0.3,0.5,0.7,0.5,1.1c0,0.6-0.2,1.1-0.7,1.5s-1.1,0.6-2.1,0.6c-1,0-1.7-0.2-2.1-0.6s-0.7-0.9-0.7-1.5H115.5z"/>
	<path class="st0 st2" d="M121.9,135.3h-1.6v-1.5h1.6V135.3z M120.3,136h1.6v6.1h-1.6V136z"/>
	<path class="st0 st2" d="M126.1,136c0.4,0.2,0.7,0.5,0.9,0.9V136h1.5v5.7c0,0.8-0.1,1.4-0.4,1.8c-0.5,0.7-1.3,1-2.6,1c-0.8,0-1.4-0.2-1.9-0.5
		c-0.5-0.3-0.8-0.8-0.8-1.4h1.7c0,0.2,0.1,0.3,0.2,0.4c0.2,0.1,0.5,0.2,0.9,0.2c0.6,0,1-0.2,1.1-0.6c0.1-0.2,0.2-0.7,0.2-1.2v-0.4
		c-0.2,0.3-0.3,0.5-0.5,0.6c-0.3,0.2-0.7,0.4-1.2,0.4c-0.8,0-1.4-0.3-1.9-0.8c-0.5-0.5-0.7-1.3-0.7-2.2c0-0.9,0.2-1.7,0.7-2.3
		c0.4-0.6,1.1-0.9,1.9-0.9C125.6,135.9,125.9,136,126.1,136z M126.6,140.4c0.3-0.3,0.4-0.7,0.4-1.3c0-0.6-0.1-1-0.4-1.3
		c-0.2-0.3-0.6-0.5-1-0.5c-0.6,0-0.9,0.3-1.1,0.8c-0.1,0.3-0.2,0.6-0.2,1c0,0.4,0.1,0.7,0.2,0.9c0.2,0.5,0.6,0.8,1.2,0.8
		C126,140.8,126.4,140.7,126.6,140.4z"/>
	<path class="st0 st2" d="M134.6,136.4c0.4,0.3,0.6,0.9,0.6,1.6v4.1h-1.6v-3.7c0-0.3,0-0.6-0.1-0.7c-0.2-0.3-0.4-0.5-0.9-0.5c-0.5,0-0.9,0.2-1.1,0.7
		c-0.1,0.2-0.2,0.5-0.2,0.9v3.3h-1.6v-6h1.5v0.9c0.2-0.3,0.4-0.5,0.6-0.7c0.3-0.2,0.7-0.4,1.2-0.4
		C133.7,135.9,134.2,136.1,134.6,136.4z"/>
	<path class="st0 st2" d="M142.9,136h1.7l-2.2,6.1h-1.7l-2.2-6.1h1.8l1.3,4.5L142.9,136z"/>
	<path class="st0 st2" d="M146.7,135.3h-1.6v-1.5h1.6V135.3z M145.1,136h1.6v6.1h-1.6V136z"/>
	<path class="st0 st2" d="M149.2,140.2c0,0.3,0.1,0.5,0.2,0.6c0.2,0.2,0.6,0.3,1.1,0.3c0.3,0,0.6,0,0.7-0.1c0.2-0.1,0.3-0.2,0.3-0.4
		c0-0.2-0.1-0.3-0.2-0.4s-0.7-0.3-1.7-0.5c-0.7-0.2-1.2-0.4-1.5-0.6c-0.3-0.3-0.4-0.6-0.4-1.1c0-0.6,0.2-1,0.7-1.4
		c0.4-0.4,1.1-0.6,1.9-0.6c0.8,0,1.4,0.2,1.9,0.5c0.5,0.3,0.8,0.8,0.8,1.6h-1.6c0-0.2-0.1-0.4-0.2-0.5c-0.2-0.2-0.5-0.3-0.9-0.3
		c-0.3,0-0.6,0.1-0.7,0.2s-0.2,0.2-0.2,0.4c0,0.2,0.1,0.3,0.2,0.4c0.2,0.1,0.7,0.2,1.7,0.4c0.6,0.1,1.1,0.4,1.4,0.7
		c0.3,0.3,0.5,0.7,0.5,1.1c0,0.6-0.2,1.1-0.7,1.5s-1.1,0.6-2.1,0.6c-1,0-1.7-0.2-2.1-0.6s-0.7-0.9-0.7-1.5H149.2z"/>
	<path class="st0 st2" d="M155.5,136v3.7c0,0.3,0,0.6,0.1,0.8c0.1,0.3,0.4,0.5,0.8,0.5c0.5,0,0.9-0.2,1.1-0.7c0.1-0.2,0.2-0.6,0.2-0.9V136h1.6v6.1
		h-1.5v-0.9c0,0-0.1,0.1-0.1,0.2s-0.1,0.2-0.2,0.2c-0.2,0.2-0.5,0.4-0.7,0.5c-0.2,0.1-0.5,0.1-0.8,0.1c-0.9,0-1.5-0.3-1.8-1
		c-0.2-0.4-0.3-0.9-0.3-1.6V136H155.5z"/>
	<path class="st0 st2" d="M162.9,138.4c0.3,0,0.5-0.1,0.6-0.1c0.2-0.1,0.3-0.2,0.3-0.5c0-0.2-0.1-0.4-0.3-0.5s-0.4-0.1-0.8-0.1
		c-0.4,0-0.6,0.1-0.8,0.3c-0.1,0.1-0.2,0.3-0.2,0.6h-1.5c0-0.5,0.2-1,0.4-1.3c0.4-0.5,1.1-0.8,2.2-0.8c0.7,0,1.3,0.1,1.8,0.4
		c0.5,0.3,0.8,0.8,0.8,1.5v2.8c0,0.2,0,0.4,0,0.7c0,0.2,0,0.3,0.1,0.4c0.1,0.1,0.1,0.1,0.2,0.2v0.2h-1.7c0-0.1-0.1-0.2-0.1-0.3
		s0-0.2,0-0.4c-0.2,0.2-0.5,0.4-0.8,0.6c-0.3,0.2-0.7,0.3-1.2,0.3c-0.6,0-1-0.2-1.4-0.5c-0.4-0.3-0.5-0.8-0.5-1.3
		c0-0.7,0.3-1.3,0.9-1.6c0.3-0.2,0.8-0.3,1.4-0.4L162.9,138.4z M163.9,139.2c-0.1,0.1-0.2,0.1-0.3,0.2s-0.2,0.1-0.4,0.1l-0.4,0.1
		c-0.3,0.1-0.6,0.1-0.7,0.2c-0.2,0.1-0.4,0.4-0.4,0.7c0,0.3,0.1,0.5,0.2,0.6s0.3,0.2,0.6,0.2c0.3,0,0.7-0.1,1-0.3s0.4-0.6,0.5-1.1
		V139.2z"/>
	<path class="st0 st2" d="M168.2,142.1h-1.6v-8.2h1.6V142.1z"/>
	<path class="st0 st2" d="M174.6,138.4c0.3,0,0.5-0.1,0.6-0.1c0.2-0.1,0.3-0.2,0.3-0.5c0-0.2-0.1-0.4-0.3-0.5s-0.4-0.1-0.8-0.1
		c-0.4,0-0.6,0.1-0.8,0.3c-0.1,0.1-0.2,0.3-0.2,0.6H172c0-0.5,0.2-1,0.4-1.3c0.4-0.5,1.1-0.8,2.2-0.8c0.7,0,1.3,0.1,1.8,0.4
		c0.5,0.3,0.8,0.8,0.8,1.5v2.8c0,0.2,0,0.4,0,0.7c0,0.2,0,0.3,0.1,0.4c0.1,0.1,0.1,0.1,0.2,0.2v0.2h-1.7c0-0.1-0.1-0.2-0.1-0.3
		s0-0.2,0-0.4c-0.2,0.2-0.5,0.4-0.8,0.6c-0.3,0.2-0.7,0.3-1.2,0.3c-0.6,0-1-0.2-1.4-0.5c-0.4-0.3-0.5-0.8-0.5-1.3
		c0-0.7,0.3-1.3,0.9-1.6c0.3-0.2,0.8-0.3,1.4-0.4L174.6,138.4z M175.6,139.2c-0.1,0.1-0.2,0.1-0.3,0.2s-0.2,0.1-0.4,0.1l-0.4,0.1
		c-0.3,0.1-0.6,0.1-0.7,0.2c-0.2,0.1-0.4,0.4-0.4,0.7c0,0.3,0.1,0.5,0.2,0.6s0.3,0.2,0.6,0.2c0.3,0,0.7-0.1,1-0.3s0.4-0.6,0.5-1.1
		V139.2z"/>
	<path class="st0 st2" d="M181.5,135.9c0,0,0.1,0,0.1,0v1.6c-0.1,0-0.2,0-0.3,0s-0.1,0-0.2,0c-0.6,0-1.1,0.2-1.3,0.6c-0.1,0.2-0.2,0.6-0.2,1.1v2.9
		h-1.6V136h1.5v1.1c0.2-0.4,0.5-0.7,0.6-0.8C180.6,136,181,135.9,181.5,135.9C181.5,135.9,181.5,135.9,181.5,135.9z"/>
	<path class="st0 st2" d="M181.6,137.2v-1.1h0.8v-1.7h1.6v1.7h1v1.1h-1v3.2c0,0.2,0,0.4,0.1,0.5c0.1,0.1,0.3,0.1,0.6,0.1c0,0,0.1,0,0.2,0
		s0.1,0,0.2,0v1.2l-0.8,0c-0.7,0-1.3-0.1-1.5-0.4c-0.2-0.2-0.3-0.5-0.3-0.8v-3.7H181.6z"/>
	<path class="st0 st2" d="M187.3,135.3h-1.6v-1.5h1.6V135.3z M185.7,136h1.6v6.1h-1.6V136z"/>
	<path class="st0 st2" d="M189.8,140.2c0,0.3,0.1,0.5,0.2,0.6c0.2,0.2,0.6,0.3,1.1,0.3c0.3,0,0.6,0,0.7-0.1c0.2-0.1,0.3-0.2,0.3-0.4
		c0-0.2-0.1-0.3-0.2-0.4s-0.7-0.3-1.7-0.5c-0.7-0.2-1.2-0.4-1.5-0.6c-0.3-0.3-0.4-0.6-0.4-1.1c0-0.6,0.2-1,0.7-1.4
		c0.4-0.4,1.1-0.6,1.9-0.6c0.8,0,1.4,0.2,1.9,0.5c0.5,0.3,0.8,0.8,0.8,1.6h-1.6c0-0.2-0.1-0.4-0.2-0.5c-0.2-0.2-0.5-0.3-0.9-0.3
		c-0.3,0-0.6,0.1-0.7,0.2s-0.2,0.2-0.2,0.4c0,0.2,0.1,0.3,0.2,0.4c0.2,0.1,0.7,0.2,1.7,0.4c0.6,0.1,1.1,0.4,1.4,0.7
		c0.3,0.3,0.5,0.7,0.5,1.1c0,0.6-0.2,1.1-0.7,1.5s-1.1,0.6-2.1,0.6c-1,0-1.7-0.2-2.1-0.6s-0.7-0.9-0.7-1.5H189.8z"/>
	<path class="st0 st2" d="M193.9,137.2v-1.1h0.8v-1.7h1.6v1.7h1v1.1h-1v3.2c0,0.2,0,0.4,0.1,0.5c0.1,0.1,0.3,0.1,0.6,0.1c0,0,0.1,0,0.2,0
		s0.1,0,0.2,0v1.2l-0.8,0c-0.7,0-1.3-0.1-1.5-0.4c-0.2-0.2-0.3-0.5-0.3-0.8v-3.7H193.9z"/>
</g>
<g>
	<path class="st0 st1" d="M98.9,100.9h8v2.5h-5v7.1h4.4v2.5h-4.4v7.6h5v2.5h-8V100.9z"/>
	<path class="st0 st1" d="M109.7,100.9h8v2.5h-5v7.1h4.5v2.5h-4.5v10.2h-3V100.9z"/>
	<path class="st0 st1" d="M118.5,100.9h2.9l1.5,4.3c0.6,1.7,1,3,1.1,3.7c0.1-0.5,0.2-1,0.4-1.4c0.1-0.5,0.3-0.9,0.4-1.4l0.2-0.7l1.4-4.6h3l-4.1,11
		l4.1,11.3h-3L125,119c-0.3-0.8-0.5-1.6-0.7-2.3c-0.2-0.7-0.3-1.3-0.4-1.8c-0.1,0.6-0.2,1.3-0.4,1.9l-0.5,1.6l-0.3,0.8l-1.3,4h-3.2
		l4.2-11.3L118.5,100.9z"/>
	<path class="st0 st1" d="M131.1,100.9h3.7c1.1,0,2.1,0.1,2.8,0.4c0.7,0.2,1.3,0.7,1.9,1.3c0.8,0.9,1.4,2.1,1.8,3.6c0.4,1.4,0.5,3.5,0.5,6.2
		c0,2.5-0.2,4.5-0.6,6c-0.4,1.5-1,2.6-1.9,3.4c-1.1,1-3,1.5-5.9,1.5h-2.4V100.9z M134.2,120.6c1.8,0,3.1-0.6,3.7-1.7
		c0.6-1.1,1-3.3,1-6.5c0-3.4-0.3-5.8-0.9-7.1c-0.6-1.3-1.7-1.9-3.3-1.9h-0.4V120.6z"/>
	<path class="st0 st1" d="M144.9,100.9h8v2.5h-5v7.1h4.4v2.5h-4.4v7.6h5v2.5h-8V100.9z"/>
	<path class="st0 st1" d="M163.1,101.4v2.9c-0.9-0.7-1.7-1-2.5-1c-0.8,0-1.4,0.3-1.9,0.8c-0.5,0.5-0.8,1.2-0.8,2.1c0,0.8,0.2,1.5,0.5,2
		c0.2,0.3,0.5,0.7,0.9,1.2c0.4,0.5,1,1,1.6,1.7c1.2,1.2,2.1,2.3,2.5,3.2c0.4,0.9,0.7,2,0.7,3.2c0,1.7-0.5,3.1-1.5,4.3
		c-1,1.1-2.2,1.6-3.7,1.6c-1.3,0-2.4-0.4-3.3-1.1v-3c1.1,0.8,2,1.2,2.9,1.2c0.8,0,1.5-0.3,1.9-0.8c0.5-0.5,0.7-1.3,0.7-2.2
		c0-0.8-0.2-1.5-0.5-2.2c-0.2-0.3-0.4-0.7-0.8-1.1c-0.3-0.4-0.7-0.8-1.2-1.3c-0.8-0.8-1.4-1.4-1.9-2c-0.5-0.6-0.9-1.1-1.1-1.5
		c-0.5-0.8-0.7-1.9-0.7-3.2c0-1.7,0.5-3.1,1.4-4.2c0.9-1,2.1-1.5,3.7-1.5C161.1,100.6,162.2,100.8,163.1,101.4z"/>
	<path class="st0 st1" d="M166.7,100.9h3v22.3h-3V100.9z"/>
	<path class="st0 st1" d="M178.5,111.5h5.5v0.9c0,4.3-0.4,7.3-1.1,8.8c-0.8,1.6-2.2,2.3-4.2,2.3c-2.1,0-3.6-0.9-4.6-2.6c-0.9-1.7-1.3-4.7-1.3-8.8
		c0-4.7,0.5-7.8,1.5-9.4c0.9-1.5,2.3-2.2,4.3-2.2c1.5,0,2.6,0.4,3.4,1.1c0.8,0.7,1.5,1.9,1.9,3.5l-2.8,1.2c-0.1-0.6-0.3-1.1-0.4-1.5
		c-0.2-0.4-0.3-0.7-0.5-0.9c-0.4-0.5-0.9-0.7-1.6-0.7c-1,0-1.7,0.6-2.1,1.9c-0.4,1.3-0.5,3.6-0.5,7c0,3.4,0.2,5.7,0.6,6.9
		c0.4,1.2,1.1,1.8,2.1,1.8c1,0,1.6-0.4,2-1.3c0.4-0.9,0.6-2.4,0.6-4.4v-0.6V114h-2.6V111.5z"/>
	<path class="st0 st1" d="M187,100.9h2.8l3,8.9c0.9,2.5,1.6,5.2,2.3,8.1c-0.2-1.7-0.4-3.3-0.5-4.7c-0.1-1.4-0.2-2.7-0.2-3.9v-8.3h3v22.3h-2.8
		l-3.4-10.1c-0.3-0.9-0.6-1.9-0.9-2.9c-0.3-1-0.5-2-0.8-3.1c0-0.1-0.1-0.3-0.1-0.5c0-0.2-0.1-0.4-0.2-0.7c0,0.3,0.1,0.5,0.1,0.6
		c0,0.2,0,0.3,0,0.5l0.2,2.3l0.2,2.8c0,0.2,0,0.3,0,0.6c0,0.2,0,0.5,0,0.8l0.2,9.7h-3V100.9z"/>
</g>
</svg>
