<?xml version="1.0" encoding="utf-8"?>
<!-- Generator: Adobe Illustrator 22.0.0, SVG Export Plug-In . SVG Version: 6.00 Build 0)  -->
<svg version="1.1" id="black_1_" xmlns="http://www.w3.org/2000/svg" xmlns:xlink="http://www.w3.org/1999/xlink" x="0px" y="0px"
	 viewBox="0 0 600 126" style="enable-background:new 0 0 600 126;" xml:space="preserve">
<style type="text/css">
	.st0{fill:#FFFFFF;}
</style>
<g id="JOSSELIN_BILLOT">
	<g>
		<path class="st0" d="M19.1,3.8h11.6v65.7c0,6.7-1,11.5-2.9,14.5c-2.9,4.3-7.6,6.5-14,6.5c-3.8,0-7.1-0.7-9.8-2.2V76.8
			c3.3,2,5.8,2.9,7.6,2.9c5,0,7.6-3.6,7.6-10.7v-3.4V3.8z"/>
		<path class="st0" d="M86.6,48.8c0,15.1-1.7,25.9-5,32.2c-3.4,6.4-9,9.5-16.9,9.5c-8.3,0-14.1-3.4-17.5-10.3
			c-3.4-6.7-5-18.6-5-35.7c0-15.2,1.7-26,5-32.3c3.4-6.4,9-9.5,17-9.5c7.1,0,12.5,2.5,15.9,7.4c2.3,3.3,3.9,8,5,14
			C86.1,29.8,86.6,38,86.6,48.8z M74.5,50c0-14.8-0.7-24.7-2-29.5c-1.3-4.9-4-7.3-8.1-7.3s-6.8,2.2-8.2,6.7c-1.3,4.5-2,13.6-2,27.2
			c0,12.5,0.7,21.2,2.1,26.1c1.4,4.6,4.1,6.9,8.1,6.9c3.9,0,6.5-2.1,8-6.4C73.8,69.3,74.5,61.5,74.5,50z"/>
		<path class="st0" d="M126.4,5.6v11.3c-3.5-2.5-6.7-3.8-9.5-3.8c-3,0-5.5,1.1-7.4,3.2c-1.9,2-2.9,4.8-2.9,8.2c0,3,0.7,5.6,2,7.7
			c0.7,1.1,1.9,2.6,3.5,4.4c1.6,1.8,3.7,4,6.2,6.5c4.7,4.8,7.9,8.9,9.6,12.4c1.7,3.4,2.5,7.5,2.5,12.4c0,6.6-1.9,12.1-5.6,16.4
			c-3.7,4.2-8.5,6.3-14.3,6.3c-4.9,0-9.1-1.3-12.5-4V75.1c4.1,3,7.8,4.5,11.2,4.5c3.1,0,5.6-1,7.4-3.1c1.8-2.1,2.7-4.9,2.7-8.5
			c0-3.1-0.7-5.9-2-8.4c-0.7-1.2-1.7-2.5-2.9-4.1c-1.3-1.5-2.8-3.2-4.7-5.1c-2.9-2.9-5.3-5.4-7.2-7.7c-1.9-2.2-3.3-4.2-4.3-5.8
			c-1.8-3.3-2.7-7.4-2.7-12.3c0-6.7,1.7-12,5.2-15.9c3.5-4,8.2-5.9,14.1-5.9C118.8,2.7,122.7,3.7,126.4,5.6z"/>
		<path class="st0" d="M168.7,5.6v11.3c-3.5-2.5-6.7-3.8-9.5-3.8c-3,0-5.5,1.1-7.4,3.2c-1.9,2-2.9,4.8-2.9,8.2c0,3,0.7,5.6,2,7.7
			c0.7,1.1,1.9,2.6,3.5,4.4c1.6,1.8,3.7,4,6.2,6.5c4.7,4.8,7.9,8.9,9.6,12.4c1.7,3.4,2.5,7.5,2.5,12.4c0,6.6-1.9,12.1-5.6,16.4
			c-3.7,4.2-8.5,6.3-14.3,6.3c-4.9,0-9.1-1.3-12.5-4V75.1c4.1,3,7.8,4.5,11.2,4.5c3.1,0,5.6-1,7.4-3.1c1.8-2.1,2.7-4.9,2.7-8.5
			c0-3.1-0.7-5.9-2-8.4c-0.7-1.2-1.7-2.5-2.9-4.1c-1.3-1.5-2.8-3.2-4.7-5.1c-2.9-2.9-5.3-5.4-7.2-7.7c-1.9-2.2-3.3-4.2-4.3-5.8
			c-1.8-3.3-2.7-7.4-2.7-12.3c0-6.7,1.7-12,5.2-15.9c3.5-4,8.2-5.9,14.1-5.9C161,2.7,164.9,3.7,168.7,5.6z"/>
		<path class="st0" d="M182.4,3.8H213v9.8h-19.1v27.1h16.9v9.8h-16.9v29.2H213v9.8h-30.6V3.8z"/>
		<path class="st0" d="M223.6,3.8h11.5v75.9h18.8v9.8h-30.3V3.8z"/>
		<path class="st0" d="M261,3.8h11.5v85.6H261V3.8z"/>
		<path class="st0" d="M285.7,3.8h10.7L307.9,38c3.3,9.7,6.2,19.9,8.8,30.9c-0.9-6.6-1.6-12.6-2-18c-0.4-5.4-0.7-10.4-0.7-15.1V3.8
			h11.6v85.6h-10.8l-12.9-38.5c-1.2-3.6-2.3-7.3-3.3-11s-2-7.7-2.9-11.9c-0.1-0.5-0.2-1.1-0.4-1.9c-0.2-0.7-0.4-1.6-0.6-2.6
			c0.1,1,0.2,1.8,0.3,2.5c0.1,0.7,0.1,1.3,0.2,1.7l0.6,8.7l0.6,10.6c0,0.6,0.1,1.3,0.1,2.2c0,0.9,0,1.8,0,2.9l0.6,37.3h-11.3V3.8z"
			/>
		<path class="st0" d="M362.1,3.8h15.6c12.2,0,18.3,7.6,18.3,22.8c0,5.8-0.8,10.1-2.4,12.9c-1.6,2.8-4.4,4.9-8.4,6.4
			c4.6,1.8,7.8,4.2,9.5,7.1c1.7,2.8,2.6,7.1,2.6,12.9c0,15.7-6.7,23.6-20.1,23.6h-15V3.8z M372.9,41.6c4.5,0,7.6-1,9.3-3.1
			c1.7-2.2,2.6-6,2.6-11.5c0-9.2-3.3-13.9-10-13.9H374h-0.5c-0.3,0-0.5,0-0.6,0.1V41.6z M372.9,79.6c4.7,0,8-1,9.8-3.1
			c1.8-2,2.7-5.7,2.7-11c0-5.5-0.9-9.3-2.8-11.5c-1.8-2.2-5.1-3.3-9.7-3.3V79.6z"/>
		<path class="st0" d="M408.7,3.8h11.5v85.6h-11.5V3.8z"/>
		<path class="st0" d="M433.3,3.8h11.5v75.9h18.8v9.8h-30.3V3.8z"/>
		<path class="st0" d="M470.8,3.8h11.5v75.9h18.8v9.8h-30.3V3.8z"/>
		<path class="st0" d="M551,48.8c0,15.1-1.7,25.9-5,32.2c-3.4,6.4-9,9.5-16.9,9.5c-8.3,0-14.1-3.4-17.5-10.3c-3.4-6.7-5-18.6-5-35.7
			c0-15.2,1.7-26,5-32.3c3.4-6.4,9-9.5,17-9.5c7.1,0,12.5,2.5,15.9,7.4c2.3,3.3,3.9,8,5,14C550.5,29.8,551,38,551,48.8z M539,50
			c0-14.8-0.7-24.7-2-29.5c-1.3-4.9-4-7.3-8.1-7.3s-6.8,2.2-8.2,6.7c-1.3,4.5-2,13.6-2,27.2c0,12.5,0.7,21.2,2.1,26.1
			c1.4,4.6,4.1,6.9,8.1,6.9c3.9,0,6.5-2.1,8-6.4C538.3,69.3,539,61.5,539,50z"/>
		<path class="st0" d="M556.4,3.8h37.4v10.1h-12.9v75.5h-11.3V13.9h-13.3V3.8z"/>
	</g>
</g>
<g id="Directeur_de_la_Photographie">
	<g>
		<path class="st0" d="M363.2,96.4h3c0.9,0,1.7,0.1,2.3,0.3c0.6,0.2,1.1,0.6,1.6,1.1c0.7,0.8,1.2,1.8,1.5,3c0.3,1.2,0.4,2.9,0.4,5.1
			c0,2-0.2,3.7-0.5,5c-0.3,1.2-0.8,2.2-1.6,2.8c-0.9,0.8-2.5,1.2-4.8,1.2h-2V96.4z M365.6,112.6c1.5,0,2.5-0.5,3-1.4
			c0.5-0.9,0.8-2.7,0.8-5.3c0-2.8-0.2-4.8-0.7-5.8c-0.5-1.1-1.4-1.6-2.7-1.6h-0.3V112.6z"/>
		<path class="st0" d="M375.4,97.2c0.4,0,0.8,0.2,1.1,0.5c0.3,0.3,0.5,0.7,0.5,1.1c0,0.4-0.2,0.8-0.5,1.1c-0.3,0.3-0.7,0.5-1.1,0.5
			s-0.8-0.2-1.1-0.5c-0.3-0.3-0.4-0.7-0.4-1.1c0-0.4,0.1-0.8,0.5-1.1C374.6,97.4,375,97.2,375.4,97.2z M374.3,102.5h2.3v12.3h-2.3
			V102.5z"/>
		<path class="st0" d="M379.2,102.5h2.3v1.5c0.4-0.7,0.8-1.1,1.2-1.4s0.9-0.4,1.5-0.5v2.4c-0.2,0-0.3,0-0.4,0
			c-0.8,0-1.4,0.2-1.7,0.6c-0.3,0.4-0.5,1.1-0.5,2.2v7.5h-2.3V102.5z"/>
		<path class="st0" d="M390.5,110.6h2.1c-0.2,2.9-1.4,4.3-3.6,4.3c-0.7,0-1.2-0.1-1.7-0.4c-0.5-0.2-0.9-0.6-1.2-1.1s-0.5-1.2-0.7-2
			c-0.1-0.8-0.2-1.7-0.2-2.8c0-2.2,0.3-3.8,0.9-4.8c0.6-1,1.5-1.6,2.8-1.6c2.5,0,3.7,2.2,3.7,6.5v0.3h-5.2c0,2.6,0.5,4,1.6,4
			C390,113,390.5,112.2,390.5,110.6z M390.3,107.4c-0.1-1.3-0.2-2.1-0.4-2.5c-0.2-0.5-0.5-0.7-1-0.7c-0.5,0-0.8,0.2-1,0.7
			c-0.2,0.4-0.3,1.3-0.4,2.5H390.3z"/>
		<path class="st0" d="M399.7,102.7v2.3c-0.3-0.4-0.7-0.6-1.1-0.6c-1.2,0-1.9,1.4-1.9,4.1c0,2.9,0.6,4.3,1.9,4.3
			c0.3,0,0.7-0.2,1.2-0.5v2.1c-0.6,0.3-1.2,0.5-1.8,0.5c-2.4,0-3.7-2.1-3.7-6.2c0-2.2,0.3-3.8,0.9-4.9c0.6-1.1,1.5-1.6,2.8-1.6
			C398.5,102.3,399.1,102.4,399.7,102.7z"/>
		<path class="st0" d="M401.9,99h2.3v3.5h1.2v1.8h-1.2v10.5h-2.3v-10.5h-1.2v-1.8h1.2V99z"/>
		<path class="st0" d="M411.7,110.6h2.1c-0.2,2.9-1.4,4.3-3.6,4.3c-0.7,0-1.2-0.1-1.7-0.4c-0.5-0.2-0.9-0.6-1.2-1.1s-0.5-1.2-0.7-2
			c-0.1-0.8-0.2-1.7-0.2-2.8c0-2.2,0.3-3.8,0.9-4.8c0.6-1,1.5-1.6,2.8-1.6c2.5,0,3.7,2.2,3.7,6.5v0.3h-5.2c0,2.6,0.5,4,1.6,4
			C411.3,113,411.7,112.2,411.7,110.6z M411.6,107.4c-0.1-1.3-0.2-2.1-0.4-2.5c-0.2-0.5-0.5-0.7-1-0.7c-0.5,0-0.8,0.2-1,0.7
			c-0.2,0.4-0.3,1.3-0.4,2.5H411.6z"/>
		<path class="st0" d="M415.9,102.5h2.3v8.2c0,0.8,0.1,1.3,0.3,1.6c0.2,0.3,0.6,0.5,1,0.5c0.5,0,0.9-0.1,1.1-0.4
			c0.2-0.3,0.3-0.8,0.3-1.6v-1v-7.4h2.3v7.4c0,1.7-0.1,2.9-0.4,3.5c-0.5,1.1-1.6,1.7-3.3,1.7c-1.3,0-2.2-0.3-2.8-1
			c-0.6-0.7-0.8-1.8-0.8-3.4V102.5z"/>
		<path class="st0" d="M425.8,102.5h2.3v1.5c0.4-0.7,0.8-1.1,1.2-1.4s0.9-0.4,1.5-0.5v2.4c-0.2,0-0.3,0-0.4,0
			c-0.8,0-1.4,0.2-1.7,0.6c-0.3,0.4-0.5,1.1-0.5,2.2v7.5h-2.3V102.5z"/>
		<path class="st0" d="M444.3,94.6v20.2h-2.3v-1.6c-0.3,0.7-0.6,1.1-1,1.4s-0.8,0.4-1.3,0.4c-1,0-1.8-0.5-2.2-1.6
			c-0.5-1-0.7-2.7-0.7-4.9c0-1.1,0.1-2,0.2-2.8c0.1-0.8,0.3-1.4,0.5-1.9c0.2-0.5,0.6-0.9,0.9-1.1c0.4-0.2,0.8-0.4,1.4-0.4
			c0.5,0,0.9,0.1,1.2,0.4c0.2,0.1,0.3,0.3,0.5,0.5s0.3,0.5,0.5,0.8v-9.3H444.3z M439.2,108.6c0,1.6,0.1,2.7,0.3,3.4
			c0.2,0.6,0.6,1,1.2,1c0.5,0,0.9-0.3,1.1-1c0.2-0.7,0.3-1.8,0.3-3.3c0-1.5-0.1-2.6-0.3-3.3c-0.2-0.7-0.6-1-1.1-1
			c-0.5,0-0.9,0.3-1.2,1C439.3,105.9,439.2,107,439.2,108.6z"/>
		<path class="st0" d="M451.6,110.6h2.1c-0.2,2.9-1.4,4.3-3.6,4.3c-0.7,0-1.2-0.1-1.7-0.4c-0.5-0.2-0.9-0.6-1.2-1.1s-0.5-1.2-0.7-2
			c-0.1-0.8-0.2-1.7-0.2-2.8c0-2.2,0.3-3.8,0.9-4.8c0.6-1,1.5-1.6,2.8-1.6c2.5,0,3.7,2.2,3.7,6.5v0.3h-5.2c0,2.6,0.5,4,1.6,4
			C451.2,113,451.6,112.2,451.6,110.6z M451.5,107.4c-0.1-1.3-0.2-2.1-0.4-2.5c-0.2-0.5-0.5-0.7-1-0.7c-0.5,0-0.8,0.2-1,0.7
			c-0.2,0.4-0.3,1.3-0.4,2.5H451.5z"/>
		<path class="st0" d="M460.9,94.6h2.3v20.2h-2.3V94.6z"/>
		<path class="st0" d="M472.7,102.5v12.3h-2.3v-1.6c-0.3,0.7-0.6,1.1-1,1.4s-0.8,0.4-1.3,0.4c-1,0-1.8-0.5-2.2-1.6
			c-0.5-1-0.7-2.7-0.7-4.9c0-2.1,0.2-3.7,0.7-4.7c0.5-1,1.2-1.5,2.2-1.5c0.9,0,1.7,0.5,2.3,1.6v-1.4H472.7z M467.6,108.6
			c0,1.6,0.1,2.7,0.3,3.4c0.2,0.6,0.6,1,1.2,1c0.5,0,0.9-0.3,1.1-1c0.2-0.7,0.3-1.8,0.3-3.3c0-1.5-0.1-2.6-0.3-3.3
			c-0.2-0.7-0.6-1-1.1-1c-0.5,0-0.9,0.3-1.2,1C467.7,105.9,467.6,107,467.6,108.6z"/>
		<path class="st0" d="M480.5,96.4h3.2c1.6,0,2.7,0.4,3.4,1.2c0.7,0.8,1.1,2.1,1.1,3.8c0,2.4-0.7,4-2.1,4.7
			c-0.7,0.3-1.8,0.5-3.1,0.5v8.2h-2.5V96.4z M482.9,104.5c1,0,1.7-0.2,2.1-0.6c0.4-0.4,0.6-1.2,0.6-2.2c0-1.1-0.2-1.9-0.6-2.4
			c-0.4-0.5-1-0.8-1.8-0.8h-0.3V104.5z"/>
		<path class="st0" d="M490,94.6h2.3v9.3c0.6-1.1,1.5-1.6,2.5-1.6c1,0,1.7,0.4,2.1,1.2c0.2,0.4,0.4,1.3,0.4,2.6v8.8H495l0-8.2
			c0-0.8-0.1-1.4-0.3-1.8c-0.2-0.3-0.5-0.5-1-0.5c-0.3,0-0.5,0-0.7,0.1c-0.2,0.1-0.3,0.2-0.4,0.4c-0.1,0.2-0.2,0.5-0.2,0.8
			c-0.1,0.3-0.1,0.7-0.1,1.2v8H490V94.6z"/>
		<path class="st0" d="M507,108.7c0,4.2-1.3,6.2-3.9,6.2c-2.6,0-3.9-2.1-3.9-6.3c0-4.2,1.3-6.4,3.8-6.4c0.7,0,1.2,0.1,1.7,0.4
			c0.5,0.3,0.9,0.6,1.2,1.2c0.3,0.5,0.6,1.2,0.7,2C507,106.7,507,107.6,507,108.7z M504.7,108.7c0-1.6-0.1-2.7-0.3-3.4
			c-0.2-0.6-0.6-1-1.1-1c-0.5,0-0.9,0.3-1.2,1c-0.2,0.6-0.3,1.7-0.3,3.3c0,1.6,0.1,2.7,0.3,3.3c0.2,0.6,0.6,1,1.2,1
			c0.5,0,0.9-0.3,1.1-0.9C504.6,111.3,504.7,110.3,504.7,108.7z"/>
		<path class="st0" d="M509.4,99h2.3v3.5h1.2v1.8h-1.2v10.5h-2.3v-10.5h-1.2v-1.8h1.2V99z"/>
		<path class="st0" d="M521.7,108.7c0,4.2-1.3,6.2-3.9,6.2c-2.6,0-3.9-2.1-3.9-6.3c0-4.2,1.3-6.4,3.8-6.4c0.7,0,1.2,0.1,1.7,0.4
			c0.5,0.3,0.9,0.6,1.2,1.2c0.3,0.5,0.6,1.2,0.7,2C521.6,106.7,521.7,107.6,521.7,108.7z M519.4,108.7c0-1.6-0.1-2.7-0.3-3.4
			c-0.2-0.6-0.6-1-1.1-1c-0.5,0-0.9,0.3-1.2,1c-0.2,0.6-0.3,1.7-0.3,3.3c0,1.6,0.1,2.7,0.3,3.3c0.2,0.6,0.6,1,1.2,1
			c0.5,0,0.9-0.3,1.1-0.9C519.3,111.3,519.4,110.3,519.4,108.7z"/>
		<path class="st0" d="M528.6,102.5h2.3v12.7c0,1.5-0.2,2.6-0.5,3.2c-0.6,1.1-1.7,1.6-3.3,1.6c-1.1,0-2-0.3-2.6-0.9
			c-0.6-0.6-0.9-1.5-0.9-2.6l0-0.4h2.2c0,1.3,0.5,2,1.5,2c0.5,0,0.9-0.2,1.1-0.5c0.2-0.3,0.3-0.9,0.3-1.9v-2.4
			c-0.5,1.1-1.2,1.7-2.2,1.7c-1,0-1.8-0.5-2.3-1.5c-0.5-1-0.7-2.6-0.7-4.7c0-2.3,0.2-3.9,0.7-5c0.5-1,1.2-1.5,2.3-1.5
			c0.5,0,0.9,0.1,1.2,0.4s0.6,0.7,1,1.3V102.5z M528.6,108.7c0-2.9-0.5-4.4-1.5-4.4c-0.5,0-0.8,0.3-1.1,1c-0.2,0.7-0.3,1.7-0.3,3.2
			c0,1.5,0.1,2.7,0.3,3.4c0.2,0.7,0.6,1,1.2,1c0.5,0,0.9-0.3,1.1-0.9C528.5,111.5,528.6,110.4,528.6,108.7z"/>
		<path class="st0" d="M533.4,102.5h2.3v1.5c0.4-0.7,0.8-1.1,1.2-1.4s0.9-0.4,1.5-0.5v2.4c-0.2,0-0.3,0-0.4,0
			c-0.8,0-1.4,0.2-1.7,0.6c-0.3,0.4-0.5,1.1-0.5,2.2v7.5h-2.3V102.5z"/>
		<path class="st0" d="M547,102.5v12.3h-2.3v-1.6c-0.3,0.7-0.6,1.1-1,1.4s-0.8,0.4-1.3,0.4c-1,0-1.8-0.5-2.2-1.6
			c-0.5-1-0.7-2.7-0.7-4.9c0-2.1,0.2-3.7,0.7-4.7c0.5-1,1.2-1.5,2.2-1.5c0.9,0,1.7,0.5,2.3,1.6v-1.4H547z M541.9,108.6
			c0,1.6,0.1,2.7,0.3,3.4c0.2,0.6,0.6,1,1.2,1c0.5,0,0.9-0.3,1.1-1c0.2-0.7,0.3-1.8,0.3-3.3c0-1.5-0.1-2.6-0.3-3.3
			c-0.2-0.7-0.6-1-1.1-1c-0.5,0-0.9,0.3-1.2,1C542,105.9,541.9,107,541.9,108.6z"/>
		<path class="st0" d="M549.6,119.8v-17.4h2.3v1.6c0.3-0.7,0.6-1.1,1-1.4s0.8-0.4,1.3-0.4c1,0,1.8,0.5,2.2,1.6
			c0.5,1.1,0.7,2.7,0.7,4.9c0,2.2-0.2,3.8-0.7,4.7c-0.5,1-1.2,1.5-2.3,1.5c-0.5,0-0.9-0.1-1.2-0.3c-0.2-0.1-0.3-0.3-0.5-0.5
			c-0.2-0.2-0.3-0.5-0.5-0.7v6.4H549.6z M554.7,108.7c0-1.7-0.1-2.8-0.3-3.4c-0.2-0.6-0.6-1-1.2-1c-0.5,0-0.9,0.3-1.1,1
			c-0.2,0.6-0.3,1.7-0.3,3.3c0,1.6,0.1,2.7,0.3,3.3c0.2,0.7,0.6,1,1.1,1c0.5,0,0.9-0.3,1.2-1C554.6,111.4,554.7,110.3,554.7,108.7z"
			/>
		<path class="st0" d="M559.2,94.6h2.3v9.3c0.6-1.1,1.5-1.6,2.5-1.6c1,0,1.7,0.4,2.1,1.2c0.2,0.4,0.4,1.3,0.4,2.6v8.8h-2.3l0-8.2
			c0-0.8-0.1-1.4-0.3-1.8c-0.2-0.3-0.5-0.5-1-0.5c-0.3,0-0.5,0-0.7,0.1c-0.2,0.1-0.3,0.2-0.4,0.4c-0.1,0.2-0.2,0.5-0.2,0.8
			c-0.1,0.3-0.1,0.7-0.1,1.2v8h-2.3V94.6z"/>
		<path class="st0" d="M570.1,97.2c0.4,0,0.8,0.2,1.1,0.5c0.3,0.3,0.5,0.7,0.5,1.1c0,0.4-0.2,0.8-0.5,1.1c-0.3,0.3-0.7,0.5-1.1,0.5
			s-0.8-0.2-1.1-0.5c-0.3-0.3-0.4-0.7-0.4-1.1c0-0.4,0.1-0.8,0.5-1.1C569.3,97.4,569.7,97.2,570.1,97.2z M569,102.5h2.3v12.3H569
			V102.5z"/>
		<path class="st0" d="M578.6,110.6h2.1c-0.2,2.9-1.4,4.3-3.6,4.3c-0.7,0-1.2-0.1-1.7-0.4c-0.5-0.2-0.9-0.6-1.2-1.1s-0.5-1.2-0.7-2
			c-0.1-0.8-0.2-1.7-0.2-2.8c0-2.2,0.3-3.8,0.9-4.8c0.6-1,1.5-1.6,2.8-1.6c2.5,0,3.7,2.2,3.7,6.5v0.3h-5.2c0,2.6,0.5,4,1.6,4
			C578.1,113,578.6,112.2,578.6,110.6z M578.5,107.4c-0.1-1.3-0.2-2.1-0.4-2.5c-0.2-0.5-0.5-0.7-1-0.7c-0.5,0-0.8,0.2-1,0.7
			c-0.2,0.4-0.3,1.3-0.4,2.5H578.5z"/>
	</g>
</g>
</svg>
