<?xml version="1.0" encoding="utf-8"?>
<!-- Generator: Adobe Illustrator 22.0.0, SVG Export Plug-In . SVG Version: 6.00 Build 0)  -->
<svg version="1.1" id="black_1_" xmlns="http://www.w3.org/2000/svg" xmlns:xlink="http://www.w3.org/1999/xlink" x="0px" y="0px"
	 viewBox="0 0 200 129" style="enable-background:new 0 0 200 129;" xml:space="preserve">
<style type="text/css">
	.st0{fill:#FFFFFF;}
</style>
<g id="JOSSELIN_x0D_BILLOT">
	<g>
		<path class="st0" d="M19.9,2.2h6.6v37.6c0,3.8-0.6,6.6-1.7,8.3c-1.6,2.5-4.3,3.7-8.1,3.7c-2.2,0-4.1-0.4-5.6-1.3v-6.6
			c1.9,1.1,3.3,1.7,4.4,1.7c2.9,0,4.3-2,4.3-6.1v-2V2.2H19.9z"/>
		<path class="st0" d="M58.6,27.9c0,8.6-1,14.8-2.9,18.4s-5.1,5.5-9.7,5.5c-4.8,0-8.1-2-10-5.9c-1.9-3.8-2.9-10.6-2.9-20.4
			c0-8.7,1-14.9,2.9-18.5s5.2-5.5,9.8-5.5c4.1,0,7.1,1.4,9.1,4.2c1.3,1.9,2.3,4.6,2.9,8C58.3,17,58.6,21.7,58.6,27.9z M51.7,28.6
			c0-8.5-0.4-14.1-1.1-16.9c-0.8-2.8-2.3-4.2-4.7-4.2s-3.9,1.3-4.7,3.8c-0.8,2.6-1.1,7.8-1.1,15.5c0,7.2,0.4,12.1,1.2,14.9
			c0.8,2.6,2.4,3.9,4.6,3.9c2.2,0,3.7-1.2,4.6-3.7C51.3,39.6,51.7,35.1,51.7,28.6z"/>
		<path class="st0" d="M81.4,3.2v6.4c-2-1.4-3.8-2.2-5.4-2.2c-1.7,0-3.1,0.6-4.2,1.8s-1.6,2.7-1.6,4.7c0,1.7,0.4,3.2,1.2,4.4
			c0.4,0.7,1.1,1.5,2,2.5s2.1,2.3,3.6,3.7c2.7,2.7,4.5,5.1,5.5,7.1c1,1.9,1.5,4.3,1.5,7.1c0,3.8-1.1,6.9-3.2,9.3
			c-2.1,2.4-4.9,3.6-8.2,3.6c-2.8,0-5.2-0.8-7.2-2.3v-6.5c2.3,1.7,4.5,2.6,6.4,2.6c1.8,0,3.2-0.6,4.2-1.8s1.5-2.8,1.5-4.9
			c0-1.8-0.4-3.4-1.2-4.8c-0.4-0.7-1-1.5-1.7-2.3c-0.7-0.9-1.6-1.9-2.7-2.9c-1.7-1.6-3.1-3.1-4.2-4.4s-1.9-2.4-2.4-3.3
			c-1-1.9-1.5-4.2-1.5-7c0-3.8,1-6.9,3-9.1c2-2.3,4.7-3.4,8.1-3.4C77.1,1.5,79.3,2.1,81.4,3.2z"/>
		<path class="st0" d="M105.6,3.2v6.4c-2-1.4-3.8-2.2-5.4-2.2c-1.7,0-3.1,0.6-4.2,1.8s-1.6,2.7-1.6,4.7c0,1.7,0.4,3.2,1.2,4.4
			c0.4,0.7,1.1,1.5,2,2.5s2.1,2.3,3.6,3.7c2.7,2.7,4.5,5.1,5.5,7.1c1,1.9,1.5,4.3,1.5,7.1c0,3.8-1.1,6.9-3.2,9.3
			c-2.1,2.4-4.9,3.6-8.2,3.6c-2.8,0-5.2-0.8-7.2-2.3v-6.5c2.3,1.7,4.5,2.6,6.4,2.6c1.8,0,3.2-0.6,4.2-1.8s1.5-2.8,1.5-4.9
			c0-1.8-0.4-3.4-1.2-4.8c-0.4-0.7-1-1.5-1.7-2.3c-0.7-0.9-1.6-1.9-2.7-2.9c-1.7-1.6-3.1-3.1-4.2-4.4S90,21.9,89.5,21
			c-1-1.9-1.5-4.2-1.5-7c0-3.8,1-6.9,3-9.1c2-2.3,4.7-3.4,8.1-3.4C101.3,1.5,103.5,2.1,105.6,3.2z"/>
		<path class="st0" d="M113.5,2.2H131v5.6h-10.9v15.5h9.7v5.6h-9.7v16.7H131v5.6h-17.5V2.2z"/>
		<path class="st0" d="M137.1,2.2h6.6v43.4h10.8v5.6h-17.4L137.1,2.2L137.1,2.2z"/>
		<path class="st0" d="M158.6,2.2h6.6v48.9h-6.6V2.2z"/>
		<path class="st0" d="M172.7,2.2h6.1l6.6,19.5c1.9,5.5,3.6,11.4,5,17.7c-0.5-3.8-0.9-7.2-1.2-10.3s-0.4-5.9-0.4-8.7V2.2h6.6v48.9
			h-6.2l-7.4-22c-0.7-2-1.3-4.2-1.9-6.3c-0.6-2.2-1.2-4.4-1.7-6.8c0-0.3-0.1-0.7-0.2-1.1c-0.1-0.4-0.2-0.9-0.3-1.5
			c0.1,0.5,0.1,1,0.2,1.4c0,0.4,0.1,0.7,0.1,1l0.3,5l0.3,6.1c0,0.3,0,0.8,0,1.2c0,0.5,0,1,0,1.6l0.3,21.3h-6.5V2.2H172.7z"/>
		<path class="st0" d="M66.6,60.7h8.9c7,0,10.5,4.3,10.5,13c0,3.3-0.5,5.8-1.4,7.4s-2.5,2.8-4.8,3.6c2.6,1.1,4.4,2.4,5.4,4.1
			c1,1.6,1.5,4.1,1.5,7.4c0,9-3.8,13.5-11.5,13.5h-8.6V60.7z M72.8,82.2c2.6,0,4.3-0.6,5.3-1.8c1-1.2,1.5-3.4,1.5-6.6
			c0-5.3-1.9-7.9-5.7-7.9h-0.5h-0.3c-0.2,0-0.3,0-0.3,0V82.2z M72.8,104c2.7,0,4.6-0.6,5.6-1.7c1-1.2,1.6-3.3,1.6-6.3
			c0-3.1-0.5-5.3-1.6-6.6c-1.1-1.3-2.9-1.9-5.5-1.9L72.8,104L72.8,104z"/>
		<path class="st0" d="M93.3,60.7h6.6v48.9h-6.6V60.7z"/>
		<path class="st0" d="M107.5,60.7h6.6V104h10.8v5.6h-17.4V60.7z"/>
		<path class="st0" d="M128.9,60.7h6.6V104h10.8v5.6h-17.4L128.9,60.7L128.9,60.7z"/>
		<path class="st0" d="M174.9,86.3c0,8.6-1,14.8-2.9,18.4s-5.1,5.5-9.7,5.5c-4.8,0-8.1-2-10-5.9c-1.9-3.8-2.9-10.6-2.9-20.4
			c0-8.7,1-14.9,2.9-18.5s5.2-5.5,9.8-5.5c4.1,0,7.1,1.4,9.1,4.2c1.3,1.9,2.3,4.6,2.9,8C174.6,75.5,174.9,80.2,174.9,86.3z M168,87
			c0-8.5-0.4-14.1-1.1-16.9c-0.8-2.8-2.3-4.2-4.7-4.2c-2.3,0-3.9,1.3-4.7,3.8c-0.8,2.6-1.1,7.8-1.1,15.5c0,7.2,0.4,12.1,1.2,14.9
			c0.8,2.6,2.4,3.9,4.6,3.9c2.2,0,3.7-1.2,4.6-3.7C167.6,98.1,168,93.6,168,87z"/>
		<path class="st0" d="M178,60.7h21.5v5.8h-7.4v43.2h-6.5V66.4H178V60.7z"/>
	</g>
</g>
<g id="Directeur_de_la_Photographie">
	<g>
		<path class="st0" d="M67.2,115.1H69c0.5,0,1,0.1,1.3,0.2s0.6,0.3,0.9,0.6c0.4,0.4,0.7,1,0.8,1.7c0.2,0.7,0.3,1.6,0.3,2.9
			c0,1.2-0.1,2.1-0.3,2.8c-0.2,0.7-0.5,1.2-0.9,1.6c-0.5,0.5-1.4,0.7-2.8,0.7h-1.1C67.2,125.6,67.2,115.1,67.2,115.1z M68.6,124.4
			c0.9,0,1.4-0.3,1.7-0.8c0.3-0.5,0.4-1.5,0.4-3c0-1.6-0.1-2.7-0.4-3.3s-0.8-0.9-1.6-0.9h-0.2L68.6,124.4L68.6,124.4z"/>
		<path class="st0" d="M74.2,115.6c0.2,0,0.4,0.1,0.6,0.3s0.3,0.4,0.3,0.6s-0.1,0.5-0.3,0.6c-0.2,0.2-0.4,0.3-0.6,0.3
			s-0.5-0.1-0.6-0.3c-0.2-0.2-0.3-0.4-0.3-0.6s0.1-0.4,0.3-0.6C73.8,115.7,74,115.6,74.2,115.6z M73.6,118.6h1.3v7h-1.3V118.6z"/>
		<path class="st0" d="M76.4,118.6h1.3v0.9c0.2-0.4,0.4-0.6,0.7-0.8c0.2-0.1,0.5-0.2,0.9-0.3v1.4c-0.1,0-0.2,0-0.2,0
			c-0.5,0-0.8,0.1-1,0.4c-0.2,0.2-0.3,0.6-0.3,1.2v4.3h-1.3L76.4,118.6L76.4,118.6z"/>
		<path class="st0" d="M82.9,123.2h1.2c-0.1,1.7-0.8,2.5-2,2.5c-0.4,0-0.7-0.1-1-0.2s-0.5-0.4-0.7-0.7c-0.2-0.3-0.3-0.7-0.4-1.1
			c-0.1-0.5-0.1-1-0.1-1.6c0-1.2,0.2-2.2,0.5-2.8c0.3-0.6,0.9-0.9,1.6-0.9c1.4,0,2.1,1.2,2.1,3.7v0.2h-3c0,1.5,0.3,2.3,0.9,2.3
			S82.9,124.1,82.9,123.2z M82.8,121.4c-0.1-0.7-0.1-1.2-0.3-1.5c-0.1-0.3-0.3-0.4-0.6-0.4c-0.3,0-0.5,0.1-0.6,0.4
			c-0.1,0.2-0.2,0.7-0.3,1.5H82.8z"/>
		<path class="st0" d="M88.2,118.7v1.3c-0.2-0.2-0.4-0.3-0.7-0.3c-0.7,0-1.1,0.8-1.1,2.3c0,1.6,0.4,2.5,1.1,2.5
			c0.2,0,0.4-0.1,0.7-0.3v1.2c-0.3,0.2-0.7,0.3-1,0.3c-1.4,0-2.1-1.2-2.1-3.6c0-1.3,0.2-2.2,0.5-2.8s0.9-0.9,1.6-0.9
			C87.5,118.4,87.8,118.5,88.2,118.7z"/>
		<path class="st0" d="M89.4,116.6h1.3v2h0.7v1h-0.7v6h-1.3v-6h-0.7v-1h0.7V116.6z"/>
		<path class="st0" d="M95.1,123.2h1.2c-0.1,1.7-0.8,2.5-2,2.5c-0.4,0-0.7-0.1-1-0.2s-0.5-0.4-0.7-0.7c-0.2-0.3-0.3-0.7-0.4-1.1
			c-0.1-0.5-0.1-1-0.1-1.6c0-1.2,0.2-2.2,0.5-2.8c0.3-0.6,0.9-0.9,1.6-0.9c1.4,0,2.1,1.2,2.1,3.7v0.2h-3c0,1.5,0.3,2.3,0.9,2.3
			C94.8,124.6,95.1,124.1,95.1,123.2z M95,121.4c-0.1-0.7-0.1-1.2-0.3-1.5c-0.1-0.3-0.3-0.4-0.6-0.4c-0.3,0-0.5,0.1-0.6,0.4
			c-0.1,0.2-0.2,0.7-0.3,1.5H95z"/>
		<path class="st0" d="M97.5,118.6h1.3v4.7c0,0.4,0.1,0.7,0.2,0.9c0.1,0.2,0.3,0.3,0.6,0.3c0.3,0,0.5-0.1,0.6-0.2
			c0.1-0.2,0.2-0.5,0.2-0.9v-0.6v-4.2h1.3v4.2c0,1-0.1,1.6-0.2,2c-0.3,0.6-0.9,1-1.9,1c-0.8,0-1.3-0.2-1.6-0.6
			c-0.3-0.4-0.5-1-0.5-1.9V118.6z"/>
		<path class="st0" d="M103.1,118.6h1.3v0.9c0.2-0.4,0.4-0.6,0.7-0.8c0.2-0.1,0.5-0.2,0.9-0.3v1.4c-0.1,0-0.2,0-0.2,0
			c-0.5,0-0.8,0.1-1,0.4c-0.2,0.2-0.3,0.6-0.3,1.2v4.3h-1.3L103.1,118.6L103.1,118.6z"/>
		<path class="st0" d="M113.8,114v11.6h-1.3v-0.9c-0.2,0.4-0.4,0.7-0.6,0.8c-0.2,0.1-0.4,0.2-0.7,0.2c-0.6,0-1-0.3-1.3-0.9
			s-0.4-1.5-0.4-2.8c0-0.6,0-1.1,0.1-1.6c0.1-0.4,0.2-0.8,0.3-1.1c0.1-0.3,0.3-0.5,0.5-0.6s0.5-0.2,0.8-0.2s0.5,0.1,0.7,0.2
			c0.1,0.1,0.2,0.2,0.3,0.3c0.1,0.1,0.2,0.3,0.3,0.4V114H113.8z M110.8,122c0,0.9,0.1,1.6,0.2,1.9c0.1,0.4,0.3,0.6,0.7,0.6
			c0.3,0,0.5-0.2,0.6-0.6s0.2-1,0.2-1.9s-0.1-1.5-0.2-1.9s-0.3-0.6-0.6-0.6c-0.3,0-0.5,0.2-0.7,0.5
			C110.9,120.5,110.8,121.1,110.8,122z"/>
		<path class="st0" d="M117.9,123.2h1.2c-0.1,1.7-0.8,2.5-2,2.5c-0.4,0-0.7-0.1-1-0.2s-0.5-0.4-0.7-0.7c-0.2-0.3-0.3-0.7-0.4-1.1
			c-0.1-0.5-0.1-1-0.1-1.6c0-1.2,0.2-2.2,0.5-2.8c0.3-0.6,0.9-0.9,1.6-0.9c1.4,0,2.1,1.2,2.1,3.7v0.2h-3c0,1.5,0.3,2.3,0.9,2.3
			C117.7,124.6,117.9,124.1,117.9,123.2z M117.9,121.4c-0.1-0.7-0.1-1.2-0.3-1.5c-0.1-0.3-0.3-0.4-0.6-0.4c-0.3,0-0.5,0.1-0.6,0.4
			c-0.1,0.2-0.2,0.7-0.3,1.5H117.9z"/>
		<path class="st0" d="M123.2,114h1.3v11.6h-1.3V114z"/>
		<path class="st0" d="M130,118.6v7h-1.3v-0.9c-0.2,0.4-0.4,0.7-0.6,0.8c-0.2,0.1-0.4,0.2-0.7,0.2c-0.6,0-1-0.3-1.3-0.9
			s-0.4-1.5-0.4-2.8c0-1.2,0.1-2.1,0.4-2.7s0.7-0.9,1.3-0.9c0.5,0,1,0.3,1.3,0.9v-0.8h1.3V118.6z M127.1,122c0,0.9,0.1,1.6,0.2,1.9
			c0.1,0.4,0.3,0.6,0.7,0.6c0.3,0,0.5-0.2,0.6-0.6c0.1-0.4,0.2-1,0.2-1.9s-0.1-1.5-0.2-1.9c-0.1-0.4-0.3-0.6-0.6-0.6
			c-0.3,0-0.5,0.2-0.7,0.5C127.2,120.5,127.1,121.1,127.1,122z"/>
		<path class="st0" d="M134.5,115.1h1.9c0.9,0,1.6,0.2,2,0.7s0.6,1.2,0.6,2.2c0,1.4-0.4,2.3-1.2,2.7c-0.4,0.2-1,0.3-1.8,0.3v4.7
			h-1.4v-10.6H134.5z M135.9,119.7c0.6,0,1-0.1,1.2-0.4c0.2-0.2,0.3-0.7,0.3-1.3c0-0.6-0.1-1.1-0.3-1.4s-0.6-0.4-1-0.4h-0.2V119.7z"
			/>
		<path class="st0" d="M139.9,114h1.3v5.3c0.4-0.6,0.9-0.9,1.4-0.9c0.6,0,1,0.2,1.2,0.7c0.1,0.3,0.2,0.7,0.2,1.5v5h-1.3v-4.7
			c0-0.5-0.1-0.8-0.2-1c-0.1-0.2-0.3-0.3-0.6-0.3c-0.1,0-0.3,0-0.4,0.1c-0.1,0.1-0.2,0.1-0.2,0.3s-0.1,0.3-0.1,0.5s0,0.4,0,0.7v4.5
			h-1.3L139.9,114L139.9,114z"/>
		<path class="st0" d="M149.7,122.1c0,2.4-0.7,3.6-2.2,3.6s-2.2-1.2-2.2-3.6s0.7-3.6,2.2-3.6c0.4,0,0.7,0.1,1,0.2s0.5,0.4,0.7,0.7
			s0.3,0.7,0.4,1.1C149.7,120.9,149.7,121.5,149.7,122.1z M148.4,122.1c0-0.9-0.1-1.6-0.2-1.9c-0.1-0.4-0.3-0.6-0.7-0.6
			c-0.3,0-0.5,0.2-0.7,0.5c-0.1,0.4-0.2,1-0.2,1.9s0.1,1.5,0.2,1.9c0.1,0.4,0.4,0.5,0.7,0.5s0.5-0.2,0.6-0.5
			C148.3,123.6,148.4,123,148.4,122.1z"/>
		<path class="st0" d="M151.1,116.6h1.3v2h0.7v1h-0.7v6h-1.3v-6h-0.7v-1h0.7V116.6z"/>
		<path class="st0" d="M158.1,122.1c0,2.4-0.7,3.6-2.2,3.6s-2.2-1.2-2.2-3.6s0.7-3.6,2.2-3.6c0.4,0,0.7,0.1,1,0.2s0.5,0.4,0.7,0.7
			s0.3,0.7,0.4,1.1C158.1,120.9,158.1,121.5,158.1,122.1z M156.8,122.1c0-0.9-0.1-1.6-0.2-1.9c-0.1-0.4-0.3-0.6-0.7-0.6
			c-0.3,0-0.5,0.2-0.7,0.5c-0.1,0.4-0.2,1-0.2,1.9s0.1,1.5,0.2,1.9c0.1,0.4,0.4,0.5,0.7,0.5s0.5-0.2,0.6-0.5
			C156.7,123.6,156.8,123,156.8,122.1z"/>
		<path class="st0" d="M162.1,118.6h1.3v7.3c0,0.9-0.1,1.5-0.3,1.8c-0.3,0.6-1,0.9-1.9,0.9c-0.6,0-1.1-0.2-1.5-0.5
			c-0.4-0.4-0.5-0.9-0.5-1.5v-0.2h1.3c0,0.7,0.3,1.1,0.8,1.1c0.3,0,0.5-0.1,0.6-0.3c0.1-0.2,0.2-0.5,0.2-1.1v-1.4
			c-0.3,0.6-0.7,1-1.3,1s-1-0.3-1.3-0.9s-0.4-1.5-0.4-2.7c0-1.3,0.1-2.2,0.4-2.8c0.3-0.6,0.7-0.9,1.3-0.9c0.3,0,0.5,0.1,0.7,0.2
			s0.4,0.4,0.6,0.7L162.1,118.6L162.1,118.6z M162.1,122.1c0-1.7-0.3-2.5-0.9-2.5c-0.3,0-0.5,0.2-0.6,0.6s-0.2,1-0.2,1.8
			c0,0.9,0.1,1.5,0.2,2c0.1,0.4,0.4,0.6,0.7,0.6s0.5-0.2,0.6-0.5C162,123.7,162.1,123.1,162.1,122.1z"/>
		<path class="st0" d="M164.8,118.6h1.3v0.9c0.2-0.4,0.4-0.6,0.7-0.8c0.2-0.1,0.5-0.2,0.9-0.3v1.4c-0.1,0-0.2,0-0.2,0
			c-0.5,0-0.8,0.1-1,0.4c-0.2,0.2-0.3,0.6-0.3,1.2v4.3h-1.3L164.8,118.6L164.8,118.6z"/>
		<path class="st0" d="M172.6,118.6v7h-1.3v-0.9c-0.2,0.4-0.4,0.7-0.6,0.8c-0.2,0.1-0.4,0.2-0.7,0.2c-0.6,0-1-0.3-1.3-0.9
			s-0.4-1.5-0.4-2.8c0-1.2,0.1-2.1,0.4-2.7c0.3-0.6,0.7-0.9,1.3-0.9c0.5,0,1,0.3,1.3,0.9v-0.8h1.3V118.6z M169.7,122
			c0,0.9,0.1,1.6,0.2,1.9c0.1,0.4,0.3,0.6,0.7,0.6c0.3,0,0.5-0.2,0.6-0.6s0.2-1,0.2-1.9s-0.1-1.5-0.2-1.9c-0.1-0.4-0.3-0.6-0.6-0.6
			s-0.5,0.2-0.7,0.5C169.8,120.5,169.7,121.1,169.7,122z"/>
		<path class="st0" d="M174.1,128.5v-9.9h1.3v0.9c0.2-0.4,0.4-0.7,0.6-0.8s0.4-0.2,0.7-0.2c0.6,0,1,0.3,1.3,0.9s0.4,1.5,0.4,2.8
			s-0.1,2.2-0.4,2.7c-0.3,0.6-0.7,0.8-1.3,0.8c-0.3,0-0.5-0.1-0.7-0.2c-0.1-0.1-0.2-0.2-0.3-0.3s-0.2-0.3-0.3-0.4v3.7H174.1z
			 M177,122.1c0-1-0.1-1.6-0.2-1.9c-0.1-0.4-0.3-0.6-0.7-0.6c-0.3,0-0.5,0.2-0.6,0.6s-0.2,1-0.2,1.9s0.1,1.5,0.2,1.9
			c0.1,0.4,0.3,0.6,0.6,0.6s0.5-0.2,0.7-0.5C177,123.7,177,123,177,122.1z"/>
		<path class="st0" d="M179.6,114h1.3v5.3c0.4-0.6,0.9-0.9,1.4-0.9c0.6,0,1,0.2,1.2,0.7c0.1,0.3,0.2,0.7,0.2,1.5v5h-1.3v-4.7
			c0-0.5-0.1-0.8-0.2-1c-0.1-0.2-0.3-0.3-0.6-0.3c-0.1,0-0.3,0-0.4,0.1c-0.1,0.1-0.2,0.1-0.2,0.3s-0.1,0.3-0.1,0.5s0,0.4,0,0.7v4.5
			h-1.3L179.6,114L179.6,114z"/>
		<path class="st0" d="M185.8,115.6c0.2,0,0.4,0.1,0.6,0.3c0.2,0.2,0.3,0.4,0.3,0.6s-0.1,0.5-0.3,0.6c-0.2,0.2-0.4,0.3-0.6,0.3
			c-0.2,0-0.5-0.1-0.6-0.3c-0.2-0.2-0.3-0.4-0.3-0.6s0.1-0.4,0.3-0.6C185.4,115.7,185.6,115.6,185.8,115.6z M185.2,118.6h1.3v7h-1.3
			V118.6z"/>
		<path class="st0" d="M190.7,123.2h1.2c-0.1,1.7-0.8,2.5-2,2.5c-0.4,0-0.7-0.1-1-0.2s-0.5-0.4-0.7-0.7c-0.2-0.3-0.3-0.7-0.4-1.1
			c-0.1-0.5-0.1-1-0.1-1.6c0-1.2,0.2-2.2,0.5-2.8c0.3-0.6,0.9-0.9,1.6-0.9c1.4,0,2.1,1.2,2.1,3.7v0.2h-3c0,1.5,0.3,2.3,0.9,2.3
			S190.7,124.1,190.7,123.2z M190.6,121.4c-0.1-0.7-0.1-1.2-0.3-1.5c-0.1-0.3-0.3-0.4-0.6-0.4s-0.5,0.1-0.6,0.4
			c-0.1,0.2-0.2,0.7-0.3,1.5H190.6z"/>
	</g>
</g>
</svg>
