<?xml version="1.0" encoding="utf-8"?>
<!-- Generator: Adobe Illustrator 23.0.1, SVG Export Plug-In . SVG Version: 6.00 Build 0)  -->
<!DOCTYPE svg PUBLIC "-//W3C//DTD SVG 1.1//EN" "http://www.w3.org/Graphics/SVG/1.1/DTD/svg11.dtd" [
	<!ENTITY ns_extend "http://ns.adobe.com/Extensibility/1.0/">
	<!ENTITY ns_ai "http://ns.adobe.com/AdobeIllustrator/10.0/">
	<!ENTITY ns_graphs "http://ns.adobe.com/Graphs/1.0/">
	<!ENTITY ns_vars "http://ns.adobe.com/Variables/1.0/">
	<!ENTITY ns_imrep "http://ns.adobe.com/ImageReplacement/1.0/">
	<!ENTITY ns_sfw "http://ns.adobe.com/SaveForWeb/1.0/">
	<!ENTITY ns_custom "http://ns.adobe.com/GenericCustomNamespace/1.0/">
	<!ENTITY ns_adobe_xpath "http://ns.adobe.com/XPath/1.0/">
]>
<svg version="1.1" id="black_1_" xmlns:x="&ns_extend;" xmlns:i="&ns_ai;" xmlns:graph="&ns_graphs;"
	 xmlns="http://www.w3.org/2000/svg" xmlns:xlink="http://www.w3.org/1999/xlink" x="0px" y="0px" viewBox="0 0 600 108.9"
	 style="enable-background:new 0 0 600 108.9;" xml:space="preserve">
<style type="text/css">
	.st0{fill:#FFFFFF;}
</style>
<metadata>
	<sfw  xmlns="&ns_sfw;">
		<slices></slices>
		<sliceSourceBounds  bottomLeftOrigin="true" height="101.8" width="599.7" x="0" y="53"></sliceSourceBounds>
	</sfw>
</metadata>
<g>
	<path class="st0" d="M28.2,6.1v10.2c-3.2-2.3-6-3.4-8.6-3.4c-2.7,0-5,1-6.7,2.9c-1.7,1.8-2.6,4.3-2.6,7.4c0,2.7,0.6,5,1.9,7
		c0.6,1,1.7,2.4,3.1,4c1.5,1.6,3.3,3.6,5.7,5.9c4.2,4.3,7.2,8.1,8.7,11.2c1.5,3,2.3,6.8,2.3,11.2c0,6-1.7,10.9-5.1,14.8
		c-3.4,3.8-7.7,5.7-13,5.7c-4.5,0-8.3-1.2-11.4-3.7V69.1c3.7,2.7,7.1,4.1,10.1,4.1c2.9,0,5.1-1,6.7-2.8s2.4-4.5,2.4-7.7
		c0-2.8-0.6-5.3-1.9-7.6c-0.6-1.1-1.5-2.3-2.7-3.7c-1.1-1.4-2.6-2.9-4.3-4.6C10.2,44,8,41.7,6.3,39.7s-3-3.8-3.9-5.3
		C0.8,31.5,0,27.8,0,23.3c0-6.1,1.6-10.9,4.7-14.4c3.2-3.6,7.5-5.4,12.8-5.4C21.2,3.4,24.8,4.3,28.2,6.1z"/>
	<path class="st0" d="M35.8,4.5h34v9.2H58.1v68.5H47.8V13.6h-12V4.5z"/>
	<path class="st0" d="M75.6,4.5h27.8v8.8H86v24.6h15.4v8.8H86v26.5h17.3V82H75.6V4.5z"/>
	<path class="st0" d="M113,4.5h13.8c6.6,0,11.5,1.7,14.5,5c3,3.4,4.5,8.7,4.5,16.1c0,10.3-3,17-9.1,20c-3,1.4-7.5,2.1-13.2,2.1v34.4
		H113V4.5L113,4.5z M123.4,38.7c4.3,0,7.3-0.9,8.9-2.6c1.7-1.8,2.5-4.9,2.5-9.5s-0.8-8-2.4-10.1c-1.6-2.1-4.1-3.2-7.6-3.2h-1.5
		L123.4,38.7L123.4,38.7z"/>
	<path class="st0" d="M153.8,4.5h10.5v30.4h15.3V4.5H190v77.6h-10.5V43.7h-15.3v38.4h-10.5C153.8,82.1,153.8,4.5,153.8,4.5z"/>
	<path class="st0" d="M213,4.5h8.1l16.6,77.6h-10.4L224.5,67h-15.4l-3,15.1H196L213,4.5z M223,58.9l-2.3-12.4
		c-1.5-8.4-2.8-17.4-3.8-26.9c-0.5,4.7-1.1,9.4-1.8,14.1s-1.6,9.8-2.6,15.2l-1.9,10H223z"/>
	<path class="st0" d="M243.9,4.5h9.8l10.4,31c3,8.8,5.7,18.1,8,28c-0.8-6-1.5-11.4-1.9-16.3s-0.6-9.4-0.6-13.7v-29h10.5v77.6h-9.8
		l-11.7-34.9c-1.1-3.3-2.1-6.6-3-10c-1-3.4-1.8-7-2.6-10.8c-0.1-0.5-0.2-1-0.3-1.7c-0.2-0.7-0.3-1.4-0.5-2.3
		c0.1,0.9,0.2,1.6,0.3,2.2s0.1,1.1,0.2,1.6l0.6,7.9l0.6,9.6c0,0.5,0.1,1.2,0.1,2s0,1.6,0,2.6l0.6,33.8H244L243.9,4.5L243.9,4.5z"/>
	<path class="st0" d="M292.1,4.5h10.5v77.6h-10.5V4.5z"/>
	<path class="st0" d="M314.5,4.5h27.8v8.8H325v24.6h15.4v8.8H325v26.5h17.3V82h-27.8V4.5L314.5,4.5z"/>
</g>
<g>
	<path class="st0" d="M360.6,4.5h10.3l4.7,28.7l0.8,5.2l1.7,11.3c0.3,1.9,0.5,3.6,0.7,5.2c0.2,1.6,0.4,3,0.6,4.3l0.5,3.8
		c0.1-0.8,0.2-1.5,0.3-2.1c0.1-0.6,0.1-1.1,0.2-1.5l1.4-9l1.8-11.8c0.2-1.1,0.3-2.1,0.5-3s0.3-1.7,0.4-2.4l5-28.7h9.8l-15.2,77.6
		h-8.3L360.6,4.5z"/>
	<path class="st0" d="M414.1,4.5h8.1l16.6,77.6h-10.4L425.5,67h-15.4l-3,15.1h-10L414.1,4.5z M424,58.9l-2.3-12.4
		c-1.5-8.4-2.8-17.4-3.8-26.9c-0.5,4.7-1.1,9.4-1.8,14.1c-0.7,4.8-1.6,9.8-2.6,15.2l-1.9,10H424z"/>
	<path class="st0" d="M445,4.5h13.8c5.7,0,9.9,1.4,12.7,4.1c3.5,3.5,5.3,8.9,5.3,16.1c0,5.6-0.9,10-2.8,13.4c-1.9,3.4-4.5,5.5-8,6.3
		l14.3,37.7h-10.6l-14.2-38v38H445V4.5L445,4.5z M455.4,38.9c4.1,0,6.9-0.9,8.6-2.8c1.7-1.9,2.5-5,2.5-9.5c0-2.4-0.2-4.5-0.5-6.2
		s-0.9-3.1-1.7-4.2c-0.7-1.1-1.7-1.9-2.9-2.4s-2.6-0.8-4.2-0.8h-1.8V38.9L455.4,38.9z"/>
	<path class="st0" d="M488.3,4.5h27.8v8.8h-17.3v24.6h15.4v8.8h-15.4v26.5h17.3V82h-27.8L488.3,4.5L488.3,4.5z"/>
	<path class="st0" d="M525.7,4.5h10.5v68.8h17.1v8.8h-27.5L525.7,4.5L525.7,4.5z"/>
	<path class="st0" d="M575,4.5h8.1l16.6,77.6h-10.4L586.5,67h-15.4l-3,15.1H558L575,4.5z M585,58.9l-2.3-12.4
		c-1.5-8.4-2.8-17.4-3.8-26.9c-0.5,4.7-1.1,9.4-1.8,14.1c-0.7,4.8-1.6,9.8-2.6,15.2l-1.9,10H585z"/>
</g>
<g id="REALISATRICE_PLASTICIENNE">
	<g>
		<path class="st0" d="M426.8,88.4h2.9c1.2,0,2.1,0.3,2.7,0.9c0.8,0.7,1.1,1.9,1.1,3.5c0,1.2-0.2,2.1-0.6,2.9
			c-0.4,0.7-1,1.2-1.7,1.3l3.1,8.1H432l-3-8.1v8.1h-2.2V88.4z M429,95.7c0.9,0,1.5-0.2,1.8-0.6s0.5-1.1,0.5-2c0-0.5,0-1-0.1-1.3
			s-0.2-0.7-0.3-0.9s-0.4-0.4-0.6-0.5s-0.6-0.2-0.9-0.2H429V95.7L429,95.7z"/>
		<path class="st0" d="M439.9,101.2h1.9c-0.1,2.6-1.2,3.9-3.2,3.9c-0.6,0-1.1-0.1-1.5-0.3c-0.4-0.2-0.8-0.6-1.1-1
			c-0.3-0.5-0.5-1.1-0.6-1.8s-0.2-1.6-0.2-2.6c0-2,0.3-3.4,0.8-4.4c0.6-1,1.4-1.4,2.6-1.4c2.2,0,3.3,2,3.3,5.9v0.3h-4.7
			c0,2.4,0.5,3.6,1.4,3.6C439.5,103.4,439.9,102.7,439.9,101.2z M439.8,98.3c-0.1-1.2-0.2-1.9-0.4-2.3c-0.2-0.4-0.5-0.6-0.9-0.6
			s-0.7,0.2-0.9,0.6c-0.2,0.4-0.3,1.1-0.4,2.3H439.8z M440.9,89.2l-2.2,3l-1.1-0.6l1.8-3.3L440.9,89.2z"/>
		<path class="st0" d="M450.1,93.9V105H448v-1.4c-0.3,0.6-0.6,1-0.9,1.3c-0.3,0.2-0.7,0.3-1.2,0.3c-0.9,0-1.6-0.5-2-1.4
			c-0.4-1-0.7-2.4-0.7-4.5c0-1.9,0.2-3.3,0.7-4.2c0.4-0.9,1.1-1.4,2-1.4c0.8,0,1.5,0.5,2,1.4v-1.3L450.1,93.9L450.1,93.9z
			 M445.5,99.4c0,1.5,0.1,2.5,0.3,3.1c0.2,0.6,0.6,0.9,1.1,0.9s0.8-0.3,1-0.9c0.2-0.7,0.3-1.6,0.3-3c0-1.3-0.1-2.3-0.3-3
			c-0.2-0.6-0.5-0.9-1-0.9s-0.8,0.3-1,0.9C445.6,96.9,445.5,97.9,445.5,99.4z"/>
		<path class="st0" d="M452.5,86.7h2.1V105h-2.1V86.7z"/>
		<path class="st0" d="M457.8,89.1c0.4,0,0.7,0.1,1,0.4s0.4,0.6,0.4,1s-0.1,0.7-0.4,1s-0.6,0.4-1,0.4s-0.7-0.1-1-0.4s-0.4-0.6-0.4-1
			s0.1-0.7,0.4-1C457.1,89.3,457.4,89.1,457.8,89.1z M456.9,93.9h2.1V105h-2.1V93.9z"/>
		<path class="st0" d="M465.5,94.1V96c-0.5-0.4-1-0.6-1.6-0.6c-0.2,0-0.4,0-0.5,0.1c-0.2,0.1-0.3,0.2-0.4,0.3
			c-0.1,0.1-0.2,0.2-0.3,0.4c-0.1,0.2-0.1,0.3-0.1,0.5c0,0.5,0.5,1.2,1.4,1.9c0.4,0.3,0.7,0.6,1,0.8c0.3,0.3,0.5,0.5,0.6,0.7
			c0.3,0.5,0.4,1,0.4,1.7c0,1-0.3,1.8-0.9,2.4s-1.3,0.9-2.3,0.9c-0.6,0-1.2-0.2-1.8-0.5v-2c0.6,0.4,1.2,0.7,1.7,0.7
			c0.9,0,1.4-0.5,1.4-1.4c0-0.3-0.1-0.7-0.3-0.9c-0.1-0.1-0.2-0.3-0.4-0.4s-0.4-0.3-0.6-0.5c-0.9-0.7-1.5-1.2-1.8-1.7
			s-0.5-1-0.5-1.7c0-0.9,0.3-1.6,0.8-2.2c0.6-0.6,1.3-0.9,2.2-0.9C464.3,93.6,464.9,93.8,465.5,94.1z"/>
		<path class="st0" d="M474.1,93.9V105H472v-1.4c-0.3,0.6-0.6,1-0.9,1.3s-0.7,0.3-1.2,0.3c-0.9,0-1.6-0.5-2-1.4
			c-0.4-1-0.7-2.4-0.7-4.5c0-1.9,0.2-3.3,0.7-4.2c0.4-0.9,1.1-1.4,2-1.4c0.8,0,1.5,0.5,2,1.4v-1.3L474.1,93.9L474.1,93.9z
			 M469.4,99.4c0,1.5,0.1,2.5,0.3,3.1c0.2,0.6,0.6,0.9,1.1,0.9s0.8-0.3,1-0.9c0.2-0.7,0.3-1.6,0.3-3c0-1.3-0.1-2.3-0.3-3
			c-0.2-0.6-0.5-0.9-1-0.9s-0.8,0.3-1,0.9C469.5,96.9,469.4,97.9,469.4,99.4z"/>
		<path class="st0" d="M476.7,90.7h2.1v3.1h1.1v1.6h-1.1v9.5h-2.1v-9.5h-1.1v-1.6h1.1V90.7z"/>
		<path class="st0" d="M481.3,93.9h2.1v1.4c0.3-0.6,0.7-1,1-1.2s0.8-0.4,1.4-0.4v2.2c-0.1,0-0.3,0-0.4,0c-0.7,0-1.3,0.2-1.6,0.6
			c-0.3,0.4-0.5,1-0.5,2v6.8h-2.1L481.3,93.9L481.3,93.9z"/>
		<path class="st0" d="M488.2,89.1c0.4,0,0.7,0.1,1,0.4s0.4,0.6,0.4,1s-0.1,0.7-0.4,1s-0.6,0.4-1,0.4s-0.7-0.1-1-0.4s-0.4-0.6-0.4-1
			s0.1-0.7,0.4-1C487.5,89.3,487.8,89.1,488.2,89.1z M487.2,93.9h2.1V105h-2.1V93.9z"/>
		<path class="st0" d="M496.2,94.1v2.1c-0.3-0.3-0.6-0.5-1-0.5c-1.1,0-1.7,1.2-1.7,3.7c0,2.6,0.6,3.9,1.7,3.9c0.3,0,0.7-0.1,1-0.4
			v1.9c-0.5,0.3-1.1,0.4-1.6,0.4c-2.2,0-3.3-1.9-3.3-5.6c0-2,0.3-3.5,0.8-4.4c0.5-1,1.4-1.4,2.5-1.4
			C495.1,93.7,495.6,93.8,496.2,94.1z"/>
		<path class="st0" d="M502.2,101.2h1.9c-0.1,2.6-1.2,3.9-3.2,3.9c-0.6,0-1.1-0.1-1.5-0.3c-0.4-0.2-0.8-0.6-1.1-1s-0.5-1.1-0.6-1.8
			c-0.1-0.7-0.2-1.6-0.2-2.6c0-2,0.3-3.4,0.8-4.4c0.6-1,1.4-1.4,2.6-1.4c2.2,0,3.3,2,3.3,5.9v0.3h-4.7c0,2.4,0.5,3.6,1.4,3.6
			C501.8,103.4,502.2,102.7,502.2,101.2z M502.1,98.3c-0.1-1.2-0.2-1.9-0.4-2.3c-0.2-0.4-0.5-0.6-0.9-0.6s-0.7,0.2-0.9,0.6
			c-0.2,0.4-0.3,1.1-0.4,2.3H502.1z"/>
		<path class="st0" d="M509.4,98.5h3.9v1.7h-3.9V98.5z"/>
		<path class="st0" d="M519.2,88.4h2.9c1.4,0,2.5,0.4,3.1,1.1c0.7,0.7,1,1.9,1,3.4c0,2.2-0.7,3.6-2,4.3c-0.7,0.3-1.6,0.4-2.8,0.4
			v7.4h-2.2V88.4L519.2,88.4z M521.4,95.7c0.9,0,1.6-0.2,1.9-0.6c0.4-0.4,0.5-1.1,0.5-2c0-1-0.2-1.7-0.5-2.2s-0.9-0.7-1.6-0.7h-0.3
			L521.4,95.7L521.4,95.7z"/>
		<path class="st0" d="M527.8,86.7h2.1V105h-2.1V86.7z"/>
		<path class="st0" d="M538.6,93.9V105h-2.1v-1.4c-0.3,0.6-0.6,1-0.9,1.3c-0.3,0.2-0.7,0.3-1.2,0.3c-0.9,0-1.6-0.5-2-1.4
			c-0.4-1-0.7-2.4-0.7-4.5c0-1.9,0.2-3.3,0.7-4.2c0.4-0.9,1.1-1.4,2-1.4c0.8,0,1.5,0.5,2,1.4v-1.3L538.6,93.9L538.6,93.9z
			 M533.9,99.4c0,1.5,0.1,2.5,0.3,3.1s0.6,0.9,1.1,0.9s0.8-0.3,1-0.9c0.2-0.7,0.3-1.6,0.3-3c0-1.3-0.1-2.3-0.3-3
			c-0.2-0.6-0.5-0.9-1-0.9s-0.8,0.3-1,0.9C534,96.9,533.9,97.9,533.9,99.4z"/>
		<path class="st0" d="M545.2,94.1V96c-0.5-0.4-1-0.6-1.6-0.6c-0.2,0-0.4,0-0.5,0.1c-0.2,0.1-0.3,0.2-0.4,0.3
			c-0.1,0.1-0.2,0.2-0.3,0.4c-0.1,0.2-0.1,0.3-0.1,0.5c0,0.5,0.5,1.2,1.4,1.9c0.4,0.3,0.7,0.6,1,0.8c0.3,0.3,0.5,0.5,0.6,0.7
			c0.3,0.5,0.4,1,0.4,1.7c0,1-0.3,1.8-0.9,2.4c-0.6,0.6-1.3,0.9-2.3,0.9c-0.6,0-1.2-0.2-1.8-0.5v-2c0.6,0.4,1.2,0.7,1.7,0.7
			c0.9,0,1.4-0.5,1.4-1.4c0-0.3-0.1-0.7-0.3-0.9c-0.1-0.1-0.2-0.3-0.4-0.4s-0.4-0.3-0.6-0.5c-0.9-0.7-1.5-1.2-1.8-1.7
			s-0.5-1-0.5-1.7c0-0.9,0.3-1.6,0.8-2.2c0.6-0.6,1.3-0.9,2.2-0.9C544,93.6,544.6,93.8,545.2,94.1z"/>
		<path class="st0" d="M547.7,90.7h2.1v3.1h1.1v1.6h-1.1v9.5h-2.1v-9.5h-1.1v-1.6h1.1V90.7z"/>
		<path class="st0" d="M553.4,89.1c0.4,0,0.7,0.1,1,0.4s0.4,0.6,0.4,1s-0.1,0.7-0.4,1s-0.6,0.4-1,0.4s-0.7-0.1-1-0.4s-0.4-0.6-0.4-1
			s0.1-0.7,0.4-1C552.7,89.3,553,89.1,553.4,89.1z M552.4,93.9h2.1V105h-2.1V93.9z"/>
		<path class="st0" d="M561.3,94.1v2.1c-0.3-0.3-0.6-0.5-1-0.5c-1.1,0-1.7,1.2-1.7,3.7c0,2.6,0.6,3.9,1.7,3.9c0.3,0,0.7-0.1,1-0.4
			v1.9c-0.5,0.3-1.1,0.4-1.6,0.4c-2.2,0-3.3-1.9-3.3-5.6c0-2,0.3-3.5,0.8-4.4c0.5-1,1.4-1.4,2.5-1.4
			C560.3,93.7,560.8,93.8,561.3,94.1z"/>
		<path class="st0" d="M564.1,89.1c0.4,0,0.7,0.1,1,0.4s0.4,0.6,0.4,1s-0.1,0.7-0.4,1c-0.3,0.3-0.6,0.4-1,0.4s-0.7-0.1-1-0.4
			s-0.4-0.6-0.4-1s0.1-0.7,0.4-1C563.3,89.3,563.7,89.1,564.1,89.1z M563.1,93.9h2.1V105h-2.1V93.9z"/>
		<path class="st0" d="M571.8,101.2h1.9c-0.1,2.6-1.2,3.9-3.2,3.9c-0.6,0-1.1-0.1-1.5-0.3c-0.4-0.2-0.8-0.6-1.1-1
			c-0.3-0.5-0.5-1.1-0.6-1.8c-0.1-0.7-0.2-1.6-0.2-2.6c0-2,0.3-3.4,0.8-4.4c0.6-1,1.4-1.4,2.6-1.4c2.2,0,3.3,2,3.3,5.9v0.3h-4.7
			c0,2.4,0.5,3.6,1.4,3.6C571.3,103.4,571.8,102.7,571.8,101.2z M571.7,98.3c-0.1-1.2-0.2-1.9-0.4-2.3s-0.5-0.6-0.9-0.6
			s-0.7,0.2-0.9,0.6s-0.3,1.1-0.4,2.3H571.7z"/>
		<path class="st0" d="M575.6,93.9h2.1v1.3c0.6-1,1.3-1.5,2.3-1.5c0.9,0,1.6,0.3,1.9,1.1c0.2,0.4,0.3,1.2,0.3,2.3v7.9h-2.1v-7.5
			c0-0.8-0.1-1.3-0.3-1.6c-0.2-0.3-0.5-0.5-0.9-0.5c-0.2,0-0.4,0-0.6,0.1c-0.2,0.1-0.3,0.2-0.4,0.4c-0.1,0.2-0.2,0.4-0.2,0.7
			c0,0.3-0.1,0.7-0.1,1.1v7.2h-2.1L575.6,93.9L575.6,93.9z"/>
		<path class="st0" d="M584.5,93.9h2.1v1.3c0.6-1,1.3-1.5,2.3-1.5c0.9,0,1.6,0.3,1.9,1.1c0.2,0.4,0.3,1.2,0.3,2.3v7.9H589v-7.5
			c0-0.8-0.1-1.3-0.3-1.6c-0.2-0.3-0.5-0.5-0.9-0.5c-0.2,0-0.4,0-0.6,0.1c-0.2,0.1-0.3,0.2-0.4,0.4c-0.1,0.2-0.2,0.4-0.2,0.7
			c0,0.3-0.1,0.7-0.1,1.1v7.2h-2.1L584.5,93.9L584.5,93.9z"/>
		<path class="st0" d="M597.7,101.2h1.9c-0.1,2.6-1.2,3.9-3.2,3.9c-0.6,0-1.1-0.1-1.5-0.3c-0.4-0.2-0.8-0.6-1.1-1
			c-0.3-0.5-0.5-1.1-0.6-1.8s-0.2-1.6-0.2-2.6c0-2,0.3-3.4,0.8-4.4c0.6-1,1.4-1.4,2.6-1.4c2.2,0,3.3,2,3.3,5.9v0.3H595
			c0,2.4,0.5,3.6,1.4,3.6C597.3,103.4,597.7,102.7,597.7,101.2z M597.6,98.3c-0.1-1.2-0.2-1.9-0.4-2.3s-0.5-0.6-0.9-0.6
			s-0.7,0.2-0.9,0.6s-0.3,1.1-0.4,2.3H597.6z"/>
	</g>
</g>
</svg>
