<?xml version="1.0" encoding="utf-8"?>
<!-- Generator: Adobe Illustrator 23.0.1, SVG Export Plug-In . SVG Version: 6.00 Build 0)  -->
<svg version="1.1" id="black_1_" xmlns="http://www.w3.org/2000/svg" xmlns:xlink="http://www.w3.org/1999/xlink" x="0px" y="0px"
	 viewBox="0 0 200 145" style="enable-background:new 0 0 200 145;" xml:space="preserve">
<g id="STEPHANIE_VARELA">
	<g>
		<path class="st0" d="M16.7,11.1V17c-1.9-1.3-3.5-2-5-2c-1.6,0-2.9,0.6-3.9,1.7c-1,1.1-1.5,2.5-1.5,4.3c0,1.6,0.4,2.9,1.1,4.1
			c0.4,0.6,1,1.4,1.8,2.3c0.8,1,1.9,2.1,3.3,3.5c2.5,2.5,4.2,4.7,5.1,6.5c0.9,1.8,1.3,4,1.3,6.5c0,3.5-1,6.4-3,8.6
			c-2,2.2-4.5,3.3-7.6,3.3c-2.6,0-4.8-0.7-6.6-2.1v-6c2.2,1.6,4.1,2.4,5.9,2.4c1.7,0,3-0.6,3.9-1.7c0.9-1.1,1.4-2.6,1.4-4.5
			c0-1.6-0.4-3.1-1.1-4.4c-0.4-0.6-0.9-1.3-1.6-2.2c-0.7-0.8-1.5-1.7-2.5-2.7c-1.5-1.5-2.8-2.9-3.8-4c-1-1.2-1.8-2.2-2.3-3.1
			c-0.9-1.7-1.4-3.9-1.4-6.5c0-3.5,0.9-6.3,2.8-8.4c1.9-2.1,4.3-3.1,7.5-3.1C12.7,9.6,14.8,10.1,16.7,11.1z"/>
		<path class="st0" d="M21.1,10.2H41v5.3h-6.8v39.9h-6V15.5h-7C21.1,15.5,21.1,10.2,21.1,10.2z"/>
		<path class="st0" d="M44.3,10.2h16.2v5.2H50.4v14.3h9v5.2h-9v15.4h10.1v5.2H44.3V10.2z"/>
		<path class="st0" d="M66.1,10.2h8c3.9,0,6.7,1,8.4,2.9c1.8,2,2.6,5.1,2.6,9.4c0,6-1.8,9.9-5.3,11.6c-1.8,0.8-4.3,1.2-7.7,1.2v20h-6.1
			L66.1,10.2L66.1,10.2z M72.2,30.1c2.5,0,4.3-0.5,5.2-1.5c1-1,1.5-2.9,1.5-5.5c0-2.7-0.5-4.7-1.4-5.9c-0.9-1.2-2.4-1.9-4.4-1.9
			h-0.8L72.2,30.1L72.2,30.1z"/>
		<path class="st0" d="M89.8,10.2h6.1v17.7h8.9V10.2h6.1v45.2h-6.1V33h-8.9v22.4h-6.1C89.8,55.3,89.8,10.2,89.8,10.2z"/>
		<path class="st0" d="M124.4,10.2h4.7l9.7,45.2h-6l-1.7-8.8h-9l-1.7,8.8h-5.9L124.4,10.2z M130.2,41.8l-1.3-7.2c-0.9-4.9-1.6-10.1-2.2-15.7
			c-0.3,2.7-0.6,5.5-1.1,8.2c-0.4,2.8-0.9,5.7-1.5,8.9l-1.1,5.8H130.2z"/>
		<path class="st0" d="M142.3,10.2h5.7l6.1,18c1.8,5.1,3.3,10.5,4.7,16.3c-0.5-3.5-0.8-6.7-1.1-9.5s-0.4-5.5-0.4-8V10.2h6.1v45.2h-5.7L150.9,35
			c-0.6-1.9-1.2-3.8-1.8-5.8c-0.6-2-1.1-4.1-1.5-6.3c0-0.3-0.1-0.6-0.2-1c-0.1-0.4-0.2-0.8-0.3-1.3c0.1,0.5,0.1,0.9,0.1,1.3
			c0,0.4,0.1,0.7,0.1,0.9l0.3,4.6L148,33c0,0.3,0,0.7,0,1.1c0,0.5,0,1,0,1.5l0.3,19.7h-6L142.3,10.2L142.3,10.2z"/>
		<path class="st0" d="M170.4,10.2h6.1v45.2h-6.1V10.2z"/>
		<path class="st0" d="M183.4,10.2h16.2v5.2h-10.1v14.3h9v5.2h-9v15.4h10.1v5.2h-16.2L183.4,10.2L183.4,10.2z"/>
		<path class="st1" d="M60.4,64.1h6l2.7,16.7l0.5,3l1,6.6c0.2,1.1,0.3,2.1,0.4,3c0.1,0.9,0.2,1.7,0.3,2.5l0.3,2.2c0.1-0.5,0.1-0.8,0.1-1.2
			c0-0.4,0.1-0.6,0.1-0.9l0.8-5.2l1-6.9c0.1-0.6,0.2-1.2,0.3-1.7c0.1-0.5,0.2-1,0.2-1.4l2.9-16.7h5.7l-8.9,45.2h-4.8L60.4,64.1z"/>
		<path class="st1" d="M91.5,64.1h4.7l9.7,45.2h-6l-1.7-8.8h-9l-1.7,8.8h-5.8L91.5,64.1z M97.3,95.8l-1.3-7.2c-0.9-4.9-1.6-10.1-2.2-15.7
			c-0.3,2.7-0.6,5.5-1.1,8.2c-0.4,2.8-0.9,5.7-1.5,8.9l-1.1,5.8H97.3z"/>
		<path class="st1" d="M109.5,64.1h8c3.3,0,5.8,0.8,7.4,2.4c2,2,3.1,5.2,3.1,9.4c0,3.2-0.5,5.8-1.6,7.8c-1.1,2-2.6,3.2-4.6,3.6l8.3,22h-6.2
			l-8.3-22.1v22.1h-6.1L109.5,64.1L109.5,64.1z M115.5,84.2c2.4,0,4-0.5,5-1.6c1-1.1,1.5-2.9,1.5-5.5c0-1.4-0.1-2.6-0.3-3.6
			s-0.5-1.8-1-2.4c-0.4-0.6-1-1.1-1.7-1.4c-0.7-0.3-1.5-0.4-2.5-0.4h-1L115.5,84.2L115.5,84.2z"/>
		<path class="st1" d="M134.7,64.1h16.2v5.2h-10.1v14.3h9v5.2h-9v15.4h10.1v5.2h-16.2L134.7,64.1L134.7,64.1z"/>
		<path class="st1" d="M156.5,64.1h6.1v40h10v5.2h-16V64.1z"/>
		<path class="st1" d="M185.2,64.1h4.7l9.7,45.2h-6l-1.7-8.8h-9l-1.7,8.8h-5.9L185.2,64.1z M191,95.8l-1.3-7.2c-0.9-4.9-1.6-10.1-2.2-15.7
			c-0.3,2.7-0.6,5.5-1.1,8.2s-0.9,5.7-1.5,8.9l-1.1,5.8H191z"/>
	</g>
</g>
<g id="REALISATRICE_PLASTICIENNE">
	<g>
		<path  class="st2" d="M69,114.7h2.2c0.9,0,1.6,0.3,2.1,0.6c0.5,0.5,0.9,1.4,0.9,2.6c0,0.9-0.1,1.6-0.5,2.2c-0.3,0.5-0.8,0.9-1.3,1l2.3,6.1H73
			l-2.3-6.1v6.1H69L69,114.7L69,114.7z M70.7,120.3c0.6,0,1.2-0.1,1.4-0.5c0.3-0.4,0.4-0.8,0.4-1.6c0-0.4,0-0.8-0.1-1
			c0-0.3-0.1-0.5-0.3-0.6s-0.3-0.3-0.5-0.4c-0.1-0.1-0.4-0.1-0.6-0.1h-0.3L70.7,120.3L70.7,120.3z"/>
		<path  class="st2" d="M78.9,124.4h1.4c-0.1,1.9-0.9,3-2.5,3c-0.5,0-0.8-0.1-1.2-0.3c-0.3-0.1-0.6-0.4-0.8-0.8c-0.3-0.4-0.4-0.8-0.5-1.3
			c-0.1-0.5-0.1-1.2-0.1-1.9c0-1.4,0.3-2.6,0.6-3.2c0.4-0.8,1-1,1.9-1c1.7,0,2.5,1.4,2.5,4.4v0.1h-3.5c0,1.8,0.4,2.7,1,2.7
			C78.7,126.1,78.9,125.4,78.9,124.4z M78.8,122.2c0-0.9-0.1-1.4-0.3-1.7c-0.1-0.3-0.4-0.5-0.6-0.5c-0.3,0-0.5,0.1-0.6,0.5
			c-0.1,0.3-0.3,0.9-0.3,1.7H78.8z M79.6,115.3l-1.7,2.2l-0.8-0.5l1.4-2.5L79.6,115.3z"/>
		<path  class="st2" d="M86.6,118.8v8.4H85v-1c-0.3,0.5-0.4,0.8-0.6,0.9c-0.3,0.1-0.5,0.3-0.9,0.3c-0.6,0-1.2-0.4-1.6-1c-0.3-0.8-0.5-1.8-0.5-3.4
			c0-1.4,0.1-2.5,0.5-3.2c0.3-0.6,0.8-1,1.6-1c0.6,0,1.2,0.4,1.6,1v-0.9L86.6,118.8L86.6,118.8z M83.1,123c0,1,0.1,1.8,0.3,2.3
			c0.1,0.4,0.4,0.6,0.8,0.6s0.6-0.3,0.8-0.6c0.1-0.5,0.3-1.3,0.3-2.2c0-1-0.1-1.8-0.3-2.2c-0.1-0.5-0.4-0.6-0.8-0.6
			c-0.4,0-0.6,0.3-0.8,0.6C83.2,121.2,83.1,121.9,83.1,123z"/>
		<path  class="st2" d="M88.4,113.4h1.6v13.7h-1.6V113.4z"/>
		<path  class="st2" d="M92.4,115.2c0.3,0,0.5,0.1,0.8,0.3c0.3,0.3,0.3,0.5,0.3,0.8c0,0.3-0.1,0.5-0.3,0.8c-0.3,0.3-0.5,0.3-0.8,0.3
			c-0.3,0-0.5-0.1-0.8-0.3c-0.3-0.3-0.3-0.5-0.3-0.8c0-0.3,0.1-0.5,0.3-0.8C91.9,115.3,92.1,115.2,92.4,115.2z M91.7,118.8h1.6v8.4
			h-1.6V118.8z"/>
		<path  class="st2" d="M98.2,119v1.4c-0.4-0.3-0.8-0.4-1.2-0.4c-0.1,0-0.3,0-0.4,0.1c-0.1,0-0.3,0.1-0.3,0.3c-0.1,0.1-0.1,0.1-0.3,0.3
			c0,0.1-0.1,0.3-0.1,0.4c0,0.4,0.4,0.9,1,1.4c0.3,0.3,0.5,0.4,0.8,0.6c0.1,0.1,0.4,0.4,0.4,0.5c0.3,0.4,0.3,0.8,0.3,1.3
			c0,0.8-0.3,1.3-0.6,1.8c-0.4,0.5-1,0.6-1.7,0.6c-0.5,0-0.9-0.1-1.4-0.4v-1.6c0.5,0.4,0.9,0.5,1.3,0.5c0.6,0,1-0.4,1-1
			c0-0.3,0-0.5-0.1-0.6c0-0.1-0.1-0.3-0.3-0.3s-0.3-0.3-0.5-0.4c-0.6-0.5-1-0.9-1.3-1.3c-0.3-0.4-0.4-0.8-0.4-1.3
			c0-0.6,0.3-1.3,0.6-1.7s0.9-0.6,1.7-0.6C97.3,118.6,97.8,118.7,98.2,119z"/>
		<path  class="st2" d="M104.7,118.8v8.4h-1.6v-1c-0.3,0.5-0.4,0.8-0.6,0.9c-0.3,0.1-0.5,0.3-0.9,0.3c-0.6,0-1.2-0.4-1.6-1
			c-0.3-0.8-0.5-1.8-0.5-3.4c0-1.4,0.1-2.5,0.5-3.2c0.3-0.6,0.8-1,1.6-1c0.6,0,1.2,0.4,1.6,1v-0.9L104.7,118.8L104.7,118.8z
			 M101.2,123c0,1,0.1,1.8,0.3,2.3c0.1,0.4,0.4,0.6,0.8,0.6c0.4,0,0.6-0.3,0.8-0.6c0.1-0.5,0.3-1.3,0.3-2.2c0-1-0.1-1.8-0.3-2.2
			c-0.1-0.5-0.4-0.6-0.8-0.6c-0.4,0-0.6,0.3-0.8,0.6C101.2,121.2,101.2,121.9,101.2,123z"/>
		<path  class="st2" d="M106.6,116.5h1.6v2.3h0.9v1.3h-0.9v7.1h-1.6v-7.1h-0.9v-1.3h0.9C106.6,118.8,106.6,116.5,106.6,116.5z"/>
		<path  class="st2" d="M110.1,118.8h1.6v1c0.3-0.4,0.5-0.8,0.8-0.9c0.3-0.1,0.6-0.3,1-0.3v1.7c-0.1,0-0.3,0-0.3,0c-0.5,0-0.9,0.1-1.2,0.4
			c-0.3,0.3-0.4,0.8-0.4,1.4v5h-1.6L110.1,118.8L110.1,118.8z"/>
		<path  class="st2" d="M115.3,115.2c0.3,0,0.5,0.1,0.8,0.3c0.3,0.3,0.3,0.5,0.3,0.8c0,0.3-0.1,0.5-0.3,0.8c-0.1,0.3-0.5,0.3-0.8,0.3
			c-0.3,0-0.5-0.1-0.8-0.3c-0.3-0.3-0.3-0.5-0.3-0.8c0-0.3,0.1-0.5,0.3-0.8C114.8,115.3,115,115.2,115.3,115.2z M114.5,118.8h1.6
			v8.4h-1.6V118.8z"/>
		<path  class="st2" d="M121.2,119v1.6c-0.3-0.3-0.5-0.4-0.8-0.4c-0.9,0-1.3,0.9-1.3,2.7c0,1.9,0.4,3,1.3,3c0.3,0,0.5-0.1,0.8-0.3v1.4
			c-0.4,0.3-0.8,0.3-1.3,0.3c-1.7,0-2.5-1.4-2.5-4.3c0-1.6,0.3-2.6,0.6-3.4s1-1,1.9-1C120.4,118.7,120.8,118.8,121.2,119z"/>
		<path  class="st2" d="M125.9,124.4h1.4c-0.1,1.9-0.9,3-2.5,3c-0.5,0-0.8-0.1-1.2-0.3c-0.3-0.1-0.6-0.4-0.8-0.8c-0.3-0.4-0.4-0.8-0.5-1.3
			c-0.1-0.5-0.1-1.2-0.1-1.9c0-1.4,0.3-2.6,0.6-3.2c0.4-0.6,1-1,1.9-1c1.7,0,2.5,1.4,2.5,4.4v0.1h-3.5c0,1.8,0.4,2.7,1,2.7
			C125.5,126.1,125.9,125.4,125.9,124.4z M125.8,122.2c0-0.9-0.1-1.4-0.3-1.7c-0.1-0.3-0.4-0.5-0.6-0.5c-0.3,0-0.5,0.1-0.6,0.5
			c-0.1,0.3-0.3,0.9-0.3,1.7H125.8z"/>
		<path  class="st2" d="M131.3,122.3h3v1.3h-3V122.3z"/>
		<path  class="st2" d="M138.7,114.7h2.2c1,0,1.8,0.3,2.3,0.8c0.5,0.5,0.8,1.4,0.8,2.6c0,1.7-0.5,2.7-1.4,3.2c-0.5,0.3-1.2,0.4-2.2,0.4v5.6h-1.7
			V114.7L138.7,114.7z M140.4,120.3c0.6,0,1.2-0.1,1.4-0.4c0.3-0.3,0.4-0.8,0.4-1.6c0-0.8-0.1-1.3-0.4-1.7s-0.6-0.5-1.2-0.5h-0.3
			L140.4,120.3L140.4,120.3z"/>
		<path  class="st2" d="M145.1,113.4h1.6v13.7h-1.6V113.4z"/>
		<path  class="st2" d="M153.2,118.8v8.4h-1.6v-1c-0.3,0.5-0.4,0.8-0.6,0.9c-0.3,0.1-0.5,0.3-0.9,0.3c-0.6,0-1.2-0.4-1.6-1
			c-0.3-0.8-0.5-1.8-0.5-3.4c0-1.4,0.1-2.5,0.5-3.2c0.3-0.6,0.8-1,1.6-1c0.6,0,1.2,0.4,1.6,1v-0.9L153.2,118.8L153.2,118.8z
			 M149.7,123c0,1,0.1,1.8,0.3,2.3c0.1,0.4,0.4,0.6,0.8,0.6s0.6-0.3,0.8-0.6c0.1-0.5,0.3-1.3,0.3-2.2c0-1-0.1-1.8-0.3-2.2
			c-0.1-0.5-0.4-0.6-0.8-0.6s-0.6,0.3-0.8,0.6C149.8,121.2,149.7,121.9,149.7,123z"/>
		<path  class="st2" d="M158.2,119v1.4c-0.4-0.3-0.8-0.4-1.2-0.4c-0.1,0-0.3,0-0.4,0.1c-0.1,0.1-0.3,0.1-0.3,0.3c-0.1,0.1-0.1,0.1-0.3,0.3
			c0,0.1-0.1,0.3-0.1,0.4c0,0.4,0.4,0.9,1,1.4c0.3,0.3,0.5,0.4,0.8,0.6c0.1,0.1,0.4,0.4,0.4,0.5c0.3,0.4,0.3,0.8,0.3,1.3
			c0,0.8-0.3,1.3-0.6,1.8c-0.4,0.5-1,0.6-1.7,0.6c-0.5,0-0.9-0.1-1.4-0.4v-1.6c0.5,0.4,0.9,0.5,1.3,0.5c0.6,0,1-0.4,1-1
			c0-0.3,0-0.5-0.1-0.6c0-0.1-0.1-0.3-0.3-0.3s-0.3-0.3-0.5-0.4c-0.6-0.5-1-0.9-1.3-1.3c-0.3-0.4-0.4-0.8-0.4-1.3
			c0-0.6,0.3-1.3,0.6-1.7s0.9-0.6,1.7-0.6C157.3,118.6,157.8,118.7,158.2,119z"/>
		<path  class="st2" d="M160.1,116.5h1.6v2.3h0.9v1.3h-0.9v7.1h-1.6v-7.1h-0.9v-1.3h0.9V116.5z"/>
		<path  class="st2" d="M164.3,115.2c0.3,0,0.5,0.1,0.8,0.3c0.3,0.3,0.3,0.5,0.3,0.8c0,0.3-0.1,0.5-0.3,0.8c-0.3,0.3-0.5,0.3-0.8,0.3
			c-0.3,0-0.5-0.1-0.8-0.3c-0.3-0.3-0.3-0.5-0.3-0.8c0-0.3,0.1-0.5,0.3-0.8C163.8,115.3,164,115.2,164.3,115.2z M163.6,118.8h1.6
			v8.4h-1.6V118.8z"/>
		<path  class="st2" d="M170.4,119v1.6c-0.3-0.3-0.5-0.4-0.8-0.4c-0.9,0-1.3,0.9-1.3,2.7c0,1.9,0.4,3,1.3,3c0.3,0,0.5-0.1,0.8-0.3v1.4
			c-0.4,0.3-0.8,0.3-1.3,0.3c-1.7,0-2.5-1.4-2.5-4.3c0-1.6,0.3-2.6,0.6-3.4s1-1,1.9-1C169.6,118.7,170,118.8,170.4,119z"/>
		<path  class="st2" d="M172.4,115.2c0.3,0,0.5,0.1,0.8,0.3c0.3,0.3,0.3,0.5,0.3,0.8c0,0.3-0.1,0.5-0.3,0.8c-0.1,0.3-0.5,0.3-0.8,0.3
			c-0.3,0-0.5-0.1-0.8-0.3c-0.3-0.3-0.3-0.5-0.3-0.8c0-0.3,0.1-0.5,0.3-0.8C171.9,115.3,172.2,115.2,172.4,115.2z M171.7,118.8h1.6
			v8.4h-1.6V118.8z"/>
		<path  class="st2" d="M178.3,124.4h1.4c-0.1,1.9-0.9,3-2.5,3c-0.5,0-0.8-0.1-1.2-0.3c-0.3-0.1-0.6-0.4-0.8-0.8c-0.3-0.4-0.4-0.8-0.5-1.3
			c-0.1-0.5-0.1-1.2-0.1-1.9c0-1.4,0.3-2.6,0.6-3.2c0.4-0.6,1-1,1.9-1c1.7,0,2.5,1.4,2.5,4.4v0.1h-3.5c0,1.8,0.4,2.7,1,2.7
			C177.9,126.1,178.3,125.4,178.3,124.4z M178.1,122.2c0-0.9-0.1-1.4-0.3-1.7c-0.1-0.3-0.4-0.5-0.6-0.5c-0.3,0-0.5,0.1-0.6,0.5
			c-0.1,0.3-0.3,0.9-0.3,1.7H178.1z"/>
		<path  class="st2" d="M181.1,118.8h1.6v0.9c0.4-0.8,1-1,1.7-1c0.6,0,1.2,0.3,1.4,0.8c0.1,0.3,0.3,0.9,0.3,1.8v5.9h-1.6v-5.6
			c0-0.5-0.1-0.9-0.3-1.2c-0.1-0.3-0.4-0.4-0.6-0.4c-0.1,0-0.4,0-0.5,0.1c-0.1,0-0.3,0.1-0.3,0.3c-0.1,0.1-0.1,0.3-0.1,0.5
			c0,0.3,0,0.5,0,0.8v5.4h-1.6L181.1,118.8L181.1,118.8z"/>
		<path  class="st2" d="M187.8,118.8h1.6v0.9c0.4-0.8,1-1,1.7-1c0.6,0,1.2,0.3,1.4,0.8c0.1,0.3,0.3,0.9,0.3,1.8v5.9h-1.6v-5.6
			c0-0.5-0.1-0.9-0.3-1.2c-0.1-0.3-0.4-0.4-0.6-0.4c-0.1,0-0.4,0-0.5,0.1s-0.3,0.1-0.3,0.3c-0.1,0.1-0.1,0.3-0.1,0.5
			c0,0.3,0,0.5,0,0.8v5.4h-1.6L187.8,118.8L187.8,118.8z"/>
		<path  class="st2" d="M197.8,124.4h1.4c-0.1,1.9-0.9,3-2.5,3c-0.5,0-0.8-0.1-1.2-0.3c-0.3-0.1-0.6-0.4-0.8-0.8c-0.3-0.4-0.4-0.8-0.5-1.3
			c-0.1-0.5-0.1-1.2-0.1-1.9c0-1.4,0.3-2.6,0.6-3.2c0.4-0.8,1-1,1.9-1c1.7,0,2.5,1.4,2.5,4.4v0.1h-3.5c0,1.8,0.4,2.7,1,2.7
			C197.4,126.1,197.8,125.4,197.8,124.4z M197.6,122.2c0-0.9-0.1-1.4-0.3-1.7c-0.1-0.3-0.4-0.5-0.6-0.5s-0.5,0.1-0.6,0.5
			c-0.1,0.3-0.3,0.9-0.3,1.7H197.6z"/>
	</g>
</g>
</svg>
