<?xml version="1.0" standalone="no"?>
<!DOCTYPE svg PUBLIC "-//W3C//DTD SVG 1.1//EN" "http://www.w3.org/Graphics/SVG/1.1/DTD/svg11.dtd" >
<svg xmlns="http://www.w3.org/2000/svg">
<metadata></metadata>
<defs>
<font id="futuracondensed_light" horiz-adv-x="851" >
<font-face units-per-em="2048" ascent="1638" descent="-410" />
<missing-glyph horiz-adv-x="1024" />
<glyph unicode="&#xfb01;" horiz-adv-x="743" d="M0 928v123h113v311q0 139 42 216t154 77q29 0 58.5 -5t58.5 -18v-145q-23 16 -45.5 30.5t-50.5 14.5q-55 0 -69.5 -46t-14.5 -122v-313h174v-123h-174v-928h-133v928h-113zM485 1362q0 41 30 69.5t71 28.5t69.5 -28.5t28.5 -69.5t-28.5 -70.5t-69.5 -29.5t-71 29.5 t-30 70.5zM518 0v1051h133v-1051h-133z" />
<glyph unicode="&#xfb02;" horiz-adv-x="743" d="M0 928v123h113v309q0 160 51 227.5t145 67.5q29 0 58.5 -5t58.5 -18v-145q-23 16 -45.5 30.5t-50.5 14.5q-59 0 -71.5 -45t-12.5 -125v-311h174v-123h-174v-928h-133v928h-113zM518 0v1638h133v-1638h-133z" />
<glyph horiz-adv-x="2048" />
<glyph horiz-adv-x="2048" />
<glyph unicode="&#xd;" horiz-adv-x="1024" />
<glyph unicode=" "  horiz-adv-x="1024" />
<glyph unicode="&#x09;" horiz-adv-x="1024" />
<glyph unicode="&#xa0;" horiz-adv-x="1024" />
<glyph unicode="!" horiz-adv-x="702" d="M248 88q0 43 30.5 74t73.5 31t74 -31t31 -74t-31 -73.5t-74 -30.5t-73.5 30.5t-30.5 73.5zM283 387v1157h137v-1157h-137z" />
<glyph unicode="&#x22;" horiz-adv-x="632" d="M115 1544h153l-16 -463h-121zM367 1544h153l-16 -463h-121z" />
<glyph unicode="#" d="M-2 510l31 104h198l70 269h-203l31 104h197l133 537h98l-135 -537h143l133 537h97l-134 -537h197l-31 -104h-188l-70 -269h193l-31 -104h-186l-127 -510h-103l131 510h-143l-131 -510h-96l131 510h-205zM324 614h143l70 269h-142z" />
<glyph unicode="$" d="M61 1159q0 145 74 248.5t227 132.5v180h101v-176q70 -4 135.5 -28.5t122.5 -63.5l-74 -109q-47 29 -100 49.5t-111 20.5q-111 0 -173 -68.5t-62 -173.5q0 -72 25.5 -123t66.5 -89.5t94 -69.5t109 -62q55 -31 107 -66.5t93 -83.5t66.5 -114.5t25.5 -159.5 q0 -74 -22.5 -140t-64.5 -119.5t-102 -90.5t-136 -49v-197h-101v193q-86 10 -152.5 42t-125.5 91l88 100q47 -39 105.5 -70.5t123.5 -31.5q59 0 104.5 22.5t78 59.5t49 86t16.5 102q0 66 -21.5 114t-57 85t-83 66.5t-100.5 58.5q-70 39 -129 81t-103 92t-69 113.5t-25 147.5 z" />
<glyph unicode="%" horiz-adv-x="1067" d="M51 1169q0 55 3 124t21.5 129.5t56.5 101.5t108 41t107.5 -41t56 -101.5t21.5 -129t3 -124.5q0 -55 -3 -123.5t-21.5 -129t-56.5 -101.5t-107 -41q-70 0 -108 41t-56.5 101.5t-21.5 129t-3 123.5zM137 1169q0 -47 2 -102t12.5 -103.5t31 -80t57.5 -31.5t57 31.5t30.5 80 t12.5 103.5t2 102t-2 102.5t-12.5 103.5t-30.5 80t-57 32t-57.5 -32t-31 -80t-12.5 -103t-2 -103zM166 0l672 1544h65l-667 -1544h-70zM639 375q0 55 3 123.5t21.5 129t56 101.5t107.5 41t108 -41t56.5 -101.5t21.5 -129t3 -123.5t-3 -124t-21.5 -129.5t-56.5 -101 t-108 -40.5t-107.5 40.5t-56 101t-21.5 129t-3 124.5zM725 375q0 -47 2 -102.5t12.5 -103.5t31 -80t56.5 -32q37 0 57.5 32t31 80t12.5 103.5t2 102.5t-2 102t-12.5 103.5t-31 80t-57.5 31.5t-57 -31.5t-30.5 -80t-12.5 -103.5t-2 -102z" />
<glyph unicode="&#x26;" horiz-adv-x="1083" d="M147 406q0 135 64.5 242.5t163.5 193.5l-6 12q-23 43 -47.5 89t-44 95t-32 99.5t-12.5 99.5q0 66 24 121t64.5 97t95 65.5t115.5 23.5q63 0 115.5 -21.5t90.5 -61.5t58.5 -94t20.5 -120t-23.5 -124t-61.5 -110t-84 -97.5t-91 -86.5l-12 -10l266 -512l96 119l11 14l96 -94 l-137 -158l96 -188h-150l-45 84q-53 -49 -119.5 -76.5t-138.5 -27.5q-88 0 -156.5 35.5t-116.5 95t-74 136.5t-26 159zM285 403q0 -51 15 -102t45 -92t72 -68.5t97 -31.5q113 4 207 92l-283 518q-59 -63 -106 -144t-47 -172zM371 1235q0 -78 32.5 -151.5t67.5 -139.5l8 -14 q37 29 73 64.5t64.5 77.5t46 88t17.5 95q0 63 -40 111.5t-103 48.5q-78 0 -122 -51t-44 -129z" />
<glyph unicode="'" horiz-adv-x="458" d="M152 1544h153l-16 -463h-121z" />
<glyph unicode="(" horiz-adv-x="614" d="M199 692q-6 227 60.5 448.5t189.5 424.5l102 -43q-117 -190 -180.5 -401.5t-57.5 -428.5q-6 -217 57.5 -428t180.5 -401l-102 -43q-125 203 -190.5 424t-59.5 448z" />
<glyph unicode=")" horiz-adv-x="614" d="M63 -137q117 190 180.5 401t57.5 428q6 217 -57.5 428t-180.5 402l103 43q123 -203 189.5 -424t60.5 -449q6 -227 -59.5 -448t-190.5 -424z" />
<glyph unicode="*" horiz-adv-x="849" d="M63 1253l27 78l293 -96v309h82v-309l295 96l26 -78l-294 -96l182 -250l-68 -49l-182 250l-180 -250l-68 49l182 250z" />
<glyph unicode="+" horiz-adv-x="909" d="M43 473v105h360v448h105v-448h360v-105h-360v-450h-105v450h-360z" />
<glyph unicode="," horiz-adv-x="425" d="M41 -283l158 476l145 -66l-205 -457z" />
<glyph unicode="-" horiz-adv-x="319" d="M0 573v162h319v-162h-319z" />
<glyph unicode="." horiz-adv-x="425" d="M109 88q0 43 30.5 74t73.5 31t73.5 -31t30.5 -74t-30.5 -73.5t-73.5 -30.5t-73.5 30.5t-30.5 73.5z" />
<glyph unicode="/" horiz-adv-x="950" d="M-37 -442l903 2080h123l-901 -2080h-125z" />
<glyph unicode="0" d="M80 772q0 115 7 252t40 258t103.5 202t195.5 81q84 0 142.5 -38t96 -100.5t60.5 -144.5t33 -170t12 -176t2 -164t-2 -164t-12 -176t-33 -170t-60.5 -144.5t-96 -100t-142.5 -37.5t-142.5 37.5t-96 100t-60.5 144.5t-33 170t-12 176t-2 164zM219 772q0 -104 4 -221 t24.5 -214t62.5 -161.5t116 -64.5t116 64.5t62.5 161.5t24.5 214t4 221t-4 221t-24.5 214.5t-62.5 162t-116 64.5t-116 -64.5t-62.5 -162t-24.5 -214t-4 -221.5z" />
<glyph unicode="1" d="M176 1409l31 135h311v-1544h-139v1409h-203z" />
<glyph unicode="2" d="M86 0l307 631q33 66 69 138.5t66.5 148t50 152.5t19.5 151q0 41 -8 78.5t-28.5 67.5t-52.5 48.5t-81 18.5q-57 0 -92 -27t-54.5 -68t-25.5 -90t-6 -94v-33h-139q0 80 11 159t45 141.5t94.5 102.5t158.5 40q82 0 141.5 -27t98 -75t58 -112.5t19.5 -140.5 q0 -82 -19.5 -163.5t-51 -161.5t-69.5 -157t-75 -148l-223 -453h420v-127h-633z" />
<glyph unicode="3" d="M98 356l2 68h138v-45q0 -47 7 -95t27.5 -86t56.5 -62.5t93 -24.5q63 0 99 34.5t53.5 86t21.5 109.5t4 103q0 78 -13.5 140.5t-46 106.5t-88 67.5t-139.5 21.5h-41v131h25q82 0 136 12.5t87 45t46.5 89t13.5 142.5q0 45 -7.5 87t-26 75t-50 52.5t-80.5 19.5 q-55 0 -87 -22.5t-48.5 -58.5t-20.5 -81t-4 -88h-139q-2 70 12 137.5t50 121.5t92.5 88t136.5 34q84 0 142 -27t96 -74t55.5 -111.5t17.5 -140.5q0 -53 -7 -107t-26.5 -101.5t-53.5 -86t-89 -63.5q66 -25 103.5 -73t59 -108.5t27.5 -127t6 -125.5q0 -80 -12 -158t-47 -141.5 t-96.5 -102t-157.5 -38.5q-90 0 -152.5 27.5t-101.5 77.5t-56.5 119.5t-17.5 151.5z" />
<glyph unicode="4" d="M86 416v145l414 983h135v-1005h115v-123h-115v-416h-139v416h-410zM221 539h275v469l20 309h-6z" />
<glyph unicode="5" d="M113 68l39 141q49 -37 103 -63.5t120 -26.5t108.5 34.5t68.5 87t36 113t10 111.5q0 61 -12.5 122.5t-41 109.5t-78.5 79t-124 31q-55 0 -106.5 -16.5t-98.5 -45.5l96 799h459v-127h-344l-57 -479l92 8q98 0 165.5 -44t109.5 -114.5t60.5 -155.5t18.5 -169t-18.5 -170 t-61.5 -155.5t-111.5 -113.5t-166.5 -44q-72 0 -141.5 22.5t-124.5 65.5z" />
<glyph unicode="6" d="M106 428q0 156 37 297t97 283l223 536h149l-303 -719l4 -4q35 27 71 41.5t83 14.5q84 0 138 -47.5t85 -117t42 -148.5t11 -144q0 -78 -12 -157t-46 -141.5t-93.5 -102t-153.5 -39.5q-98 0 -162.5 38.5t-101.5 102t-52.5 144.5t-15.5 163zM246 434q0 -43 6 -99 t26.5 -106.5t58.5 -84t99 -33.5t95 35.5t50.5 88t19.5 108.5t3 97q0 45 -6 99.5t-24.5 101.5t-54.5 79t-95 32q-57 0 -92 -33t-54.5 -82t-25.5 -104.5t-6 -98.5z" />
<glyph unicode="7" d="M117 1417v127h635l-476 -1544h-151l436 1417h-444z" />
<glyph unicode="8" d="M100 410q0 59 6.5 126.5t27 130t59 112.5t102.5 75q-92 53 -126 141t-34 193q0 72 17.5 140.5t54.5 120.5t95 84t140 32q80 0 135.5 -32t91.5 -83t52 -116.5t16 -135.5q0 -111 -32 -198t-130 -146q57 -29 91 -76t52.5 -103.5t25 -117.5t6.5 -119q0 -82 -15.5 -163.5 t-52.5 -147.5t-100.5 -106.5t-161.5 -40.5q-90 0 -151.5 38.5t-98.5 100t-53.5 138.5t-16.5 153zM240 440q0 -45 6 -102t25.5 -108.5t55.5 -85t97 -33.5q63 0 100 35.5t56.5 88t24.5 112t5 106.5q0 45 -6 103t-24.5 110.5t-54.5 88.5t-97 36q-63 0 -100 -38t-56.5 -91.5 t-25.5 -114t-6 -107.5zM274 1196q0 -41 5.5 -89t22.5 -89t49 -68.5t85 -27.5q51 0 83 24.5t49.5 63.5t23.5 84t6 84q0 41 -6 86t-24.5 82.5t-50.5 62.5t-85 25q-49 0 -79.5 -22.5t-48 -57.5t-24 -77t-6.5 -81z" />
<glyph unicode="9" d="M106 1126q0 119 24 202t65 135.5t96 77t121 24.5q98 0 162.5 -39t101.5 -102.5t52 -144.5t15 -163q0 -154 -37.5 -296t-95.5 -283l-223 -537h-149l301 719l-4 4q-35 -27 -70 -40t-82 -13q-63 0 -109.5 26.5t-77 67.5t-48 92t-26.5 102.5t-12.5 96.5t-3.5 71zM246 1106 q0 -45 6 -99.5t24.5 -101.5t54.5 -78.5t95 -31.5q57 0 92 32.5t54.5 81.5t25.5 103.5t6 97.5t-7 99.5t-26.5 106.5t-57.5 84t-99 34t-95 -35t-50.5 -86t-19.5 -107.5t-3 -99.5z" />
<glyph unicode=":" horiz-adv-x="425" d="M109 88q0 43 30.5 74t73.5 31t73.5 -31t30.5 -74t-30.5 -73.5t-73.5 -30.5t-73.5 30.5t-30.5 73.5zM109 963q0 43 30.5 73.5t73.5 30.5t73.5 -30.5t30.5 -73.5t-30.5 -74t-73.5 -31t-73.5 31t-30.5 74z" />
<glyph unicode=";" horiz-adv-x="425" d="M18 -283l158 476l146 -66l-205 -457zM111 963q0 43 30.5 73.5t73.5 30.5t73.5 -30.5t30.5 -73.5t-30.5 -74t-73.5 -31t-73.5 31t-30.5 74z" />
<glyph unicode="&#x3c;" horiz-adv-x="909" d="M43 479v90l825 480v-115l-714 -399v-11l714 -411v-115z" />
<glyph unicode="=" horiz-adv-x="909" d="M43 291v104h825v-104h-825zM43 655v105h825v-105h-825z" />
<glyph unicode="&#x3e;" horiz-adv-x="909" d="M43 -2v115l715 399v10l-715 412v115l825 -482v-90z" />
<glyph unicode="?" horiz-adv-x="892" d="M186 1153v55q0 74 8.5 139.5t37 113.5t82 76t141.5 28q80 0 130 -29t77.5 -77t37 -109.5t9.5 -128.5q0 -74 -4.5 -155t-30 -148.5t-79.5 -112.5t-155 -45v-373h-133v498h45q72 0 115 8t65.5 40t30.5 94.5t8 170.5q0 45 -2 89t-14 78t-36.5 54.5t-69.5 20.5t-72 -23.5 t-39 -58.5t-15.5 -75t-3.5 -75v-55h-133zM274 88q0 43 31 74t74 31t73.5 -31t30.5 -74t-30.5 -73.5t-73.5 -30.5t-74 30.5t-31 73.5z" />
<glyph unicode="@" horiz-adv-x="1638" d="M41 780q0 164 65.5 306.5t177 249t262 168t318.5 61.5q145 0 278.5 -48.5t235 -136.5t161.5 -209.5t60 -267.5q0 -92 -36.5 -196.5t-103 -194.5t-160 -149.5t-203.5 -59.5q-57 0 -108.5 25.5t-55.5 83.5q-66 -61 -138.5 -85t-142.5 -24t-122 24.5t-87.5 67.5t-54 101.5 t-18.5 124.5q0 104 35.5 215.5t103 202.5t164 149.5t215.5 58.5q78 0 144.5 -34.5t98.5 -106.5l31 100h115l-217 -633q-8 -27 -18.5 -57.5t-9.5 -57t19.5 -44t67.5 -17.5q68 0 135.5 52.5t119.5 131t85 171t33 172.5q0 123 -53.5 222t-142.5 167.5t-202.5 105.5t-234.5 37 q-147 0 -276 -56.5t-225.5 -151.5t-151.5 -221t-55 -263q-6 -137 48 -260t152.5 -215t230.5 -146.5t281 -54.5q84 0 168 20.5t161 57.5t144.5 89t118.5 116h111q-51 -92 -128 -164t-169 -123t-195.5 -77.5t-210.5 -26.5q-184 0 -338.5 62t-263 171t-167 255t-52.5 312z M481 635q0 -113 60.5 -174.5t140.5 -61.5q53 0 96 16.5t77 41t57.5 54.5t35.5 58l111 322q16 47 11 93t-28.5 83t-63.5 59.5t-93 22.5q-86 0 -160 -53.5t-128 -131t-85 -166.5t-31 -163z" />
<glyph unicode="A" horiz-adv-x="747" d="M0 0l303 1544h135l310 -1544h-154l-57 317h-328l-55 -317h-154zM233 442h281l-102 592q-14 78 -21.5 158t-17.5 158h-8q-10 -78 -19.5 -158t-21.5 -158z" />
<glyph unicode="B" horiz-adv-x="815" d="M123 0v1544h201q76 0 143.5 -9t117.5 -48t79.5 -115t29.5 -211q0 -57 -8 -112.5t-29.5 -102.5t-58.5 -86t-96 -65v8q72 -18 117 -55t69.5 -87.5t33.5 -111t9 -125.5q0 -121 -22.5 -202t-71.5 -130t-130 -70.5t-198 -21.5h-186zM266 123h39q80 0 134.5 14.5t86 48t45 90 t13.5 138.5q0 98 -17.5 160.5t-51.5 99.5t-86 51t-120 14h-43v-616zM266 862h39q43 0 87 2t78 26.5t55.5 84t21.5 176.5q0 92 -12.5 145.5t-40 81t-73.5 35.5t-116 8h-39v-559z" />
<glyph unicode="C" horiz-adv-x="751" d="M78 717q0 63 3 150t15.5 181.5t39 186.5t73.5 166t120.5 119t178.5 45q43 0 95 -11.5t87 -37.5v-158q-43 29 -85 48t-95 19q-94 0 -150.5 -61t-86 -155.5t-39 -209t-9.5 -223.5q0 -45 1 -111.5t9.5 -139t24.5 -145.5t47 -131.5t78 -94t115 -35.5q53 0 101 20.5t89 48.5 v-145q-41 -29 -93 -46t-103 -17q-90 0 -157 35.5t-113 96t-74.5 137.5t-45 158.5t-21.5 162.5t-5 147z" />
<glyph unicode="D" horiz-adv-x="843" d="M123 0v1544h156q74 0 138 -6t118.5 -30.5t97.5 -74t72.5 -135.5t45 -214t15.5 -312q0 -227 -21.5 -375.5t-75 -236.5t-146.5 -124t-234 -36h-166zM266 131h41q104 0 166 38t93.5 115.5t41.5 198.5t10 289q0 199 -13 324t-49 195.5t-99.5 96t-165.5 25.5h-25v-1282z" />
<glyph unicode="E" horiz-adv-x="692" d="M123 0v1544h485v-131h-342v-545h332v-131h-332v-606h342v-131h-485z" />
<glyph unicode="F" horiz-adv-x="702" d="M123 0v1544h493v-131h-350v-545h332v-131h-332v-737h-143z" />
<glyph unicode="G" horiz-adv-x="843" d="M78 809q0 137 12 272.5t50 243t112 174t197 66.5q70 0 122 -21.5t89.5 -60.5t63.5 -92.5t40 -116.5l-141 -55q-6 35 -17.5 71.5t-31 66t-48 49t-71.5 19.5q-80 0 -126 -56t-68.5 -144t-29 -194.5t-6.5 -209.5q0 -215 13.5 -351t41 -214t69.5 -107.5t97 -29.5 q61 0 96.5 23.5t52.5 76.5t22.5 139t5.5 209v117h-209v131h352v-285q0 -92 -7 -189t-39 -177t-98.5 -132t-187.5 -52q-123 0 -193.5 61t-106.5 171t-46 262.5t-10 334.5z" />
<glyph unicode="H" horiz-adv-x="886" d="M123 0v1544h143v-616h355v616h143v-1544h-143v797h-355v-797h-143z" />
<glyph unicode="I" horiz-adv-x="389" d="M123 0v1544h143v-1544h-143z" />
<glyph unicode="J" horiz-adv-x="536" d="M25 18v150q31 -29 65.5 -48.5t75.5 -19.5q35 0 55.5 13.5t31.5 36t14 52t3 60.5v1282h144v-1255q0 -72 -5.5 -129.5t-27 -97t-66.5 -61t-122 -21.5q-88 0 -168 38z" />
<glyph unicode="K" horiz-adv-x="755" d="M123 0v1544h143v-700h4l308 700h159l-346 -735l348 -809h-161l-308 778h-4v-778h-143z" />
<glyph unicode="L" horiz-adv-x="602" d="M123 0v1544h143v-1413h336v-131h-479z" />
<glyph unicode="M" horiz-adv-x="1150" d="M47 0l217 1544h123l174 -1151q6 -39 10 -76.5t9 -76.5h6q8 66 14 133t16 133l177 1038h122l189 -1544h-141l-109 1139q-4 37 -5 72.5t-3 72.5h-8q-10 -78 -15.5 -152.5t-19.5 -152.5l-168 -979h-117l-170 1139q-6 37 -10 72.5t-8 72.5h-6q-4 -76 -4.5 -152.5 t-10.5 -150.5l-123 -981h-139z" />
<glyph unicode="N" horiz-adv-x="890" d="M123 0v1544h125l354 -1073q14 -41 25.5 -80t21.5 -80h6q-4 51 -9 102.5t-5 102.5v1028h125v-1544h-125l-348 1038q-16 47 -27.5 98.5t-25.5 100.5h-9q4 -76 10.5 -149.5t6.5 -149.5v-938h-125z" />
<glyph unicode="O" horiz-adv-x="913" d="M78 772q0 147 13 288.5t53 254t115 181.5t198 69q88 0 149.5 -35t103.5 -95.5t66.5 -139t37.5 -167t17.5 -179.5t4.5 -177q0 -72 -3.5 -159t-15.5 -175t-36.5 -171t-66.5 -146.5t-104.5 -102t-152.5 -38.5q-127 0 -202 72.5t-115 188t-51 256t-11 275.5zM225 772 q0 -102 5.5 -217t28 -212t69.5 -160.5t129 -63.5q84 0 130 63.5t68.5 160.5t27.5 212t5 217t-5 217t-27.5 212t-68.5 160.5t-130 63.5h-10q-75 0 -119 -59q-47 -63 -69.5 -161.5t-28 -214.5t-5.5 -218z" />
<glyph unicode="P" horiz-adv-x="733" d="M123 0v1544h160q84 0 158.5 -9t133 -49t92 -120t33.5 -223q0 -113 -20.5 -189.5t-67.5 -124t-122.5 -69t-186.5 -21.5h-37v-739h-143zM266 870h56q76 0 119.5 14.5t68.5 47.5t33 85t10 126q0 80 -12.5 132t-42 83t-78.5 43t-125 12h-29v-543z" />
<glyph unicode="Q" horiz-adv-x="913" d="M78 772q0 393 85 593t290 200q92 0 155.5 -40t106.5 -105.5t66.5 -148.5t35.5 -170t15.5 -170.5t3.5 -146.5q0 -57 -2.5 -139t-12.5 -172t-30.5 -179t-59.5 -161l111 -174l-111 -74l-94 146q-35 -29 -85 -40t-99 -11q-80 0 -148.5 34.5t-119 123.5t-79 243t-28.5 391z M225 772q0 -199 15.5 -326t45 -199.5t72.5 -100t99 -27.5q29 0 52 6t46 25l-131 212l113 74l106 -166q29 117 37 242t8 248q0 111 -5 228.5t-27.5 214.5t-68.5 159.5t-130 62.5q-59 0 -102.5 -29.5t-72 -103t-43 -199.5t-14.5 -321z" />
<glyph unicode="R" horiz-adv-x="780" d="M123 0v1544h153q80 0 157 -8t135.5 -47t94 -118t35.5 -220q0 -74 -10 -143.5t-42 -125t-89 -90t-149 -38.5l342 -754h-152l-328 756h-4v-756h-143zM266 872h51q76 0 122 14.5t71 46.5t33 84t8 128q0 92 -14.5 145t-45 81t-80 35t-116.5 7h-29v-541z" />
<glyph unicode="S" horiz-adv-x="796" d="M61 1155q0 78 24 151.5t69 131t110.5 92.5t151.5 35q70 0 129 -21.5t114 -60.5v-183q-47 53 -100 89t-127 36q-53 0 -95 -20.5t-70.5 -55t-43 -79.5t-14.5 -94q0 -68 22.5 -119t59.5 -92t85 -75t97 -69t96 -71.5t84 -84t59.5 -107.5t22.5 -140q0 -84 -26.5 -163 t-76.5 -140.5t-122 -98t-162 -36.5q-66 0 -128 18t-116 59v187q49 -53 113 -89t137 -36q57 0 101.5 22.5t74 61.5t44 88t14.5 100q0 68 -22.5 118t-59.5 91t-84 75t-96 68q-49 35 -96.5 72t-85.5 85t-60.5 110.5t-22.5 144.5z" />
<glyph unicode="T" horiz-adv-x="636" d="M16 1413v131h607v-131h-232v-1413h-143v1413h-232z" />
<glyph unicode="U" horiz-adv-x="880" d="M117 489v1055h143v-1046q0 -96 5 -167t23.5 -118t54.5 -70.5t97 -23.5t97 23.5t54.5 70.5t24 117.5t5.5 167.5v1046h143v-1055q0 -106 -8 -199t-41 -162t-97.5 -108.5t-177.5 -39.5q-117 0 -181 40.5t-96 110.5t-39 162t-7 196z" />
<glyph unicode="V" horiz-adv-x="796" d="M23 1544h147l203 -1124q4 -14 7 -39t6 -54.5l6 -59t5 -56.5h9q4 53 10 116.5t10 92.5l201 1124h145l-311 -1544h-127z" />
<glyph unicode="W" horiz-adv-x="1239" d="M37 1544h147l138 -1032q8 -57 13 -114.5t11 -114.5h8q8 57 13.5 114.5t15.5 114.5l178 1032h123l147 -1032q8 -57 15.5 -114.5t15.5 -114.5h8q6 57 11.5 114.5t15.5 114.5l160 1032h145l-272 -1544h-131l-156 1040q-6 41 -10 115t-8 137h-9q-6 -63 -11 -138t-11 -114 l-180 -1040h-131z" />
<glyph unicode="X" horiz-adv-x="823" d="M47 0l293 784l-293 760h154l207 -653h8q12 74 33.5 145.5t46.5 141.5l129 366h153l-289 -760l289 -784h-153l-209 657h-8q-10 -63 -30 -124.5t-40 -122.5l-137 -410h-154z" />
<glyph unicode="Y" horiz-adv-x="802" d="M39 1544h154l153 -520q16 -51 29.5 -102.5t30.5 -104.5h8q10 53 19 107.5t26 107.5l151 512h154l-283 -868v-676h-143v676z" />
<glyph unicode="Z" horiz-adv-x="686" d="M39 0l428 1413h-387v131h567l-432 -1413h389v-131h-565z" />
<glyph unicode="[" horiz-adv-x="614" d="M262 -238v1782h334v-86h-219v-1610h219v-86h-334z" />
<glyph unicode="\" horiz-adv-x="454" d="M-100 1638h118l539 -1638h-119z" />
<glyph unicode="]" horiz-adv-x="614" d="M18 -152h220v1610h-220v86h334v-1782h-334v86z" />
<glyph unicode="^" horiz-adv-x="909" d="M135 705l277 839h84l276 -839h-96l-223 686h-4l-218 -686h-96z" />
<glyph unicode="_" horiz-adv-x="1024" d="M0 -229h1024v-154h-1024v154z" />
<glyph unicode="`" horiz-adv-x="573" d="M113 1376l127 99l223 -277l-84 -61z" />
<glyph unicode="a" horiz-adv-x="714" d="M61 537q0 88 5.5 182t31 171t78.5 127t148 50q55 0 93 -22.5t68 -65.5h4v72h134v-1051h-134v82h-4q-29 -45 -72.5 -71.5t-101.5 -26.5q-63 0 -110 21.5t-78 83t-46.5 169t-15.5 279.5zM199 547q0 -162 12 -254t32.5 -136t48 -54.5t56.5 -10.5q49 0 79 23.5t46 78 t22.5 140.5t6.5 209q0 86 -4 160.5t-19.5 132t-45.5 90t-79 32.5q-55 0 -85.5 -38.5t-46 -99t-19.5 -133.5t-4 -140z" />
<glyph unicode="b" horiz-adv-x="714" d="M92 0v1638h133v-659h4q29 45 68 66.5t96 21.5q92 0 143.5 -49t78 -127t32.5 -171t6 -183q0 -100 -7 -198.5t-31.5 -177.5t-75 -128t-136.5 -49q-57 0 -101 26.5t-73 71.5h-4v-82h-133zM213 428q0 -78 13.5 -152.5t45.5 -129t95 -54.5q41 0 69.5 20.5t46 72t25.5 139.5 t8 223q0 90 -5 165.5t-22.5 130t-48 85t-80.5 30.5q-61 0 -91.5 -50t-43 -116.5t-12.5 -134v-102.5v-127z" />
<glyph unicode="c" horiz-adv-x="569" d="M61 504q0 49 4.5 110.5t16.5 124t33.5 122t55.5 105.5t83 73.5t115 27.5q37 0 74.5 -10t70.5 -31v-154q-25 27 -56.5 48.5t-70.5 21.5q-63 0 -101 -48t-57.5 -115.5t-24.5 -139.5t-5 -117q0 -39 6 -108.5t24.5 -137t54 -117.5t95.5 -50q47 0 77.5 29.5t53.5 64.5h4v-166 q-29 -25 -71 -39t-81 -14q-90 0 -148 56t-92 136t-47.5 170t-13.5 158z" />
<glyph unicode="d" horiz-adv-x="714" d="M61 537q0 109 8.5 205t36 167.5t79 114.5t139.5 43q55 0 93 -22.5t68 -65.5h4v659h134v-1638h-134v82h-4q-29 -45 -72.5 -71.5t-101.5 -26.5q-82 0 -131 46t-75.5 122.5t-35 177t-8.5 207.5zM198 479v-22q0 -34 2 -72q3 -51 10 -102.5t23.5 -94.5t44 -69.5t70.5 -26.5 q53 0 84 32t46.5 90t19.5 141.5t4 187.5q0 90 -6.5 165.5t-21.5 131t-44 87t-76 31.5q-55 0 -86.5 -43t-47 -106.5t-18.5 -135t-3 -126.5q0 -25 -1 -68z" />
<glyph unicode="e" horiz-adv-x="702" d="M61 522q0 72 10.5 165t42 178t90 143.5t152.5 58.5q92 0 148.5 -53t86.5 -131t40 -165t10 -157v-63h-442v-31q0 -39 5 -100.5t22.5 -119t49 -98t86.5 -40.5q43 0 70 26.5t41 65.5t18.5 82t4.5 73h137q0 -59 -13.5 -124.5t-43 -121t-78.5 -91t-123 -35.5q-104 0 -166 54 t-94.5 136t-43 175t-10.5 173zM201 610h305l-2 19q-2 37 -5 91t-17.5 103t-43 84t-82.5 35q-47 0 -77.5 -39t-48 -92t-23.5 -109.5t-6 -91.5z" />
<glyph unicode="f" horiz-adv-x="425" d="M0 928v123h113v309q0 133 42 214t154 81q29 0 58.5 -5t58.5 -18v-145q-23 16 -45.5 30.5t-50.5 14.5q-55 0 -69.5 -45t-14.5 -123v-313h174v-123h-174v-928h-133v928h-113z" />
<glyph unicode="g" horiz-adv-x="724" d="M61 549q0 66 7.5 155t34 169.5t78.5 137t145 56.5q53 0 97 -23.5t73 -64.5h4v72h133v-1090q0 -74 -5 -142.5t-32 -120.5t-82 -84t-156 -32q-139 0 -204.5 78t-65.5 213v39h131v-18q0 -37 6 -71t21.5 -59.5t43 -41t70.5 -15.5q55 0 84 22.5t41.5 57.5t12.5 78v86v123 q-66 -74 -170 -74q-98 0 -152.5 59.5t-79 145.5t-30 180t-5.5 164zM199 508q0 -43 2 -110.5t17 -132t49 -110.5t98 -46q53 0 82.5 35.5t44 96t17.5 139.5t3 165q0 72 -4 145.5t-20.5 133t-47 97t-86.5 37.5q-37 0 -65.5 -16t-48 -64.5t-30.5 -136.5t-11 -233z" />
<glyph unicode="h" horiz-adv-x="727" d="M92 0v1638h133v-671q41 47 93.5 73.5t113.5 26.5q72 0 113 -28.5t61.5 -73.5t24.5 -101.5t4 -111.5v-752h-133v729q0 123 -21.5 176t-97.5 53q-57 0 -89 -27.5t-47.5 -68.5t-18.5 -90t-3 -90v-682h-133z" />
<glyph unicode="i" horiz-adv-x="317" d="M59 1362q0 41 30 69.5t71 28.5t69.5 -28.5t28.5 -69.5t-28.5 -70.5t-69.5 -29.5t-71 29.5t-30 70.5zM92 0v1051h133v-1051h-133z" />
<glyph unicode="j" horiz-adv-x="317" d="M59 1362q0 41 30 69.5t71 28.5t69.5 -28.5t28.5 -69.5t-28.5 -70.5t-69.5 -29.5t-71 29.5t-30 70.5zM92 -387v1438h133v-1438h-133z" />
<glyph unicode="k" horiz-adv-x="718" d="M92 0v1638h133v-1013h4l256 426h152l-313 -471l395 -580h-166l-324 504h-4v-504h-133z" />
<glyph unicode="l" horiz-adv-x="317" d="M92 0v1638h133v-1638h-133z" />
<glyph unicode="m" horiz-adv-x="1144" d="M92 0v1051h133v-88h4q35 47 87.5 75.5t111.5 28.5q66 0 117 -33t78 -92q41 59 93 92t124 33q74 0 116.5 -26.5t64 -70.5t27 -99.5t5.5 -114.5v-756h-133v752q0 37 -3.5 74.5t-15.5 66.5t-35.5 47t-64.5 18q-59 0 -92 -29.5t-48.5 -75.5t-18.5 -101.5t-3 -104.5v-647h-133 v750q0 37 -3 73.5t-14.5 67.5t-34 49t-63.5 18q-61 0 -94 -33.5t-49.5 -83.5t-19.5 -108.5t-3 -107.5v-625h-133z" />
<glyph unicode="n" horiz-adv-x="727" d="M92 0v1051h133v-84q41 47 93.5 73.5t113.5 26.5q70 0 111 -28.5t61.5 -74.5t25.5 -102.5t5 -109.5v-752h-133v737q0 47 -3 87t-15.5 70t-36 47t-64.5 17q-57 0 -89 -27.5t-47.5 -68.5t-18.5 -90t-3 -90v-682h-133z" />
<glyph unicode="o" horiz-adv-x="727" d="M61 526q0 74 8.5 168t39 177t90 139.5t163.5 56.5t164 -56.5t90.5 -139.5t39 -177t8.5 -168t-8.5 -168t-39 -177t-90 -140t-164.5 -57q-104 0 -163.5 57t-90 140t-39 177.5t-8.5 167.5zM199 526q0 -39 3 -108.5t18.5 -138t49 -119.5t92.5 -51t93 51t49.5 119.5t18.5 138 t3 108.5q0 25 -1 66t-6 87t-15 93t-27.5 85t-46.5 61.5t-68 23.5t-67.5 -23.5t-46 -61.5t-27.5 -85t-15 -93t-6 -87t-1 -66z" />
<glyph unicode="p" horiz-adv-x="714" d="M92 -401v1452h133v-72h4q31 43 69 65.5t95 22.5q92 0 143.5 -53t78 -132t32.5 -172.5t6 -172.5q0 -88 -5 -186.5t-28.5 -179.5t-73.5 -134t-143 -53q-57 0 -101 26.5t-73 71.5h-4v-483h-133zM213 555q0 -76 3 -158t18.5 -149.5t46.5 -111.5t86 -44q47 0 75.5 23.5t45 77 t22.5 138.5t6 206q0 61 -3 133.5t-17.5 137t-46 107.5t-89.5 43q-53 0 -82.5 -36.5t-44 -95t-17.5 -130t-3 -141.5z" />
<glyph unicode="q" horiz-adv-x="714" d="M61 537q0 88 7.5 182t33 171t77.5 127t145 50q55 0 93 -22.5t68 -65.5h4v72h134v-1452h-134v483h-4q-29 -45 -72.5 -71.5t-101.5 -26.5q-90 0 -140 53t-74.5 135t-30 179.5t-5.5 185.5zM199 547q0 -90 4 -173t18.5 -145.5t45 -99.5t81.5 -37q53 0 83 33t46.5 92t20.5 142 t4 184q0 90 -6.5 165.5t-22.5 131t-45 87t-74 31.5q-47 0 -76.5 -28.5t-47 -81.5t-24.5 -129t-7 -172z" />
<glyph unicode="r" horiz-adv-x="419" d="M92 0v1051h133v-140h4q10 29 26.5 56.5t38 50t49.5 36t60 13.5v-156l-26 2q-51 0 -82 -23.5t-46.5 -64.5t-19.5 -95t-4 -118v-612h-133z" />
<glyph unicode="s" horiz-adv-x="569" d="M47 55v156q39 -41 83 -71.5t103 -30.5q70 0 112 47t42 112q0 39 -14.5 73t-38 63.5t-54 57t-63.5 56.5q-31 29 -61.5 58.5t-55 63.5t-39 73t-14.5 86q0 119 71.5 193.5t190.5 74.5q51 0 97.5 -18.5t87.5 -49.5v-163h-5q-29 41 -73.5 73.5t-100.5 32.5q-59 0 -95 -40 t-36 -99q0 -37 14.5 -69t39 -59.5t55.5 -52t61 -51.5q33 -27 64 -55.5t54.5 -63t37.5 -75.5t14 -92q0 -63 -20.5 -117.5t-57 -95.5t-90 -64.5t-118.5 -23.5q-49 0 -100.5 20.5t-90.5 50.5z" />
<glyph unicode="t" horiz-adv-x="430" d="M35 928v123h112v286h134v-286h174v-123h-174v-928h-134v928h-112z" />
<glyph unicode="u" horiz-adv-x="716" d="M84 279v772h133v-660q0 -53 3 -104t17.5 -91t42 -63.5t76.5 -23.5q51 0 80 23.5t42.5 63.5t17.5 91t4 104v660h133v-772q0 -133 -66.5 -214t-208.5 -81q-141 0 -207.5 79.5t-66.5 215.5z" />
<glyph unicode="v" horiz-adv-x="647" d="M16 1051h136l135 -658q10 -49 19 -98t20 -98h8q6 49 12 99t16 97l134 658h137l-234 -1051h-143z" />
<glyph unicode="w" horiz-adv-x="1032" d="M23 1051h135l100 -621q10 -59 21.5 -118.5t21.5 -118.5h8q8 59 14.5 118.5t16.5 118.5l102 621h136l110 -727q4 -33 9 -66t10 -65h6q8 51 14 102t16 102l131 654h136l-232 -1051h-137l-121 762q-4 29 -5 56.5t-5 55.5h-6q-4 -47 -8 -95t-13 -95l-112 -684h-135z" />
<glyph unicode="x" horiz-adv-x="686" d="M31 0l241 537l-217 514h148l86 -234q18 -53 34.5 -105.5t26.5 -107.5h8q14 55 26.5 110.5t35.5 108.5l88 228h147l-235 -514l235 -537h-147l-109 276q-16 43 -31.5 86.5t-23.5 90.5h-8q-6 -47 -20.5 -91.5t-30.5 -87.5l-105 -274h-149z" />
<glyph unicode="y" horiz-adv-x="679" d="M16 1051h136l176 -848h6q14 68 26.5 135.5t28.5 134.5l135 578h140l-363 -1452h-139l104 430z" />
<glyph unicode="z" horiz-adv-x="677" d="M31 0l415 928h-358v123h559l-426 -928h357v-123h-547z" />
<glyph unicode="{" horiz-adv-x="614" d="M98 657v68q41 10 65.5 20.5t43.5 26.5q47 35 53 78t6 94v303q0 164 56.5 230.5t199.5 66.5h45v-67q-59 -4 -96 -19.5t-56.5 -42t-26.5 -65.5t-7 -93v-288q0 -51 -6 -93t-22.5 -77t-48.5 -60.5t-85 -44.5v-6q53 -18 85 -44t48.5 -60.5t22.5 -76.5t6 -93v-289q0 -51 7 -91 t26.5 -66.5t56.5 -42t96 -19.5v-68h-45q-143 0 -199.5 66.5t-56.5 230.5v303q0 51 -6 94t-53 78q-18 16 -43 26.5t-66 20.5z" />
<glyph unicode="|" horiz-adv-x="454" d="M174 0v1638h105v-1638h-105z" />
<glyph unicode="}" horiz-adv-x="614" d="M47 -166l4 4v68q59 4 96 19.5t56.5 42t27 66.5t7.5 91v289q0 51 6 93t22.5 76.5t49 60.5t83.5 44v6q-51 18 -83.5 44t-49 61t-22.5 77t-6 93v288q0 53 -7.5 92.5t-27 66t-56 42t-96.5 19.5v67h45q72 0 121 -15.5t79 -51t43 -92t13 -138.5v-303q0 -51 6.5 -94t53.5 -78 q18 -16 42.5 -26.5t61.5 -20.5v-68q-37 -10 -61.5 -20t-42.5 -27q-47 -35 -53.5 -78t-6.5 -94v-303q0 -82 -13 -138t-43 -92t-79 -51.5t-121 -15.5h-45v-4h-4z" />
<glyph unicode="~" horiz-adv-x="909" d="M43 455q18 31 42 62.5t51.5 57t62 41t77.5 15.5q45 0 95.5 -16.5t97.5 -36.5q49 -20 93 -37t75 -17q29 0 52.5 12.5t45 31t37.5 40t29 41.5l67 -69q-18 -31 -41.5 -61t-52.5 -53.5t-62.5 -37.5t-74.5 -14q-23 0 -52.5 7t-60 17.5t-59.5 21.5t-49 19q-33 12 -68 25.5 t-72 13.5q-33 0 -57 -12t-43.5 -32.5t-35 -44t-29.5 -46.5z" />
<glyph unicode="&#xa1;" horiz-adv-x="702" d="M246 1061q0 43 30.5 73.5t73.5 30.5t74 -30.5t31 -73.5t-31 -74t-74 -31t-73.5 31t-30.5 74zM283 -395v1157h137v-1157h-137z" />
<glyph unicode="&#xa2;" d="M174 774q0 72 8 159t35 169t76 144.5t131 82.5v184h100v-180q29 -4 54.5 -12t48.5 -25v-153q-25 27 -56.5 48t-70.5 21q-63 0 -100.5 -48t-56.5 -115.5t-24.5 -139t-5.5 -116.5q0 -39 6.5 -109t24.5 -137.5t54 -117.5t94 -50q47 0 77.5 29.5t53.5 64.5h4v-166 q-23 -18 -48.5 -29.5t-54.5 -17.5v-203h-100v203q-80 25 -128 81t-75.5 129t-37 152.5t-9.5 151.5z" />
<glyph unicode="&#xa3;" d="M70 74q29 61 80 112.5t122 51.5q12 0 33 -5q29 45 44.5 89.5t15.5 97.5q0 47 -14.5 103.5t-43.5 97.5h-215v96h166q-63 102 -110.5 212.5t-47.5 235.5q0 84 23.5 157t69 126t112 85t152.5 32q72 0 129 -29t99 -76t64.5 -110.5t24.5 -132.5l-139 -27q0 49 -12.5 93t-35 78 t-58 53.5t-83.5 19.5q-55 0 -94 -21.5t-64.5 -58.5t-36.5 -84t-11 -96q0 -63 16 -123t42 -116t56.5 -110.5t59.5 -107.5h241v-96h-192q18 -41 29.5 -83t11.5 -87q0 -63 -22.5 -136t-63.5 -122q18 -10 39.5 -28t44 -35t46 -29.5t46.5 -12.5q47 2 63.5 43t20.5 80l121 -37 q-2 -43 -17.5 -82t-42 -69.5t-62.5 -48t-79 -17.5q-57 0 -100 25.5t-88 54.5q-23 14 -58 38.5t-63 24.5q-41 0 -65.5 -31.5t-35.5 -66.5z" />
<glyph unicode="&#xa4;" d="M-35 563q0 82 20.5 147.5t67.5 131.5l-80 80l97 96l82 -78q61 47 132.5 68.5t149.5 21.5t142.5 -23.5t128.5 -66.5l79 78l97 -96l-80 -80q47 -68 67.5 -135.5t20.5 -151.5q0 -78 -22.5 -139.5t-65.5 -124.5l80 -78l-97 -98l-79 80q-125 -92 -287 -93q-76 0 -141.5 25 t-124.5 68l-82 -80l-97 98l80 78q-45 66 -66.5 130t-21.5 142zM86 563q0 -70 27.5 -130t73.5 -106t107.5 -74t129.5 -30q72 2 133 29t107.5 73t74 108.5t29.5 135.5q-2 68 -28.5 129.5t-71.5 108.5t-105.5 74.5t-128.5 27.5q-74 0 -136 -25.5t-109.5 -71.5t-75 -110.5 t-27.5 -138.5z" />
<glyph unicode="&#xa5;" d="M37 625v88h315l-51 157h-264v88h233l-202 586h149l213 -727h4l58 254l141 473h149l-190 -586h221v-88h-252l-49 -157h301v-88h-309v-625h-139v625h-328z" />
<glyph unicode="&#xa6;" horiz-adv-x="454" d="M174 0v666h105v-666h-105zM174 973v665h105v-665h-105z" />
<glyph unicode="&#xa7;" horiz-adv-x="849" d="M94 567q0 66 14.5 128.5t45 113.5t80 87t120.5 48v4l-43 23q-86 45 -128 113.5t-42 170.5q0 66 21.5 122.5t59.5 98.5t93.5 65.5t122.5 23.5q59 0 109.5 -20.5t88.5 -56.5t60.5 -85t24.5 -107h-133q-8 63 -48 105.5t-108 42.5q-84 0 -126 -58.5t-42 -134.5 q0 -47 16.5 -84t45 -65.5t65.5 -51t76 -44.5q78 -43 133 -87.5t90 -94.5t51.5 -110.5t16.5 -135.5q0 -70 -12.5 -132.5t-37 -112.5t-62.5 -87t-91 -56v-4q72 -41 116 -109.5t44 -187.5q0 -63 -21.5 -118.5t-61.5 -97.5t-93 -65.5t-119 -23.5q-63 0 -115.5 22.5t-89.5 62.5 t-58.5 92.5t-23.5 113.5h133q4 -74 42 -122t118 -48q78 0 122 55.5t44 128.5q0 55 -17.5 96.5t-48 72t-70.5 54t-85 44.5q-156 70 -216.5 172t-60.5 239zM227 571q0 -119 48.5 -186.5t121.5 -101.5l58 -27q53 10 85.5 38t51 67.5t26 88t7.5 99.5q0 244 -150 311l-43 14 q-63 -2 -104 -31.5t-62.5 -72.5t-30 -96t-8.5 -103z" />
<glyph unicode="&#xa8;" horiz-adv-x="573" d="M39 1290q0 41 29.5 71t70.5 30t71 -30t30 -71t-30 -70.5t-71 -29.5t-70.5 29.5t-29.5 70.5zM336 1290q0 41 29.5 71t70.5 30t71 -30t30 -71t-30 -70.5t-71 -29.5t-70.5 29.5t-29.5 70.5z" />
<glyph unicode="&#xa9;" horiz-adv-x="1638" d="M74 774q0 164 59.5 307.5t160.5 251t237.5 170t289.5 62.5q154 0 290 -62.5t237.5 -170t160 -251t58.5 -307.5q0 -166 -58.5 -310.5t-160 -252t-237.5 -169.5t-290 -62t-290 62t-237 169.5t-160.5 252t-59.5 310.5zM182 774q0 -145 49.5 -270t135.5 -217t202.5 -145.5 t251.5 -53.5t252 53.5t202 145.5t134 217t49 270q0 139 -49 263t-134 217.5t-202 147.5t-252 54t-251.5 -54t-202.5 -147.5t-135.5 -217.5t-49.5 -263zM440 780q0 98 29 181t81 143.5t129 95.5t171 35q133 0 230.5 -79t119.5 -220h-121q-16 92 -79.5 141t-147.5 49 q-70 0 -124 -27.5t-91 -74.5t-56.5 -109.5t-19.5 -132.5q0 -68 20.5 -131t58.5 -112.5t92 -79t122 -29.5q41 0 79 14.5t68.5 40t51 62.5t26.5 82h121q-8 -70 -39 -127.5t-78 -97t-105 -61t-124 -21.5q-92 0 -169 35.5t-131 97t-84 145.5t-30 180z" />
<glyph unicode="&#xaa;" horiz-adv-x="614" d="M115 1217q0 55 4 116.5t21.5 112.5t52 85t96.5 34q63 0 102 -45v34h98v-682h-98v41h-4q-35 -51 -104 -51q-57 0 -90 31t-50.5 81t-22.5 113.5t-5 129.5zM121 670v75h368v-75h-368zM217 1241q0 -152 16.5 -224.5t71.5 -72.5q41 0 61.5 35t27.5 81t6 93t-1 72v65.5t-8 85.5 t-26.5 75t-55.5 32q-33 0 -51 -24.5t-27.5 -61.5t-11.5 -79t-2 -77z" />
<glyph unicode="&#xab;" horiz-adv-x="770" d="M92 659l252 437l88 -49l-219 -388l219 -397l-88 -51zM352 659l250 437l90 -49l-219 -388l219 -397l-90 -51z" />
<glyph unicode="&#xac;" horiz-adv-x="909" d="M43 655v105h825v-547h-104v442h-721z" />
<glyph unicode="&#xad;" horiz-adv-x="319" d="M0 573v162h319v-162h-319z" />
<glyph unicode="&#xae;" horiz-adv-x="1638" d="M74 774q0 164 59.5 307.5t160.5 251t237.5 170t289.5 62.5q154 0 290 -62.5t237.5 -170t160 -251t58.5 -307.5q0 -166 -58.5 -310.5t-160 -252t-237.5 -169.5t-290 -62t-290 62t-237 169.5t-160.5 252t-59.5 310.5zM182 774q0 -145 49.5 -270t135.5 -217t202.5 -145.5 t251.5 -53.5t252 53.5t202 145.5t134 217t49 270q0 139 -49 263t-134 217.5t-202 147.5t-252 54t-251.5 -54t-202.5 -147.5t-135.5 -217.5t-49.5 -263zM510 330v887h381q55 0 109.5 -7.5t103.5 -38.5q49 -29 73.5 -82t24.5 -108q0 -66 -21.5 -112t-58.5 -76.5t-87 -45 t-109 -16.5l264 -401h-137l-250 401h-176v-401h-117zM627 823h153q80 0 137.5 5.5t94.5 22.5t53 49t16 83q0 47 -19.5 74.5t-51 43t-69.5 19.5t-75 4h-239v-301z" />
<glyph unicode="&#xaf;" horiz-adv-x="573" d="M27 1227v127h522v-127h-522z" />
<glyph unicode="&#xb0;" horiz-adv-x="819" d="M102 1257q0 63 25 119t67 98t97.5 66.5t118.5 24.5t118.5 -24.5t97.5 -66.5t66.5 -97.5t24.5 -119.5q0 -63 -24.5 -118.5t-66.5 -97.5t-97.5 -66.5t-118.5 -24.5t-118.5 24.5t-97.5 66.5t-67 97.5t-25 118.5zM184 1257q0 -45 18.5 -86t49.5 -71.5t72 -49t86 -18.5 q47 0 88 18.5t71.5 49t48 71.5t17.5 86q0 47 -17.5 88t-48 72t-71.5 48.5t-88 17.5q-45 0 -86 -17.5t-72 -48.5t-49.5 -71.5t-18.5 -88.5z" />
<glyph unicode="&#xb1;" horiz-adv-x="909" d="M43 23v104h825v-104h-825zM43 575v105h360v346h105v-346h360v-105h-360v-348h-105v348h-360z" />
<glyph unicode="&#xb2;" horiz-adv-x="512" d="M45 627l201 379q20 39 41.5 81.5t40 89t30 92.5t11.5 91q0 47 -22.5 84t-78.5 37q-33 0 -54 -15.5t-32.5 -38t-15.5 -51t-4 -57.5v-19h-101q0 47 7.5 94.5t29 85.5t61.5 61.5t103 23.5q106 0 156.5 -60.5t50.5 -150.5q0 -49 -12.5 -99.5t-31.5 -97.5t-43 -93t-44 -89 l-143 -260h262v-88h-412z" />
<glyph unicode="&#xb3;" horiz-adv-x="512" d="M47 840v41h100v-27q0 -29 5.5 -56.5t16.5 -50t32.5 -36t56.5 -13.5q37 0 57.5 20.5t31.5 49.5t13 63.5t2 61.5q0 92 -36.5 146.5t-139.5 52.5h-26v86h16q98 0 136 32.5t38 137.5q0 53 -20.5 93t-75.5 40q-33 0 -51.5 -12.5t-27.5 -33t-12 -46t-3 -52.5h-101q-2 41 8.5 82 t33 74t59.5 52.5t88 19.5q109 0 156 -59.5t47 -151.5q0 -33 -5.5 -65t-17.5 -60.5t-34.5 -52t-57.5 -37.5q43 -14 67.5 -43t38 -66t17.5 -76t4 -75q0 -47 -8.5 -94.5t-31 -85t-61.5 -61.5t-102 -24q-117 0 -165 63.5t-48 162.5z" />
<glyph unicode="&#xb4;" horiz-adv-x="573" d="M113 1198l225 277l125 -99l-266 -239z" />
<glyph unicode="&#xb6;" horiz-adv-x="849" d="M10 1192q0 78 18.5 142.5t66.5 110.5t129 72.5t204 26.5h369v-1939h-95v1853h-163v-1853h-95v1243h-24q-123 0 -203 32.5t-126 84t-63.5 112t-17.5 115.5z" />
<glyph unicode="&#xb7;" horiz-adv-x="425" d="M109 516q0 43 29.5 74t72.5 31q47 0 76.5 -31t29.5 -74t-29.5 -73.5t-76.5 -30.5q-43 0 -72.5 30.5t-29.5 73.5z" />
<glyph unicode="&#xb8;" horiz-adv-x="573" d="M117 -406l170 322l108 -59l-194 -310z" />
<glyph unicode="&#xb9;" horiz-adv-x="512" d="M88 1468l21 84h208v-925h-100v841h-129z" />
<glyph unicode="&#xba;" horiz-adv-x="614" d="M106 1214q0 51 7.5 113t29 114t62.5 88t108 36q66 0 105 -36t59.5 -90.5t26.5 -114.5t6 -110q0 -49 -6 -110.5t-25.5 -115.5t-58.5 -90t-107 -36t-108.5 36t-62 88t-29 114.5t-7.5 113.5zM123 670v75h369v-75h-369zM209 1214q0 -33 3 -77.5t13.5 -85.5t30.5 -69t55 -28 q31 0 50.5 27t29.5 66.5t13.5 85t3.5 81.5q0 20 -2.5 63.5t-11.5 86.5t-28.5 76t-54.5 33q-37 0 -58.5 -32t-30.5 -74t-11 -85t-2 -68z" />
<glyph unicode="&#xbb;" horiz-adv-x="770" d="M78 262l219 397l-219 388l88 49l252 -437l-252 -448zM338 262l221 397l-221 388l90 49l250 -437l-250 -448z" />
<glyph unicode="&#xbc;" horiz-adv-x="1273" d="M72 1468l20 84h209v-925h-100v841h-129zM240 0l669 1544h84l-667 -1544h-86zM743 248v88l265 590h110v-598h76v-80h-76v-248h-100v248h-275zM840 328h178v276q0 39 5 89t9 98h-4z" />
<glyph unicode="&#xbd;" horiz-adv-x="1273" d="M88 1468l21 84h208v-925h-100v841h-129zM219 0l670 1544h84l-668 -1544h-86zM782 0l201 379q20 39 42 82t40 89t29.5 92t11.5 91q0 47 -22.5 84t-77.5 37q-33 0 -54.5 -15.5t-33 -38t-15.5 -51t-4 -57.5v-18h-100q0 47 7 94t28.5 85t61.5 61.5t103 23.5 q106 0 156.5 -60.5t50.5 -150.5q0 -49 -12 -99t-31.5 -97.5t-43 -93.5t-44.5 -89l-143 -260h262v-88h-412z" />
<glyph unicode="&#xbe;" horiz-adv-x="1273" d="M88 840v41h100v-27q0 -29 5.5 -56.5t16.5 -50t32.5 -36t56.5 -13.5q37 0 57.5 20.5t31.5 49.5t13 63.5t2 61.5q0 92 -36.5 146.5t-139.5 52.5h-26v86h16q98 0 136 32.5t38 137.5q0 53 -20.5 93t-75.5 40q-33 0 -51.5 -12.5t-27.5 -33t-12 -46t-3 -52.5h-101q-2 41 8.5 82 t33 74t59.5 52.5t88 19.5q109 0 156 -59.5t47 -151.5q0 -33 -5.5 -65t-17.5 -60.5t-34.5 -52t-57.5 -37.5q43 -14 67.5 -43t38 -66t17.5 -76t4 -75q0 -47 -8.5 -94.5t-31 -85t-61.5 -61.5t-102 -24q-117 0 -165 63.5t-48 162.5zM322 0l669 1544h84l-667 -1544h-86zM743 248 v88l265 590h110v-598h76v-80h-76v-248h-100v248h-275zM840 328h178v276q4 39 7 89t7 98h-4z" />
<glyph unicode="&#xbf;" horiz-adv-x="892" d="M188 -72q0 74 4.5 156t30 149.5t79.5 111.5t155 44v373h133v-498h-45q-70 0 -114 -8t-66.5 -40t-30.5 -94.5t-8 -170.5q0 -45 2 -89t14 -78t36.5 -54.5t70.5 -20.5q47 0 72.5 23.5t37.5 58.5t15.5 75t3.5 75v55h133v-55q0 -74 -8.5 -139.5t-37 -113.5t-81 -76t-142.5 -28 q-80 0 -130 29t-77.5 77t-37 109.5t-9.5 128.5zM410 1061q0 43 30.5 73.5t73.5 30.5t73.5 -30.5t30.5 -73.5t-30.5 -74t-73.5 -31t-73.5 31t-30.5 74z" />
<glyph unicode="&#xc0;" horiz-adv-x="747" d="M0 0l303 1544h135l310 -1544h-154l-57 317h-328l-55 -317h-154zM201 1870l127 99l223 -277l-84 -61zM233 442h281l-102 592q-14 78 -21.5 158t-17.5 158h-8q-10 -78 -19.5 -158t-21.5 -158z" />
<glyph unicode="&#xc1;" horiz-adv-x="747" d="M0 0l303 1544h135l310 -1544h-154l-57 317h-328l-55 -317h-154zM201 1692l225 277l125 -99l-266 -239zM233 442h281l-102 592q-14 78 -21.5 158t-17.5 158h-8q-10 -78 -19.5 -158t-21.5 -158z" />
<glyph unicode="&#xc2;" horiz-adv-x="747" d="M0 0l303 1544h135l310 -1544h-154l-57 317h-328l-55 -317h-154zM88 1696l258 248l266 -248l-94 -88l-172 160l-170 -160zM233 442h281l-102 592q-14 78 -21.5 158t-17.5 158h-8q-10 -78 -19.5 -158t-21.5 -158z" />
<glyph unicode="&#xc3;" horiz-adv-x="747" d="M0 0l303 1544h135l310 -1544h-154l-57 317h-328l-55 -317h-154zM108 1706q4 70 47.5 124.5t118.5 54.5q25 0 52.5 -11.5t54 -26t50.5 -25.5t40 -11q27 0 34 20.5t5 42.5h133q-2 -33 -12.5 -67.5t-30.5 -61t-49 -44t-66 -17.5q-31 0 -60.5 12t-56 26.5t-50 27t-42.5 12.5 q-18 0 -27 -13.5t-9 -29.5v-13h-132zM233 442h281l-102 592q-14 78 -21.5 158t-17.5 158h-8q-10 -78 -19.5 -158t-21.5 -158z" />
<glyph unicode="&#xc4;" horiz-adv-x="747" d="M0 0l303 1544h135l310 -1544h-154l-57 317h-328l-55 -317h-154zM127 1784q0 41 29.5 71t70.5 30t71 -30t30 -71t-30 -70.5t-71 -29.5t-70.5 29.5t-29.5 70.5zM233 442h281l-102 592q-14 78 -21.5 158t-17.5 158h-8q-10 -78 -19.5 -158t-21.5 -158zM424 1784q0 41 29.5 71 t70.5 30t71 -30t30 -71t-30 -70.5t-71 -29.5t-70.5 29.5t-29.5 70.5z" />
<glyph unicode="&#xc5;" horiz-adv-x="747" d="M0 0l303 1544h135l310 -1544h-154l-57 317h-328l-55 -317h-154zM165 1854q0 78 54.5 131t132.5 53t131 -53t53 -131t-53 -132t-131 -54t-132.5 54t-54.5 132zM233 442h281l-102 592q-14 78 -21.5 158t-17.5 158h-8q-10 -78 -19.5 -158t-21.5 -158zM258 1854 q0 -39 27.5 -66.5t66.5 -27.5t65.5 27.5t26.5 66.5t-26.5 65.5t-65.5 26.5t-66.5 -26.5t-27.5 -65.5z" />
<glyph unicode="&#xc6;" horiz-adv-x="1087" d="M0 0l311 1544h508l23 -131h-342l102 -545h320l24 -131h-319l114 -606h326l20 -131h-477l-53 317h-350l-53 -317h-154zM231 442h306l-115 684q-10 63 -15.5 127t-11.5 127h-6q-10 -63 -22.5 -126.5t-22.5 -127.5z" />
<glyph unicode="&#xc7;" horiz-adv-x="751" d="M78 717q0 63 3 150t15.5 181.5t39 186.5t73.5 166t120.5 119t178.5 45q43 0 95 -11.5t87 -37.5v-158q-43 29 -85 48t-95 19q-94 0 -150.5 -61t-86 -155.5t-39 -209t-9.5 -223.5q0 -45 1 -111.5t9.5 -139t24.5 -145.5t47 -131.5t78 -94t115 -35.5q53 0 101 20.5t89 48.5 v-145q-41 -29 -93 -46t-103 -17q-90 0 -157 35.5t-113 96t-74.5 137.5t-45 158.5t-21.5 162.5t-5 147zM207 -406l170 322l108 -59l-194 -310z" />
<glyph unicode="&#xc8;" horiz-adv-x="692" d="M123 0v1544h485v-131h-342v-545h332v-131h-332v-606h342v-131h-485zM172 1870l127 99l223 -277l-84 -61z" />
<glyph unicode="&#xc9;" horiz-adv-x="692" d="M123 0v1544h485v-131h-342v-545h332v-131h-332v-606h342v-131h-485zM238 1692l225 277l125 -99l-266 -239z" />
<glyph unicode="&#xca;" horiz-adv-x="692" d="M84 1696l258 248l266 -248l-94 -88l-172 160l-170 -160zM123 0v1544h485v-131h-342v-545h332v-131h-332v-606h342v-131h-485z" />
<glyph unicode="&#xcb;" horiz-adv-x="692" d="M123 0v1544h485v-131h-342v-545h332v-131h-332v-606h342v-131h-485zM129 1784q0 41 29.5 71t70.5 30t71 -30t30 -71t-30 -70.5t-71 -29.5t-70.5 29.5t-29.5 70.5zM426 1784q0 41 29.5 71t70.5 30t71 -30t30 -71t-30 -70.5t-71 -29.5t-70.5 29.5t-29.5 70.5z" />
<glyph unicode="&#xcc;" horiz-adv-x="389" d="M25 1870l127 99l223 -277l-84 -61zM123 0v1544h143v-1544h-143z" />
<glyph unicode="&#xcd;" horiz-adv-x="389" d="M50 1692l225 277l125 -99l-266 -239zM123 0v1544h143v-1544h-143z" />
<glyph unicode="&#xce;" horiz-adv-x="389" d="M-63 1696l258 248l266 -248l-94 -88l-172 160l-170 -160zM123 0v1544h143v-1544h-143z" />
<glyph unicode="&#xcf;" horiz-adv-x="389" d="M-49 1784q0 41 29.5 71t70.5 30t71 -30t30 -71t-30 -70.5t-71 -29.5t-70.5 29.5t-29.5 70.5zM123 0v1544h143v-1544h-143zM248 1784q0 41 29.5 71t70.5 30t71 -30t30 -71t-30 -70.5t-71 -29.5t-70.5 29.5t-29.5 70.5z" />
<glyph unicode="&#xd0;" horiz-adv-x="843" d="M-25 737v131h148v676h156q74 0 138 -6t118.5 -29.5t97.5 -71.5t72.5 -132t45 -210t15.5 -307q0 -233 -21.5 -384.5t-75 -241.5t-146.5 -126t-234 -36h-166v737h-148zM266 131h41q84 0 140.5 26.5t90 72.5t50 106.5t23.5 127t7 136.5v133q0 213 -13 346t-49 207 t-99.5 100.5t-165.5 26.5h-25v-545h140v-131h-140v-606z" />
<glyph unicode="&#xd1;" horiz-adv-x="890" d="M123 0v1544h125l354 -1073q14 -41 25.5 -80t21.5 -80h6q-4 51 -9 102.5t-5 102.5v1028h125v-1544h-125l-348 1038q-16 47 -27.5 98.5t-25.5 100.5h-9q4 -76 10.5 -149.5t6.5 -149.5v-938h-125zM180 1706q4 70 47.5 124.5t118.5 54.5q25 0 52.5 -11.5t54 -26t50.5 -25.5 t40 -11q27 0 34 20.5t5 42.5h133q-2 -33 -12.5 -67.5t-30.5 -61t-49 -44t-66 -17.5q-31 0 -60.5 12t-56 26.5t-50 27t-42.5 12.5q-18 0 -27 -13.5t-9 -29.5v-13h-132z" />
<glyph unicode="&#xd2;" horiz-adv-x="913" d="M78 772q0 147 13 288.5t53 254t115 181.5t198 69q88 0 149.5 -35t103.5 -95.5t66.5 -139t37.5 -167t17.5 -179.5t4.5 -177q0 -72 -3.5 -159t-15.5 -175t-36.5 -171t-66.5 -146.5t-104.5 -102t-152.5 -38.5q-127 0 -202 72.5t-115 188t-51 256t-11 275.5zM225 772 q0 -102 5.5 -217t28 -212t69.5 -160.5t129 -63.5q84 0 130 63.5t68.5 160.5t27.5 212t5 217t-5 217t-27.5 212t-68.5 160.5t-130 63.5q-82 4 -129 -59t-69.5 -161.5t-28 -214.5t-5.5 -218zM283 1870l127 99l223 -277l-84 -61z" />
<glyph unicode="&#xd3;" horiz-adv-x="913" d="M78 772q0 147 13 288.5t53 254t115 181.5t198 69q88 0 149.5 -35t103.5 -95.5t66.5 -139t37.5 -167t17.5 -179.5t4.5 -177q0 -72 -3.5 -159t-15.5 -175t-36.5 -171t-66.5 -146.5t-104.5 -102t-152.5 -38.5q-127 0 -202 72.5t-115 188t-51 256t-11 275.5zM225 772 q0 -102 5.5 -217t28 -212t69.5 -160.5t129 -63.5q84 0 130 63.5t68.5 160.5t27.5 212t5 217t-5 217t-27.5 212t-68.5 160.5t-130 63.5q-82 4 -129 -59t-69.5 -161.5t-28 -214.5t-5.5 -218zM283 1692l225 277l125 -99l-266 -239z" />
<glyph unicode="&#xd4;" horiz-adv-x="913" d="M78 772q0 147 13 288.5t53 254t115 181.5t198 69q88 0 149.5 -35t103.5 -95.5t66.5 -139t37.5 -167t17.5 -179.5t4.5 -177q0 -72 -3.5 -159t-15.5 -175t-36.5 -171t-66.5 -146.5t-104.5 -102t-152.5 -38.5q-127 0 -202 72.5t-115 188t-51 256t-11 275.5zM195 1696 l258 248l266 -248l-94 -88l-172 160l-170 -160zM225 772q0 -102 5.5 -217t28 -212t69.5 -160.5t129 -63.5q84 0 130 63.5t68.5 160.5t27.5 212t5 217t-5 217t-27.5 212t-68.5 160.5t-130 63.5q-82 4 -129 -59t-69.5 -161.5t-28 -214.5t-5.5 -218z" />
<glyph unicode="&#xd5;" horiz-adv-x="913" d="M78 772q0 147 13 288.5t53 254t115 181.5t198 69q88 0 149.5 -35t103.5 -95.5t66.5 -139t37.5 -167t17.5 -179.5t4.5 -177q0 -72 -3.5 -159t-15.5 -175t-36.5 -171t-66.5 -146.5t-104.5 -102t-152.5 -38.5q-127 0 -202 72.5t-115 188t-51 256t-11 275.5zM190 1706 q4 70 47.5 124.5t118.5 54.5q25 0 52.5 -11.5t54 -26t50.5 -25.5t40 -11q27 0 34 20.5t5 42.5h133q-2 -33 -12.5 -67.5t-30.5 -61t-49 -44t-66 -17.5q-31 0 -60.5 12t-56 26.5t-50 27t-42.5 12.5q-18 0 -27 -13.5t-9 -29.5v-13h-132zM225 772q0 -102 5.5 -217t28 -212 t69.5 -160.5t129 -63.5q84 0 130 63.5t68.5 160.5t27.5 212t5 217t-5 217t-27.5 212t-68.5 160.5t-130 63.5q-82 4 -129 -59t-69.5 -161.5t-28 -214.5t-5.5 -218z" />
<glyph unicode="&#xd6;" horiz-adv-x="913" d="M78 772q0 147 13 288.5t53 254t115 181.5t198 69q88 0 149.5 -35t103.5 -95.5t66.5 -139t37.5 -167t17.5 -179.5t4.5 -177q0 -72 -3.5 -159t-15.5 -175t-36.5 -171t-66.5 -146.5t-104.5 -102t-152.5 -38.5q-127 0 -202 72.5t-115 188t-51 256t-11 275.5zM209 1784 q0 41 29.5 71t70.5 30t71 -30t30 -71t-30 -70.5t-71 -29.5t-70.5 29.5t-29.5 70.5zM225 772q0 -102 5.5 -217t28 -212t69.5 -160.5t129 -63.5q84 0 130 63.5t68.5 160.5t27.5 212t5 217t-5 217t-27.5 212t-68.5 160.5t-130 63.5q-82 4 -129 -59t-69.5 -161.5t-28 -214.5 t-5.5 -218zM506 1784q0 41 29.5 71t70.5 30t71 -30t30 -71t-30 -70.5t-71 -29.5t-70.5 29.5t-29.5 70.5z" />
<glyph unicode="&#xd7;" horiz-adv-x="909" d="M43 186l338 338l-338 338l76 74l336 -338l338 338l75 -72l-340 -340l340 -340l-75 -73l-338 340l-336 -336z" />
<glyph unicode="&#xd8;" horiz-adv-x="913" d="M49 25l101 206q-45 133 -58.5 273.5t-13.5 279.5q0 233 28.5 384t80 239t119 123t147.5 35q82 0 147.5 -34t108.5 -104l65 138l88 -45l-96 -205q43 -129 56.5 -268.5t13.5 -274.5q0 -61 -3.5 -144t-14.5 -171t-33.5 -174t-64.5 -153t-104.5 -108.5t-152.5 -41.5 q-168 0 -256 139l-66 -139zM225 772q0 -90 5.5 -177t13.5 -177h4l385 870q-23 53 -64 95t-112 42q-45 0 -86 -16t-74 -81.5t-52.5 -197t-19.5 -358.5zM287 264q23 -59 62.5 -102t107.5 -43q59 0 102 32.5t71.5 108.5t43 202t14.5 310q0 35 -1 81t-4 95t-5 95.5t-6 78.5h-8z " />
<glyph unicode="&#xd9;" horiz-adv-x="880" d="M117 489v1055h143v-1046q0 -96 5 -167t23.5 -118t54.5 -70.5t97 -23.5t97 23.5t54.5 70.5t24 117.5t5.5 167.5v1046h143v-1055q0 -106 -8 -199t-41 -162t-97.5 -108.5t-177.5 -39.5q-117 0 -181 40.5t-96 110.5t-39 162t-7 196zM246 1870l127 99l223 -277l-84 -61z" />
<glyph unicode="&#xda;" horiz-adv-x="880" d="M117 489v1055h143v-1046q0 -96 5 -167t23.5 -118t54.5 -70.5t97 -23.5t97 23.5t54.5 70.5t24 117.5t5.5 167.5v1046h143v-1055q0 -106 -8 -199t-41 -162t-97.5 -108.5t-177.5 -39.5q-117 0 -181 40.5t-96 110.5t-39 162t-7 196zM308 1692l225 277l125 -99l-266 -239z" />
<glyph unicode="&#xdb;" horiz-adv-x="880" d="M117 489v1055h143v-1046q0 -96 5 -167t23.5 -118t54.5 -70.5t97 -23.5t97 23.5t54.5 70.5t24 117.5t5.5 167.5v1046h143v-1055q0 -106 -8 -199t-41 -162t-97.5 -108.5t-177.5 -39.5q-117 0 -181 40.5t-96 110.5t-39 162t-7 196zM179 1696l258 248l266 -248l-94 -88 l-172 160l-170 -160z" />
<glyph unicode="&#xdc;" horiz-adv-x="880" d="M117 489v1055h143v-1046q0 -96 5 -167t23.5 -118t54.5 -70.5t97 -23.5t97 23.5t54.5 70.5t24 117.5t5.5 167.5v1046h143v-1055q0 -106 -8 -199t-41 -162t-97.5 -108.5t-177.5 -39.5q-117 0 -181 40.5t-96 110.5t-39 162t-7 196zM193 1784q0 41 29.5 71t70.5 30t71 -30 t30 -71t-30 -70.5t-71 -29.5t-70.5 29.5t-29.5 70.5zM490 1784q0 41 29.5 71t70.5 30t71 -30t30 -71t-30 -70.5t-71 -29.5t-70.5 29.5t-29.5 70.5z" />
<glyph unicode="&#xdd;" horiz-adv-x="802" d="M39 1544h154l153 -520q16 -51 29.5 -102.5t30.5 -104.5h8q10 53 19 107.5t26 107.5l151 512h154l-283 -868v-676h-143v676zM269 1692l225 277l125 -99l-266 -239z" />
<glyph unicode="&#xde;" horiz-adv-x="743" d="M123 0v1544h143v-327q82 0 160 -9.5t139.5 -49.5t98 -120t36.5 -223q-4 -117 -25.5 -193.5t-67.5 -123.5t-119.5 -66.5t-184.5 -19.5h-37v-412h-143zM266 543h56q76 0 119.5 14t68.5 47t33 85t10 126q0 80 -12.5 132t-42 83t-78.5 43t-125 12h-29v-542z" />
<glyph unicode="&#xdf;" horiz-adv-x="753" d="M2 926v125h111v174q0 78 6 154.5t32.5 138t82 99.5t151.5 38q80 0 135 -28t89 -75t49.5 -111.5t15.5 -135.5q0 -47 -5 -96.5t-21.5 -92.5t-46.5 -76.5t-79 -52.5q66 -25 100.5 -83t50 -130t17.5 -145.5t2 -128.5q0 -88 -8 -178.5t-41 -161t-95.5 -115.5t-172.5 -45h-29 v125h16q47 0 83 11t60.5 53t37 123t12.5 220q0 127 -10 203t-33 118t-57.5 56.5t-83.5 16.5h-25v125h14q104 0 140.5 50t36.5 169q0 41 -4.5 86t-20.5 84t-46 64.5t-83 25.5q-47 0 -74.5 -22.5t-41 -62.5t-17.5 -92.5t-4 -111.5v-1241h-133v926h-111z" />
<glyph unicode="&#xe0;" horiz-adv-x="714" d="M61 537q0 88 5.5 182t31 171t78.5 127t148 50q55 0 93 -22.5t68 -65.5h4v72h134v-1051h-134v82h-4q-29 -45 -72.5 -71.5t-101.5 -26.5q-63 0 -110 21.5t-78 83t-46.5 169t-15.5 279.5zM185 1376l127 99l223 -277l-84 -61zM199 547q0 -162 12 -254t32.5 -136t48 -54.5 t56.5 -10.5q49 0 79 23.5t46 78t22.5 140.5t6.5 209q0 86 -4 160.5t-19.5 132t-45.5 90t-79 32.5q-55 0 -85.5 -38.5t-46 -99t-19.5 -133.5t-4 -140z" />
<glyph unicode="&#xe1;" horiz-adv-x="714" d="M61 537q0 88 5.5 182t31 171t78.5 127t148 50q55 0 93 -22.5t68 -65.5h4v72h134v-1051h-134v82h-4q-29 -45 -72.5 -71.5t-101.5 -26.5q-63 0 -110 21.5t-78 83t-46.5 169t-15.5 279.5zM185 1198l225 277l125 -99l-266 -239zM199 547q0 -162 12 -254t32.5 -136t48 -54.5 t56.5 -10.5q49 0 79 23.5t46 78t22.5 140.5t6.5 209q0 86 -4 160.5t-19.5 132t-45.5 90t-79 32.5q-55 0 -85.5 -38.5t-46 -99t-19.5 -133.5t-4 -140z" />
<glyph unicode="&#xe2;" horiz-adv-x="714" d="M61 537q0 88 5.5 182t31 171t78.5 127t148 50q55 0 93 -22.5t68 -65.5h4v72h134v-1051h-134v82h-4q-29 -45 -72.5 -71.5t-101.5 -26.5q-63 0 -110 21.5t-78 83t-46.5 169t-15.5 279.5zM97 1202l258 248l266 -248l-94 -88l-172 160l-170 -160zM199 547q0 -162 12 -254 t32.5 -136t48 -54.5t56.5 -10.5q49 0 79 23.5t46 78t22.5 140.5t6.5 209q0 86 -4 160.5t-19.5 132t-45.5 90t-79 32.5q-55 0 -85.5 -38.5t-46 -99t-19.5 -133.5t-4 -140z" />
<glyph unicode="&#xe3;" horiz-adv-x="714" d="M61 537q0 88 5.5 182t31 171t78.5 127t148 50q55 0 93 -22.5t68 -65.5h4v72h134v-1051h-134v82h-4q-29 -45 -72.5 -71.5t-101.5 -26.5q-63 0 -110 21.5t-78 83t-46.5 169t-15.5 279.5zM92 1212q4 70 47.5 124.5t118.5 54.5q25 0 52.5 -11.5t54 -26t50.5 -25.5t40 -11 q27 0 34 20.5t5 42.5h133q-2 -33 -12.5 -67.5t-30.5 -61t-49 -44t-66 -17.5q-31 0 -60.5 12t-56 26.5t-50 27t-42.5 12.5q-18 0 -27 -13.5t-9 -29.5v-13h-132zM199 547q0 -162 12 -254t32.5 -136t48 -54.5t56.5 -10.5q49 0 79 23.5t46 78t22.5 140.5t6.5 209q0 86 -4 160.5 t-19.5 132t-45.5 90t-79 32.5q-55 0 -85.5 -38.5t-46 -99t-19.5 -133.5t-4 -140z" />
<glyph unicode="&#xe4;" horiz-adv-x="714" d="M61 537q0 88 5.5 182t31 171t78.5 127t148 50q55 0 93 -22.5t68 -65.5h4v72h134v-1051h-134v82h-4q-29 -45 -72.5 -71.5t-101.5 -26.5q-63 0 -110 21.5t-78 83t-46.5 169t-15.5 279.5zM111 1290q0 41 29.5 71t70.5 30t71 -30t30 -71t-30 -70.5t-71 -29.5t-70.5 29.5 t-29.5 70.5zM199 547q0 -162 12 -254t32.5 -136t48 -54.5t56.5 -10.5q49 0 79 23.5t46 78t22.5 140.5t6.5 209q0 86 -4 160.5t-19.5 132t-45.5 90t-79 32.5q-55 0 -85.5 -38.5t-46 -99t-19.5 -133.5t-4 -140zM408 1290q0 41 29.5 71t70.5 30t71 -30t30 -71t-30 -70.5 t-71 -29.5t-70.5 29.5t-29.5 70.5z" />
<glyph unicode="&#xe5;" horiz-adv-x="714" d="M61 537q0 88 5.5 182t31 171t78.5 127t148 50q55 0 93 -22.5t68 -65.5h4v72h134v-1051h-134v82h-4q-29 -45 -72.5 -71.5t-101.5 -26.5q-63 0 -110 21.5t-78 83t-46.5 169t-15.5 279.5zM174 1360q0 78 54.5 131t132.5 53t131 -53t53 -131t-53 -132t-131 -54t-132.5 54 t-54.5 132zM199 547q0 -162 12 -254t32.5 -136t48 -54.5t56.5 -10.5q49 0 79 23.5t46 78t22.5 140.5t6.5 209q0 86 -4 160.5t-19.5 132t-45.5 90t-79 32.5q-55 0 -85.5 -38.5t-46 -99t-19.5 -133.5t-4 -140zM267 1360q0 -39 27.5 -66.5t66.5 -27.5t65.5 27.5t26.5 66.5 t-26.5 65.5t-65.5 26.5t-66.5 -26.5t-27.5 -65.5z" />
<glyph unicode="&#xe6;" horiz-adv-x="1159" d="M61 356q0 63 14.5 125t45.5 111t81 78.5t124 29.5q59 0 110 -21.5t82 -64.5h4v27q0 55 -7 109.5t-30.5 96.5t-65.5 68.5t-112 26.5q-55 0 -98 -25.5t-84 -56.5v146q84 61 186 61q94 0 165 -47t106 -150h4q27 86 85 141.5t142 55.5q92 0 148.5 -53t86 -131t40 -165 t10.5 -157v-63h-451v-31q0 -39 5 -100.5t23.5 -119t52.5 -98t91 -40.5q41 0 65.5 22.5t39 55t19.5 70.5t7 69l2 30h138q0 -59 -13.5 -124.5t-43 -121t-79 -91t-123.5 -35.5q-113 0 -165 53t-80 137h-4q-29 -92 -98.5 -141t-155.5 -49q-76 0 -127 34.5t-82 88t-44.5 120 t-13.5 129.5zM193 350q0 -39 6 -82t23.5 -77.5t48 -58t77.5 -23.5q49 0 83 20.5t54.5 53t29.5 73.5t9 80q0 41 -7 85t-26.5 83t-53.5 63.5t-87 24.5q-49 0 -79.5 -22.5t-48 -58.5t-23.5 -78t-6 -83zM649 610h314v19q0 37 -4.5 91t-18.5 103t-44 84t-83 35q-51 0 -83 -39 t-50 -92t-24.5 -109.5t-6.5 -91.5z" />
<glyph unicode="&#xe7;" horiz-adv-x="569" d="M61 504q0 49 4.5 110.5t16.5 124t33.5 122t55.5 105.5t83 73.5t115 27.5q37 0 74.5 -10t70.5 -31v-154q-25 27 -56.5 48.5t-70.5 21.5q-63 0 -101 -48t-57.5 -115.5t-24.5 -139.5t-5 -117q0 -39 6 -108.5t24.5 -137t54 -117.5t95.5 -50q47 0 77.5 29.5t53.5 64.5h4v-166 q-29 -25 -71 -39t-81 -14q-90 0 -148 56t-92 136t-47.5 170t-13.5 158zM117 -406l170 322l108 -59l-194 -310z" />
<glyph unicode="&#xe8;" horiz-adv-x="702" d="M61 522q0 72 10.5 165t42 178t90 143.5t152.5 58.5q92 0 148.5 -53t86.5 -131t40 -165t10 -157v-63h-442v-31q0 -39 5 -100.5t22.5 -119t49 -98t86.5 -40.5q43 0 70 26.5t41 65.5t18.5 82t4.5 73h137q0 -59 -13.5 -124.5t-43 -121t-78.5 -91t-123 -35.5q-104 0 -166 54 t-94.5 136t-43 175t-10.5 173zM179 1376l127 99l223 -277l-84 -61zM201 610h305l-2 19q-2 37 -5 91t-17.5 103t-43 84t-82.5 35q-47 0 -77.5 -39t-48 -92t-23.5 -109.5t-6 -91.5z" />
<glyph unicode="&#xe9;" horiz-adv-x="702" d="M61 522q0 72 10.5 165t42 178t90 143.5t152.5 58.5q92 0 148.5 -53t86.5 -131t40 -165t10 -157v-63h-442v-31q0 -39 5 -100.5t22.5 -119t49 -98t86.5 -40.5q43 0 70 26.5t41 65.5t18.5 82t4.5 73h137q0 -59 -13.5 -124.5t-43 -121t-78.5 -91t-123 -35.5q-104 0 -166 54 t-94.5 136t-43 175t-10.5 173zM179 1198l225 277l125 -99l-266 -239zM201 610h305l-2 19q-2 37 -5 91t-17.5 103t-43 84t-82.5 35q-47 0 -77.5 -39t-48 -92t-23.5 -109.5t-6 -91.5z" />
<glyph unicode="&#xea;" horiz-adv-x="702" d="M61 522q0 72 10.5 165t42 178t90 143.5t152.5 58.5q92 0 148.5 -53t86.5 -131t40 -165t10 -157v-63h-442v-31q0 -39 5 -100.5t22.5 -119t49 -98t86.5 -40.5q43 0 70 26.5t41 65.5t18.5 82t4.5 73h137q0 -59 -13.5 -124.5t-43 -121t-78.5 -91t-123 -35.5q-104 0 -166 54 t-94.5 136t-43 175t-10.5 173zM91 1202l258 248l266 -248l-94 -88l-172 160l-170 -160zM201 610h305l-2 19q-2 37 -5 91t-17.5 103t-43 84t-82.5 35q-47 0 -77.5 -39t-48 -92t-23.5 -109.5t-6 -91.5z" />
<glyph unicode="&#xeb;" horiz-adv-x="702" d="M61 522q0 72 10.5 165t42 178t90 143.5t152.5 58.5q92 0 148.5 -53t86.5 -131t40 -165t10 -157v-63h-442v-31q0 -39 5 -100.5t22.5 -119t49 -98t86.5 -40.5q43 0 70 26.5t41 65.5t18.5 82t4.5 73h137q0 -59 -13.5 -124.5t-43 -121t-78.5 -91t-123 -35.5q-104 0 -166 54 t-94.5 136t-43 175t-10.5 173zM105 1290q0 41 29.5 71t70.5 30t71 -30t30 -71t-30 -70.5t-71 -29.5t-70.5 29.5t-29.5 70.5zM201 610h305l-2 19q-2 37 -5 91t-17.5 103t-43 84t-82.5 35q-47 0 -77.5 -39t-48 -92t-23.5 -109.5t-6 -91.5zM402 1290q0 41 29.5 71t70.5 30 t71 -30t30 -71t-30 -70.5t-71 -29.5t-70.5 29.5t-29.5 70.5z" />
<glyph unicode="&#xec;" horiz-adv-x="317" d="M-10 1376l127 99l223 -277l-84 -61zM92 0v1051h133v-1051h-133z" />
<glyph unicode="&#xed;" horiz-adv-x="317" d="M15 1198l225 277l125 -99l-266 -239zM92 0v1051h133v-1051h-133z" />
<glyph unicode="&#xee;" horiz-adv-x="317" d="M-98 1202l258 248l266 -248l-94 -88l-172 160l-170 -160zM92 0v1051h133v-1051h-133z" />
<glyph unicode="&#xef;" horiz-adv-x="317" d="M-84 1290q0 41 29.5 71t70.5 30t71 -30t30 -71t-30 -70.5t-71 -29.5t-70.5 29.5t-29.5 70.5zM92 0v1051h133v-1051h-133zM213 1290q0 41 29.5 71t70.5 30t71 -30t30 -71t-30 -70.5t-71 -29.5t-70.5 29.5t-29.5 70.5z" />
<glyph unicode="&#xf0;" horiz-adv-x="724" d="M55 1589l129 53q59 -55 104.5 -110t88.5 -115l143 86l53 -82l-139 -82l82 -151q51 -113 81 -207t45 -174t18.5 -149.5t3.5 -131.5q-4 -76 -13.5 -170t-38 -177t-87 -139t-163.5 -56q-104 0 -163.5 57t-90 140t-39 177.5t-8.5 167.5q0 49 6.5 110.5t20.5 125t42 121 t69 98.5t100 58.5t139 0.5q-23 57 -54.5 114.5t-64.5 111.5l-131 -82l-49 86l129 78q-45 68 -103.5 128t-109.5 113zM199 526q0 -66 6 -139.5t23.5 -135t50 -102t83.5 -40.5q49 0 79 30.5t47.5 86t25.5 132t12 168.5q0 72 -3 148t-19.5 137t-49 100t-92.5 39 q-51 0 -83.5 -42t-50 -105.5t-23.5 -137t-6 -139.5z" />
<glyph unicode="&#xf1;" horiz-adv-x="727" d="M92 0v1051h133v-84q41 47 93.5 73.5t113.5 26.5q70 0 111 -28.5t61.5 -74.5t25.5 -102.5t5 -109.5v-752h-133v737q0 47 -3 87t-15.5 70t-36 47t-64.5 17q-57 0 -89 -27.5t-47.5 -68.5t-18.5 -90t-3 -90v-682h-133zM98 1212q4 70 47.5 124.5t118.5 54.5q25 0 52.5 -11.5 t54 -26t50.5 -25.5t40 -11q27 0 34 20.5t5 42.5h133q-2 -33 -12.5 -67.5t-30.5 -61t-49 -44t-66 -17.5q-31 0 -60.5 12t-56 26.5t-50 27t-42.5 12.5q-18 0 -27 -13.5t-9 -29.5v-13h-132z" />
<glyph unicode="&#xf2;" horiz-adv-x="727" d="M61 526q0 74 8.5 168t39 177t90 139.5t163.5 56.5t164 -56.5t90.5 -139.5t39 -177t8.5 -168t-8.5 -168t-39 -177t-90 -140t-164.5 -57q-104 0 -163.5 57t-90 140t-39 177.5t-8.5 167.5zM191 1376l127 99l223 -277l-84 -61zM199 526q0 -39 3 -108.5t18.5 -138t49 -119.5 t92.5 -51t93 51t49.5 119.5t18.5 138t3 108.5q0 25 -1 66t-6 87t-15 93t-27.5 85t-46.5 61.5t-68 23.5t-67.5 -23.5t-46 -61.5t-27.5 -85t-15 -93t-6 -87t-1 -66z" />
<glyph unicode="&#xf3;" horiz-adv-x="727" d="M61 526q0 74 8.5 168t39 177t90 139.5t163.5 56.5t164 -56.5t90.5 -139.5t39 -177t8.5 -168t-8.5 -168t-39 -177t-90 -140t-164.5 -57q-104 0 -163.5 57t-90 140t-39 177.5t-8.5 167.5zM191 1198l225 277l125 -99l-266 -239zM199 526q0 -39 3 -108.5t18.5 -138t49 -119.5 t92.5 -51t93 51t49.5 119.5t18.5 138t3 108.5q0 25 -1 66t-6 87t-15 93t-27.5 85t-46.5 61.5t-68 23.5t-67.5 -23.5t-46 -61.5t-27.5 -85t-15 -93t-6 -87t-1 -66z" />
<glyph unicode="&#xf4;" horiz-adv-x="727" d="M61 526q0 74 8.5 168t39 177t90 139.5t163.5 56.5t164 -56.5t90.5 -139.5t39 -177t8.5 -168t-8.5 -168t-39 -177t-90 -140t-164.5 -57q-104 0 -163.5 57t-90 140t-39 177.5t-8.5 167.5zM103 1202l258 248l266 -248l-94 -88l-172 160l-170 -160zM199 526q0 -39 3 -108.5 t18.5 -138t49 -119.5t92.5 -51t93 51t49.5 119.5t18.5 138t3 108.5q0 25 -1 66t-6 87t-15 93t-27.5 85t-46.5 61.5t-68 23.5t-67.5 -23.5t-46 -61.5t-27.5 -85t-15 -93t-6 -87t-1 -66z" />
<glyph unicode="&#xf5;" horiz-adv-x="727" d="M61 526q0 74 8.5 168t39 177t90 139.5t163.5 56.5t164 -56.5t90.5 -139.5t39 -177t8.5 -168t-8.5 -168t-39 -177t-90 -140t-164.5 -57q-104 0 -163.5 57t-90 140t-39 177.5t-8.5 167.5zM98 1212q4 70 47.5 124.5t118.5 54.5q25 0 52.5 -11.5t54 -26t50.5 -25.5t40 -11 q27 0 34 20.5t5 42.5h133q-2 -33 -12.5 -67.5t-30.5 -61t-49 -44t-66 -17.5q-31 0 -60.5 12t-56 26.5t-50 27t-42.5 12.5q-18 0 -27 -13.5t-9 -29.5v-13h-132zM199 526q0 -39 3 -108.5t18.5 -138t49 -119.5t92.5 -51t93 51t49.5 119.5t18.5 138t3 108.5q0 25 -1 66t-6 87 t-15 93t-27.5 85t-46.5 61.5t-68 23.5t-67.5 -23.5t-46 -61.5t-27.5 -85t-15 -93t-6 -87t-1 -66z" />
<glyph unicode="&#xf6;" horiz-adv-x="727" d="M61 526q0 74 8.5 168t39 177t90 139.5t163.5 56.5t164 -56.5t90.5 -139.5t39 -177t8.5 -168t-8.5 -168t-39 -177t-90 -140t-164.5 -57q-104 0 -163.5 57t-90 140t-39 177.5t-8.5 167.5zM117 1290q0 41 29.5 71t70.5 30t71 -30t30 -71t-30 -70.5t-71 -29.5t-70.5 29.5 t-29.5 70.5zM199 526q0 -39 3 -108.5t18.5 -138t49 -119.5t92.5 -51t93 51t49.5 119.5t18.5 138t3 108.5q0 25 -1 66t-6 87t-15 93t-27.5 85t-46.5 61.5t-68 23.5t-67.5 -23.5t-46 -61.5t-27.5 -85t-15 -93t-6 -87t-1 -66zM414 1290q0 41 29.5 71t70.5 30t71 -30t30 -71 t-30 -70.5t-71 -29.5t-70.5 29.5t-29.5 70.5z" />
<glyph unicode="&#xf7;" horiz-adv-x="909" d="M43 473v105h825v-105h-825zM352 127q0 43 31 73.5t74 30.5t73.5 -30.5t30.5 -73.5t-30.5 -73.5t-73.5 -30.5t-74 30.5t-31 73.5zM352 924q0 43 31 73.5t74 30.5t73.5 -30.5t30.5 -73.5t-30.5 -74t-73.5 -31t-74 31t-31 74z" />
<glyph unicode="&#xf8;" horiz-adv-x="727" d="M29 35l84 145q-29 84 -40.5 171t-11.5 173q0 78 10.5 173.5t42 177t93 137t164.5 55.5q59 0 109 -26.5t85 -73.5l60 100l71 -45l-82 -143q31 -84 40.5 -174.5t9.5 -180.5q0 -74 -8.5 -167t-37 -176t-87 -140t-160.5 -57q-63 0 -118.5 26.5t-94.5 77.5l-56 -96zM199 524 q0 -47 3 -96t7 -96h4l270 512q-12 37 -42.5 67.5t-71.5 30.5t-70 -23.5t-48.5 -60.5t-29.5 -83t-15 -92t-6 -88t-1 -71zM240 211q16 -41 49 -71.5t80 -30.5q57 0 88.5 50t47 118.5t18.5 138t3 108.5q0 47 -4 95.5t-8 95.5h-4z" />
<glyph unicode="&#xf9;" horiz-adv-x="716" d="M84 279v772h133v-660q0 -53 3 -104t17.5 -91t42 -63.5t76.5 -23.5q51 0 80 23.5t42.5 63.5t17.5 91t4 104v660h133v-772q0 -133 -66.5 -214t-208.5 -81q-141 0 -207.5 79.5t-66.5 215.5zM144 1376l127 99l223 -277l-84 -61z" />
<glyph unicode="&#xfa;" horiz-adv-x="716" d="M84 279v772h133v-660q0 -53 3 -104t17.5 -91t42 -63.5t76.5 -23.5q51 0 80 23.5t42.5 63.5t17.5 91t4 104v660h133v-772q0 -133 -66.5 -214t-208.5 -81q-141 0 -207.5 79.5t-66.5 215.5zM215 1198l225 277l125 -99l-266 -239z" />
<glyph unicode="&#xfb;" horiz-adv-x="716" d="M84 279v772h133v-660q0 -53 3 -104t17.5 -91t42 -63.5t76.5 -23.5q51 0 80 23.5t42.5 63.5t17.5 91t4 104v660h133v-772q0 -133 -66.5 -214t-208.5 -81q-141 0 -207.5 79.5t-66.5 215.5zM97 1202l258 248l266 -248l-94 -88l-172 160l-170 -160z" />
<glyph unicode="&#xfc;" horiz-adv-x="716" d="M84 279v772h133v-660q0 -53 3 -104t17.5 -91t42 -63.5t76.5 -23.5q51 0 80 23.5t42.5 63.5t17.5 91t4 104v660h133v-772q0 -133 -66.5 -214t-208.5 -81q-141 0 -207.5 79.5t-66.5 215.5zM111 1290q0 41 29.5 71t70.5 30t71 -30t30 -71t-30 -70.5t-71 -29.5t-70.5 29.5 t-29.5 70.5zM408 1290q0 41 29.5 71t70.5 30t71 -30t30 -71t-30 -70.5t-71 -29.5t-70.5 29.5t-29.5 70.5z" />
<glyph unicode="&#xfd;" horiz-adv-x="679" d="M16 1051h136l176 -848h6q14 68 26.5 135.5t28.5 134.5l135 578h140l-363 -1452h-139l104 430zM197 1198l225 277l125 -99l-266 -239z" />
<glyph unicode="&#xfe;" horiz-adv-x="714" d="M92 -401v1876h133v-496h4q31 43 69 65.5t95 22.5q90 0 142.5 -46t78 -121t32.5 -170t7 -193q0 -123 -8 -225.5t-34.5 -175.5t-76 -112.5t-131.5 -39.5q-57 0 -101 26.5t-73 71.5h-4v-483h-133zM213 555q0 -84 3 -167t18.5 -148.5t46.5 -106.5t86 -41q49 0 78.5 29t45 85 t20.5 142t5 199q0 59 -3 131t-18.5 134t-46 104t-88.5 42q-53 0 -82.5 -37.5t-44 -97t-17.5 -131t-3 -137.5z" />
<glyph unicode="&#xff;" horiz-adv-x="679" d="M16 1051h136l176 -848h6q14 68 26.5 135.5t28.5 134.5l135 578h140l-363 -1452h-139l104 430zM92 1290q0 41 29.5 71t70.5 30t71 -30t30 -71t-30 -70.5t-71 -29.5t-70.5 29.5t-29.5 70.5zM389 1290q0 41 29.5 71t70.5 30t71 -30t30 -71t-30 -70.5t-71 -29.5t-70.5 29.5 t-29.5 70.5z" />
<glyph unicode="&#x152;" horiz-adv-x="1255" d="M78 788q0 61 3 142.5t15.5 167.5t36 170t64.5 149.5t101 106.5t146 41q76 0 136.5 -46t93.5 -112h4v137h477v-131h-342v-545h332v-131h-332v-606h342v-131h-477v160h-4q-29 -78 -91.5 -129t-146.5 -51q-88 0 -148.5 44t-100.5 113.5t-61.5 158.5t-32.5 178t-13 172 t-2 142zM225 733q0 -135 10.5 -247.5t35 -193.5t67.5 -127t111 -46q72 0 115.5 32.5t68 106.5t33 190.5t8.5 284.5q0 176 -7.5 306t-30 216t-67.5 128t-123 42q-74 0 -117.5 -66.5t-66 -169t-30 -224t-7.5 -232.5z" />
<glyph unicode="&#x153;" horiz-adv-x="1146" d="M61 526q0 45 4.5 103.5t15.5 118t30.5 117t52.5 102.5t79 72.5t109 27.5q43 0 81 -19.5t65.5 -51t46 -70.5t24.5 -80h4q8 43 29 83t50.5 70.5t67.5 49t81 18.5q92 0 148.5 -53t86 -131t39.5 -165t10 -157v-63h-448v-31q0 -39 5 -100.5t22.5 -119t51.5 -98t91 -40.5 q41 0 65.5 22.5t39 55t19.5 70.5t7 69l2 30h137q0 -59 -13 -124.5t-43 -121t-79 -91t-123 -35.5q-92 0 -156.5 59t-89.5 162h-4q-8 -43 -26.5 -83t-46 -71t-65.5 -49t-85 -18q-74 0 -127 38.5t-88 110.5t-52.5 171t-17.5 222zM199 528q0 -31 4 -98.5t19.5 -138t47 -124.5 t86.5 -58q53 0 84 51t47.5 119.5t21.5 140.5t5 110q0 35 -4 103.5t-19.5 137.5t-47.5 120t-87 51q-55 4 -85.5 -43t-47 -114.5t-20.5 -139.5t-4 -117zM639 610h311l-2 19q-2 37 -5 91t-17.5 103t-43 84t-81.5 35q-49 0 -81 -39t-50.5 -92t-24.5 -109.5t-6 -91.5z" />
<glyph unicode="&#x178;" horiz-adv-x="802" d="M39 1544h154l153 -520q16 -51 29.5 -102.5t30.5 -104.5h8q10 53 19 107.5t26 107.5l151 512h154l-283 -868v-676h-143v676zM154 1784q0 41 29.5 71t70.5 30t71 -30t30 -71t-30 -70.5t-71 -29.5t-70.5 29.5t-29.5 70.5zM451 1784q0 41 29.5 71t70.5 30t71 -30t30 -71 t-30 -70.5t-71 -29.5t-70.5 29.5t-29.5 70.5z" />
<glyph unicode="&#x2c6;" horiz-adv-x="573" d="M25 1202l258 248l266 -248l-94 -88l-172 160l-170 -160z" />
<glyph unicode="&#x2dc;" horiz-adv-x="573" d="M20 1212q4 70 47.5 124.5t118.5 54.5q25 0 52.5 -11.5t54 -26t50.5 -25.5t40 -11q27 0 34 20.5t5 42.5h133q-2 -33 -12.5 -67.5t-30.5 -61t-49 -44t-66 -17.5q-31 0 -60.5 12t-56 26.5t-50 27t-42.5 12.5q-18 0 -27 -13.5t-9 -29.5v-13h-132z" />
<glyph unicode="&#x2000;" horiz-adv-x="1019" />
<glyph unicode="&#x2001;" horiz-adv-x="2038" />
<glyph unicode="&#x2002;" horiz-adv-x="1019" />
<glyph unicode="&#x2003;" horiz-adv-x="2038" />
<glyph unicode="&#x2004;" horiz-adv-x="679" />
<glyph unicode="&#x2005;" horiz-adv-x="509" />
<glyph unicode="&#x2006;" horiz-adv-x="339" />
<glyph unicode="&#x2007;" horiz-adv-x="339" />
<glyph unicode="&#x2008;" horiz-adv-x="254" />
<glyph unicode="&#x2009;" horiz-adv-x="407" />
<glyph unicode="&#x200a;" horiz-adv-x="113" />
<glyph unicode="&#x2010;" horiz-adv-x="319" d="M0 573v162h319v-162h-319z" />
<glyph unicode="&#x2011;" horiz-adv-x="319" d="M0 573v162h319v-162h-319z" />
<glyph unicode="&#x2012;" horiz-adv-x="319" d="M0 573v162h319v-162h-319z" />
<glyph unicode="&#x2013;" horiz-adv-x="1024" d="M0 573v162h1024v-162h-1024z" />
<glyph unicode="&#x2014;" horiz-adv-x="2048" d="M0 573v162h2048v-162h-2048z" />
<glyph unicode="&#x2018;" horiz-adv-x="458" d="M78 1108l205 457l98 -47l-160 -478z" />
<glyph unicode="&#x2019;" horiz-adv-x="458" d="M78 1087l160 478l143 -68l-205 -457z" />
<glyph unicode="&#x201a;" horiz-adv-x="458" d="M16 -283l160 478l143 -68l-204 -457z" />
<glyph unicode="&#x201c;" horiz-adv-x="733" d="M78 1108l205 457l98 -47l-160 -478zM350 1108l205 457l100 -47l-159 -478z" />
<glyph unicode="&#x201d;" horiz-adv-x="733" d="M78 1087l160 478l143 -68l-205 -457zM352 1087l160 478l143 -68l-204 -457z" />
<glyph unicode="&#x201e;" horiz-adv-x="733" d="M78 -283l160 478l143 -68l-205 -457zM352 -283l160 478l143 -68l-204 -457z" />
<glyph unicode="&#x2022;" horiz-adv-x="849" d="M41 774q0 78 30.5 148.5t83 123t123 83t150.5 30.5q78 0 147.5 -30.5t122 -83t83 -123t30.5 -148.5t-30.5 -147.5t-83 -122.5t-122 -84t-147.5 -31q-80 0 -150.5 31t-123 84t-83 122.5t-30.5 147.5z" />
<glyph unicode="&#x2026;" horiz-adv-x="2048" d="M236 88q0 43 30.5 74t73.5 31t73.5 -31t30.5 -74t-30.5 -73.5t-73.5 -30.5t-73.5 30.5t-30.5 73.5zM920 88q0 43 30.5 74t73.5 31t73.5 -31t30.5 -74t-30.5 -73.5t-73.5 -30.5t-73.5 30.5t-30.5 73.5zM1604 88q0 43 30.5 74t73.5 31t73.5 -31t30.5 -74t-30.5 -73.5 t-73.5 -30.5t-73.5 30.5t-30.5 73.5z" />
<glyph unicode="&#x202f;" horiz-adv-x="407" />
<glyph unicode="&#x2039;" horiz-adv-x="509" d="M92 647l252 449l88 -52l-219 -397l219 -387l-88 -49z" />
<glyph unicode="&#x203a;" horiz-adv-x="509" d="M78 262l219 397l-219 388l88 49l252 -437l-252 -448z" />
<glyph unicode="&#x205f;" horiz-adv-x="509" />
<glyph unicode="&#x2122;" horiz-adv-x="1478" d="M117 1440v104h481v-104h-188v-758h-105v758h-188zM690 682v862h180l154 -608h4l160 608h176v-862h-104v754h-5l-192 -754h-74l-190 754h-4v-754h-105z" />
<glyph unicode="&#xe000;" horiz-adv-x="1054" d="M0 0v1055h1055v-1055h-1055z" />
</font>
</defs>
</svg>
