<?xml version="1.0" encoding="utf-8"?>
<!-- Generator: Adobe Illustrator 22.0.0, SVG Export Plug-In . SVG Version: 6.00 Build 0)  -->
<svg version="1.1" id="black_1_" xmlns="http://www.w3.org/2000/svg" xmlns:xlink="http://www.w3.org/1999/xlink" x="0px" y="0px"
	 viewBox="0 0 600 158.3" style="enable-background:new 0 0 600 158.3;" xml:space="preserve">
<style type="text/css">
	.st0{fill:#FF9600;}
	.st1{fill:#FFFFFF;}
</style>
<path class="st0" d="M251.5,65.8c0,8.9-5.1,16-13.4,16c-8.5,0-15.3-7.2-15.3-16c0-8.9,6.8-13.7,15.3-13.7
	C246.3,52.1,251.5,56.9,251.5,65.8z"/>
<g>
	<path class="st1" d="M121.3,22.5c5.6-4.1,5.3-11.9-0.8-16c0,0-5.8-4.5-15.3-4.5C82.6,2,68.1,16.8,68.1,36.5
		c0,11.2,5.8,19.4,5.8,31.3c0,10.5-4.6,14.3-5.9,25.7c-0.6,5.9,0.6,17.4,3.4,22.2c4.8,8,12.2,9,19.2,4.6c10-6.2-2.9-17.1-3.1-25.1
		c-0.1-10.4,5.3-18,5.3-18c5.2-5.2,9.9-1.4,17.9-4.2c2.9-1,5.7-5.5,5.7-9.3c0-5.1-3.6-8.5-6.8-9.9c-6.6-2.7-11.7-0.5-15.5-4
		s-6.7-3.6-6.7-10.7c-0.1-13.8,9-22.3,20.5-17.4C112.2,23.7,116.6,25.8,121.3,22.5z"/>
</g>
<g>
	<path class="st1" d="M26.3,94.9c-3.6-10.2,5.2-17.7,5.2-17.7c5.2-4,8.5-0.5,16.1-3c5.6-2.3,6.8-8,6.8-11.3c0-4.6-3.6-6.6-6.8-7.9
		c-6.3-2.4-9.4-1-14.3-3.9c-4.6-2.6-5.4-5.4-6.6-12C24.8,27,34.9,16.4,50,22.8c5.2,2.1,10.2-0.3,12.6-4.6C66,12.1,58.8,3.1,44.4,1.9
		C17-0.5,6.3,18.1,6.5,37c0.1,10.7,6.6,15.6,6.7,27c0.1,10-5.6,19-6.7,29.9c-1.3,18.6,16,29.5,34.5,28.8c12.2-0.4,15-2.6,18.5-5.3
		c6-4.9,0.3-18.3-9.7-15.6C37.8,105.1,29.6,104.2,26.3,94.9z"/>
</g>
<path class="st1" d="M138.2,113.9c-4.6,0-10.1-5.3-10.1-9.8c0-9.4,6.5-14.6,13-19c3.7-2.6,9.4-9.2,9.4-17.2c0-9.2-9.2-15.7-11-16.9
	c-5.3-3.5-13.8-10.5-11.7-17.7c1.2-3.9,5-9.7,11-9.7h0.3c7.6,0.1,13,7.1,20.3,20c0.3,0.5,0.5,1,0.9,1.5c2.8,5.2,5.8,10.5,13.2,10.5
	c0.3,0,0.5,0,0.8,0c7-0.4,9.6-4.3,13.4-10.1v-0.1c0.4-0.5,0.8-1.2,1.2-1.7c9.2-13.7,16-20,21.6-20c0.8,0,1.4,0.1,2.2,0.4
	c5.7,2.1,8.3,5,7.7,9.4c-0.9,9.2-6.3,12.8-12,16.5l-1.2,0.8c-3.9,2.6-9.6,9.3-9.4,17.2c0.1,6.1,6.2,14.2,9.3,16.9
	c1.2,1,2.3,2.1,3.6,3c5.4,4.4,11.5,9.3,10.5,15.9c-0.6,4.1-4.3,7.7-8.9,9.2c-0.5,0.1-1,0.3-1.7,0.3c-5.4,0-12.8-7.2-21.6-21
	c-0.5-0.8-1-1.5-1.4-2.5l-0.1-0.1c-2.8-4.6-5.7-9.4-12.4-9.4c-0.3,0-0.5,0-0.8,0c-6.1,0.4-10.2,5.5-14.6,11.9
	C154.4,99.7,144.6,113.9,138.2,113.9z"/>
<g>
	<path class="st1" d="M263.9,3.2h20.3c6.2,0,11.4,0.7,15.6,2.1c3.9,1.3,7.4,3.7,10.4,7c4.6,5.1,7.9,11.7,9.8,19.8
		c2,7.9,2.9,19.1,2.9,33.8c0,13.5-1.1,24.4-3.2,32.9c-2.1,8.1-5.6,14.3-10.4,18.6c-6,5.3-16.6,8-32.1,8h-13.3L263.9,3.2L263.9,3.2z
		 M280.4,111.1c10,0,16.7-3,20.1-9.1c3.5-6.1,5.2-17.9,5.2-35.4c0-18.8-1.7-31.8-5-38.9s-9.4-10.6-18.3-10.6h-2.1L280.4,111.1
		L280.4,111.1z"/>
	<path class="st1" d="M332.9,3.2h43.8v13.9h-27.3v38.7h24.2v13.9h-24.2v41.7h27.3v13.9h-43.8V3.2z"/>
	<path class="st1" d="M426.1,5.8v16.1c-5-3.6-9.5-5.4-13.5-5.4c-4.3,0-7.9,1.5-10.6,4.6c-2.7,2.9-4.1,6.8-4.1,11.6
		c0,4.3,1,7.9,2.9,11c1,1.6,2.7,3.7,4.9,6.3c2.3,2.6,5.3,5.7,8.9,9.3c6.7,6.8,11.3,12.7,13.7,17.7c2.4,4.8,3.6,10.7,3.6,17.7
		c0,9.4-2.7,17.2-8,23.4c-5.3,6-12.2,8.9-20.5,8.9c-7,0-13-1.9-18-5.8v-16.3c5.9,4.3,11.2,6.4,16,6.4c4.5,0,8-1.5,10.5-4.5
		s3.8-7,3.8-12.2c0-4.4-1-8.4-2.9-12c-1-1.7-2.4-3.6-4.2-5.8c-1.8-2.2-4-4.6-6.7-7.3c-4.2-4.1-7.6-7.8-10.4-10.9
		c-2.7-3.2-4.8-5.9-6.1-8.3c-2.5-4.6-3.8-10.5-3.8-17.6c0-9.6,2.5-17.1,7.4-22.7c5-5.6,11.7-8.5,20.2-8.5
		C415.1,1.6,420.7,3,426.1,5.8z"/>
	<path class="st1" d="M439.3,3.2h16.5v122.2h-16.5V3.2z"/>
	<path class="st1" d="M497.4,61.2h29.9v4.7c0,23.8-2.1,39.9-6.3,48.2c-4.1,8.5-11.8,12.8-23.1,12.8c-11.7,0-20-4.7-24.9-14.2
		s-7.4-25.5-7.4-47.9c0-25.6,2.7-42.7,8.1-51.2c5.1-8,12.8-12,23.4-12c8,0,14.3,1.9,18.8,5.8c4.5,3.9,8.1,10.3,10.6,19.2L511.1,33
		c-0.7-3.2-1.5-5.9-2.3-8.1S507,21,506,19.8c-2-2.5-5-3.7-9-3.7c-5.5,0-9.2,3.4-11.2,10.1c-2,7.1-3,19.8-3,38.1
		c0,18.5,1,31.1,3.1,37.6s5.9,9.8,11.6,9.8c5.2,0,8.9-2.3,11-7c2.2-5,3.2-12.9,3.2-23.9v-3.3V75h-14.3L497.4,61.2L497.4,61.2z"/>
	<path class="st1" d="M537.2,3.2h15.4L569,52c4.7,13.8,8.9,28.5,12.6,44.1c-1.3-9.4-2.3-18-2.9-25.6c-0.6-7.7-1-14.9-1-21.6V3.2
		h16.5v122.2h-15.4l-18.4-55c-1.7-5.1-3.3-10.4-4.8-15.8s-2.9-11-4.2-16.9c-0.1-0.7-0.3-1.6-0.5-2.7c-0.2-1.1-0.5-2.3-0.8-3.6
		c0.2,1.4,0.3,2.5,0.4,3.5c0.1,1,0.2,1.8,0.2,2.5l0.9,12.4l0.9,15.1c0.1,0.8,0.1,1.9,0.1,3.1s0,2.6,0,4.1l0.9,53.3h-16.2L537.2,3.2
		L537.2,3.2z"/>
</g>
<g>
	<path class="st1" d="M266.9,137.8l1.9,8.3l0.4,2.3l0.4-2.3l1.6-8.3h3.2l1.7,8.3l0.4,2.3l0.4-2.2l1.9-8.3h3.1l-4.1,14.4H275
		l-1.7-8.4l-0.5-2.8l-0.5,2.8l-1.7,8.4h-2.8l-4.1-14.4H266.9z"/>
	<path class="st1" d="M289.6,141.8c0.7,0.3,1.4,0.9,1.8,1.6c0.4,0.6,0.7,1.4,0.8,2.2c0.1,0.5,0.1,1.2,0.1,2.1h-7.8
		c0,1.1,0.4,1.8,1.1,2.2c0.4,0.3,0.9,0.4,1.5,0.4c0.6,0,1.1-0.2,1.5-0.5c0.2-0.2,0.4-0.4,0.6-0.7h2.8c-0.1,0.6-0.4,1.3-1,1.9
		c-1,1-2.3,1.6-4,1.6c-1.4,0-2.7-0.4-3.8-1.3c-1.1-0.9-1.6-2.3-1.6-4.3c0-1.8,0.5-3.3,1.5-4.2c1-1,2.2-1.5,3.8-1.5
		C288,141.3,288.8,141.5,289.6,141.8z M285.4,144.2c-0.4,0.4-0.6,1-0.7,1.6h4.8c-0.1-0.7-0.3-1.3-0.7-1.7c-0.4-0.4-1-0.6-1.7-0.6
		C286.4,143.6,285.8,143.8,285.4,144.2z"/>
	<path class="st1" d="M302.3,142.9c0.8,1,1.2,2.3,1.2,3.9c0,1.7-0.4,3-1.2,4.1c-0.8,1.1-1.9,1.6-3.3,1.6c-0.9,0-1.6-0.2-2.1-0.5
		c-0.3-0.2-0.7-0.6-1-1.1v1.3h-2.7v-14.4h2.8v5.1c0.4-0.5,0.7-0.9,1.2-1.1c0.5-0.3,1.1-0.5,1.9-0.5
		C300.4,141.4,301.5,141.9,302.3,142.9z M299.9,149.4c0.4-0.6,0.6-1.3,0.6-2.3c0-0.8-0.1-1.4-0.3-1.9c-0.4-0.9-1.1-1.4-2.1-1.4
		c-1,0-1.7,0.5-2.1,1.4c-0.2,0.5-0.3,1.1-0.3,1.9c0,0.9,0.2,1.7,0.6,2.3c0.4,0.6,1,0.9,1.9,0.9C299,150.2,299.5,149.9,299.9,149.4z"
		/>
	<path class="st1" d="M312.1,137.7v14.6h-2.6v-14.6H312.1z"/>
	<path class="st1" d="M328.4,137.8h3.1l-4.9,14.4h-2.8l-4.9-14.4h3.2l3.1,10.9L328.4,137.8z"/>
	<path class="st1" d="M335,140.3h-2.8v-2.6h2.8V140.3z M332.2,141.6h2.8v10.7h-2.8V141.6z"/>
	<path class="st1" d="M342.8,141.8c0.5,0.3,0.9,0.7,1.2,1.2v-5.1h2.8v14.4h-2.7v-1.5c-0.4,0.6-0.9,1.1-1.4,1.4
		c-0.5,0.3-1.1,0.4-1.9,0.4c-1.2,0-2.3-0.5-3.1-1.5c-0.9-1-1.3-2.3-1.3-3.9c0-1.8,0.4-3.2,1.3-4.3c0.8-1,2-1.6,3.4-1.6
		C341.7,141.3,342.3,141.5,342.8,141.8z M343.4,149.4c0.4-0.6,0.6-1.3,0.6-2.3c0-1.3-0.3-2.2-1-2.8c-0.4-0.3-0.9-0.5-1.4-0.5
		c-0.8,0-1.4,0.3-1.8,0.9c-0.4,0.6-0.6,1.4-0.6,2.3c0,1,0.2,1.8,0.6,2.4c0.4,0.6,1,0.9,1.8,0.9C342.4,150.2,343,149.9,343.4,149.4z"
		/>
	<path class="st1" d="M355.7,141.8c0.7,0.3,1.4,0.9,1.8,1.6c0.4,0.6,0.7,1.4,0.8,2.2c0.1,0.5,0.1,1.2,0.1,2.1h-7.8
		c0,1.1,0.4,1.8,1.1,2.2c0.4,0.3,0.9,0.4,1.5,0.4c0.6,0,1.2-0.2,1.5-0.5c0.2-0.2,0.4-0.4,0.6-0.7h2.8c-0.1,0.6-0.4,1.3-1,1.9
		c-1,1-2.3,1.6-4,1.6c-1.4,0-2.7-0.4-3.8-1.3c-1.1-0.9-1.6-2.3-1.6-4.3c0-1.8,0.5-3.3,1.5-4.2c1-1,2.2-1.5,3.8-1.5
		C354.1,141.3,354.9,141.5,355.7,141.8z M351.5,144.2c-0.4,0.4-0.6,1-0.7,1.6h4.8c-0.1-0.7-0.3-1.3-0.7-1.7c-0.4-0.4-1-0.6-1.7-0.6
		C352.5,143.6,351.9,143.8,351.5,144.2z"/>
	<path class="st1" d="M368.2,150.9c-0.9,1.1-2.3,1.7-4.1,1.7c-1.8,0-3.2-0.6-4.1-1.7c-0.9-1.1-1.3-2.4-1.3-4c0-1.5,0.4-2.9,1.3-4
		c0.9-1.1,2.3-1.7,4.1-1.7c1.8,0,3.2,0.6,4.1,1.7c0.9,1.1,1.4,2.5,1.4,4C369.5,148.5,369.1,149.8,368.2,150.9z M365.9,149.4
		c0.4-0.6,0.7-1.4,0.7-2.5c0-1.1-0.2-1.9-0.7-2.5c-0.4-0.6-1.1-0.9-1.9-0.9c-0.8,0-1.4,0.3-1.9,0.9c-0.4,0.6-0.7,1.4-0.7,2.5
		c0,1.1,0.2,1.9,0.7,2.5c0.4,0.6,1.1,0.9,1.9,0.9C364.9,150.3,365.5,150,365.9,149.4z"/>
	<path class="st1" d="M378.2,137.7v14.6h-2.6v-14.6H378.2z"/>
	<path class="st1" d="M387.8,147.9c0,0.6,0.1,1,0.3,1.4c0.3,0.7,1,1,1.8,1c0.5,0,1-0.2,1.4-0.6c0.4-0.4,0.6-0.9,0.6-1.6
		c0-0.9-0.4-1.6-1.1-1.9c-0.4-0.2-1.1-0.3-2-0.3v-2c0.9,0,1.5-0.1,1.9-0.3c0.6-0.3,0.9-0.8,0.9-1.7c0-0.5-0.2-1-0.5-1.3
		c-0.3-0.3-0.8-0.5-1.3-0.5c-0.7,0-1.1,0.2-1.4,0.6c-0.3,0.4-0.5,1-0.4,1.7h-2.6c0-0.7,0.1-1.4,0.4-2c0.2-0.6,0.6-1.1,1.1-1.5
		c0.4-0.3,0.8-0.6,1.3-0.8c0.5-0.2,1.1-0.3,1.8-0.3c1.4,0,2.4,0.4,3.3,1.1s1.2,1.6,1.2,2.8c0,0.8-0.2,1.5-0.7,2.1
		c-0.3,0.4-0.6,0.6-1,0.7c0.3,0,0.6,0.2,1.1,0.7c0.7,0.7,1.1,1.6,1.1,2.7c0,1.2-0.4,2.3-1.2,3.2c-0.8,0.9-2.1,1.4-3.7,1.4
		c-2,0-3.4-0.7-4.2-2c-0.4-0.7-0.6-1.6-0.7-2.7H387.8z"/>
	<path class="st1" d="M405,138.2c1,0.3,1.8,0.9,2.5,1.8c0.5,0.7,0.8,1.5,1,2.3c0.2,0.8,0.3,1.6,0.3,2.4c0,1.9-0.4,3.5-1.2,4.9
		c-1,1.8-2.7,2.7-4.8,2.7h-6.2v-14.4h6.2C403.7,137.9,404.5,138,405,138.2z M399.5,140.3v9.4h2.8c1.4,0,2.4-0.7,3-2.1
		c0.3-0.8,0.5-1.7,0.5-2.7c0-1.5-0.2-2.6-0.7-3.4c-0.5-0.8-1.4-1.2-2.7-1.2H399.5z"/>
	<path class="st1" d="M417.5,137.7v14.6h-2.6v-14.6H417.5z"/>
	<path class="st1" d="M433.8,138.2c1,0.3,1.8,0.9,2.5,1.8c0.5,0.7,0.8,1.5,1,2.3c0.2,0.8,0.3,1.6,0.3,2.4c0,1.9-0.4,3.5-1.2,4.9
		c-1,1.8-2.7,2.7-4.8,2.7h-6.2v-14.4h6.2C432.5,137.9,433.2,138,433.8,138.2z M428.3,140.3v9.4h2.8c1.4,0,2.4-0.7,3-2.1
		c0.3-0.8,0.5-1.7,0.5-2.7c0-1.5-0.2-2.6-0.7-3.4c-0.5-0.8-1.4-1.2-2.7-1.2H428.3z"/>
	<path class="st1" d="M446,141.8c0.7,0.3,1.4,0.9,1.8,1.6c0.4,0.6,0.7,1.4,0.8,2.2c0.1,0.5,0.1,1.2,0.1,2.1H441
		c0,1.1,0.4,1.8,1.1,2.2c0.4,0.3,0.9,0.4,1.5,0.4c0.6,0,1.2-0.2,1.5-0.5c0.2-0.2,0.4-0.4,0.6-0.7h2.8c-0.1,0.6-0.4,1.3-1,1.9
		c-1,1-2.3,1.6-4,1.6c-1.4,0-2.7-0.4-3.8-1.3c-1.1-0.9-1.6-2.3-1.6-4.3c0-1.8,0.5-3.3,1.5-4.2c1-1,2.2-1.5,3.8-1.5
		C444.4,141.3,445.2,141.5,446,141.8z M441.8,144.2c-0.4,0.4-0.6,1-0.7,1.6h4.8c-0.1-0.7-0.3-1.3-0.7-1.7c-0.4-0.4-1-0.6-1.7-0.6
		C442.8,143.6,442.2,143.8,441.8,144.2z"/>
	<path class="st1" d="M451.7,148.9c0.1,0.5,0.2,0.8,0.4,1.1c0.3,0.4,1,0.6,1.9,0.6c0.5,0,1-0.1,1.3-0.2c0.3-0.2,0.5-0.4,0.5-0.7
		c0-0.3-0.1-0.6-0.4-0.7c-0.3-0.2-1.2-0.4-2.9-0.8c-1.2-0.3-2.1-0.7-2.6-1.1c-0.5-0.4-0.7-1.1-0.7-1.9c0-1,0.4-1.8,1.2-2.5
		c0.8-0.7,1.9-1.1,3.3-1.1c1.3,0,2.4,0.3,3.3,0.8c0.8,0.5,1.3,1.4,1.4,2.8h-2.8c0-0.4-0.1-0.6-0.3-0.9c-0.3-0.4-0.8-0.6-1.6-0.6
		c-0.6,0-1,0.1-1.3,0.3c-0.3,0.2-0.4,0.4-0.4,0.7c0,0.3,0.1,0.6,0.4,0.7c0.3,0.2,1.2,0.4,2.9,0.8c1.1,0.3,1.9,0.7,2.5,1.2
		c0.5,0.5,0.8,1.2,0.8,2c0,1.1-0.4,1.9-1.2,2.6c-0.8,0.7-2,1-3.7,1c-1.7,0-2.9-0.4-3.7-1.1c-0.8-0.7-1.2-1.6-1.2-2.7H451.7z"/>
	<path class="st1" d="M463,140.3h-2.8v-2.6h2.8V140.3z M460.1,141.6h2.8v10.7h-2.8V141.6z"/>
	<path class="st1" d="M470.3,141.6c0.7,0.3,1.2,0.8,1.6,1.5v-1.5h2.7v10.1c0,1.4-0.2,2.4-0.7,3.1c-0.8,1.2-2.3,1.8-4.6,1.8
		c-1.4,0-2.5-0.3-3.3-0.8c-0.9-0.5-1.3-1.3-1.4-2.4h3c0.1,0.3,0.2,0.6,0.4,0.7c0.3,0.3,0.8,0.4,1.5,0.4c1,0,1.7-0.3,2-1
		c0.2-0.4,0.3-1.2,0.3-2.2v-0.7c-0.3,0.5-0.6,0.8-0.9,1c-0.6,0.4-1.3,0.6-2.2,0.6c-1.4,0-2.5-0.5-3.3-1.4c-0.8-1-1.2-2.3-1.2-3.9
		c0-1.6,0.4-2.9,1.2-4c0.8-1.1,1.9-1.6,3.3-1.6C469.5,141.3,469.9,141.4,470.3,141.6z M471.3,149.2c0.4-0.5,0.7-1.3,0.7-2.4
		c0-1-0.2-1.8-0.6-2.3c-0.4-0.5-1-0.8-1.7-0.8c-1,0-1.6,0.5-2,1.4c-0.2,0.5-0.3,1.1-0.3,1.8c0,0.6,0.1,1.2,0.3,1.7
		c0.4,0.9,1.1,1.4,2,1.4C470.3,150,470.8,149.7,471.3,149.2z"/>
	<path class="st1" d="M485.3,142.2c0.7,0.6,1,1.5,1,2.9v7.2h-2.9v-6.5c0-0.6-0.1-1-0.2-1.3c-0.3-0.5-0.8-0.8-1.6-0.8
		c-0.9,0-1.6,0.4-1.9,1.2c-0.2,0.4-0.3,1-0.3,1.6v5.8h-2.8v-10.6h2.7v1.6c0.4-0.5,0.7-0.9,1-1.2c0.6-0.4,1.3-0.6,2.2-0.6
		C483.7,141.3,484.6,141.6,485.3,142.2z"/>
	<path class="st1" d="M499.9,141.6h3l-3.8,10.7h-2.9l-3.8-10.7h3.1l2.2,7.9L499.9,141.6z"/>
	<path class="st1" d="M506.7,140.3h-2.8v-2.6h2.8V140.3z M503.9,141.6h2.8v10.7h-2.8V141.6z"/>
	<path class="st1" d="M511,148.9c0.1,0.5,0.2,0.8,0.4,1.1c0.3,0.4,1,0.6,1.9,0.6c0.5,0,1-0.1,1.3-0.2c0.3-0.2,0.5-0.4,0.5-0.7
		c0-0.3-0.1-0.6-0.4-0.7c-0.3-0.2-1.2-0.4-2.9-0.8c-1.2-0.3-2.1-0.7-2.6-1.1c-0.5-0.4-0.7-1.1-0.7-1.9c0-1,0.4-1.8,1.2-2.5
		c0.8-0.7,1.9-1.1,3.3-1.1c1.3,0,2.4,0.3,3.3,0.8c0.8,0.5,1.3,1.4,1.4,2.8h-2.8c0-0.4-0.1-0.6-0.3-0.9c-0.3-0.4-0.8-0.6-1.6-0.6
		c-0.6,0-1,0.1-1.3,0.3c-0.3,0.2-0.4,0.4-0.4,0.7c0,0.3,0.1,0.6,0.4,0.7c0.3,0.2,1.2,0.4,2.9,0.8c1.1,0.3,1.9,0.7,2.5,1.2
		c0.5,0.5,0.8,1.2,0.8,2c0,1.1-0.4,1.9-1.2,2.6c-0.8,0.7-2,1-3.7,1c-1.7,0-2.9-0.4-3.7-1.1s-1.2-1.6-1.2-2.7H511z"/>
	<path class="st1" d="M522.1,141.6v6.4c0,0.6,0.1,1.1,0.2,1.4c0.3,0.5,0.7,0.8,1.5,0.8c0.9,0,1.6-0.4,1.9-1.2c0.2-0.4,0.3-1,0.3-1.7
		v-5.8h2.8v10.7h-2.7v-1.5c0,0-0.1,0.1-0.2,0.3c-0.1,0.2-0.2,0.3-0.4,0.4c-0.4,0.4-0.9,0.7-1.3,0.8c-0.4,0.1-0.9,0.2-1.4,0.2
		c-1.6,0-2.6-0.6-3.2-1.7c-0.3-0.6-0.5-1.5-0.5-2.8v-6.4H522.1z"/>
	<path class="st1" d="M535.2,145.8c0.5-0.1,0.9-0.1,1.1-0.2c0.4-0.2,0.6-0.4,0.6-0.8c0-0.4-0.2-0.7-0.5-0.9
		c-0.3-0.2-0.8-0.2-1.4-0.2c-0.7,0-1.1,0.2-1.4,0.5c-0.2,0.2-0.3,0.6-0.4,1h-2.7c0.1-0.9,0.3-1.7,0.8-2.3c0.7-0.9,2-1.4,3.8-1.4
		c1.2,0,2.2,0.2,3.1,0.7c0.9,0.5,1.4,1.3,1.4,2.6v4.9c0,0.3,0,0.7,0,1.2c0,0.4,0.1,0.6,0.2,0.7c0.1,0.1,0.2,0.2,0.4,0.3v0.4h-3
		c-0.1-0.2-0.1-0.4-0.2-0.6c0-0.2-0.1-0.4-0.1-0.6c-0.4,0.4-0.8,0.8-1.3,1.1c-0.6,0.3-1.3,0.5-2,0.5c-1,0-1.8-0.3-2.4-0.8
		c-0.6-0.5-0.9-1.3-0.9-2.3c0-1.3,0.5-2.3,1.5-2.8c0.6-0.3,1.4-0.5,2.5-0.7L535.2,145.8z M536.9,147.1c-0.2,0.1-0.4,0.2-0.5,0.3
		c-0.2,0.1-0.4,0.1-0.7,0.2l-0.6,0.1c-0.6,0.1-1,0.2-1.3,0.4c-0.4,0.3-0.7,0.6-0.7,1.2c0,0.5,0.1,0.8,0.4,1c0.3,0.2,0.6,0.3,1,0.3
		c0.6,0,1.2-0.2,1.7-0.5s0.8-1,0.8-1.9V147.1z"/>
	<path class="st1" d="M544.4,152.3h-2.8v-14.4h2.8V152.3z"/>
	<path class="st1" d="M555.7,145.8c0.5-0.1,0.9-0.1,1.1-0.2c0.4-0.2,0.6-0.4,0.6-0.8c0-0.4-0.2-0.7-0.5-0.9
		c-0.3-0.2-0.8-0.2-1.4-0.2c-0.7,0-1.1,0.2-1.4,0.5c-0.2,0.2-0.3,0.6-0.4,1h-2.7c0.1-0.9,0.3-1.7,0.8-2.3c0.7-0.9,2-1.4,3.8-1.4
		c1.2,0,2.2,0.2,3.1,0.7c0.9,0.5,1.4,1.3,1.4,2.6v4.9c0,0.3,0,0.7,0,1.2c0,0.4,0.1,0.6,0.2,0.7c0.1,0.1,0.2,0.2,0.4,0.3v0.4h-3
		c-0.1-0.2-0.1-0.4-0.2-0.6c0-0.2-0.1-0.4-0.1-0.6c-0.4,0.4-0.8,0.8-1.3,1.1c-0.6,0.3-1.3,0.5-2,0.5c-1,0-1.8-0.3-2.4-0.8
		c-0.6-0.5-0.9-1.3-0.9-2.3c0-1.3,0.5-2.3,1.5-2.8c0.6-0.3,1.4-0.5,2.5-0.7L555.7,145.8z M557.4,147.1c-0.2,0.1-0.4,0.2-0.5,0.3
		c-0.2,0.1-0.4,0.1-0.7,0.2l-0.6,0.1c-0.6,0.1-1,0.2-1.3,0.4c-0.4,0.3-0.7,0.6-0.7,1.2c0,0.5,0.1,0.8,0.4,1c0.3,0.2,0.6,0.3,1,0.3
		c0.6,0,1.2-0.2,1.7-0.5c0.5-0.4,0.8-1,0.8-1.9V147.1z"/>
	<path class="st1" d="M567.9,141.3c0,0,0.1,0,0.2,0v2.9c-0.2,0-0.3,0-0.5,0c-0.1,0-0.2,0-0.3,0c-1.1,0-1.9,0.4-2.3,1.1
		c-0.2,0.4-0.3,1-0.3,1.9v5.1H562v-10.7h2.7v1.9c0.4-0.7,0.8-1.2,1.1-1.5c0.5-0.4,1.2-0.7,2-0.7
		C567.8,141.3,567.9,141.3,567.9,141.3z"/>
	<path class="st1" d="M568.1,143.7v-2h1.5v-3h2.8v3h1.7v2h-1.7v5.6c0,0.4,0.1,0.7,0.2,0.8c0.1,0.1,0.5,0.2,1,0.2c0.1,0,0.2,0,0.3,0
		c0.1,0,0.2,0,0.3,0v2.1l-1.3,0c-1.3,0-2.2-0.2-2.7-0.7c-0.3-0.3-0.5-0.8-0.5-1.5v-6.6H568.1z"/>
	<path class="st1" d="M578.1,140.3h-2.8v-2.6h2.8V140.3z M575.3,141.6h2.8v10.7h-2.8V141.6z"/>
	<path class="st1" d="M582.4,148.9c0.1,0.5,0.2,0.8,0.4,1.1c0.3,0.4,1,0.6,1.9,0.6c0.5,0,1-0.1,1.3-0.2c0.3-0.2,0.5-0.4,0.5-0.7
		c0-0.3-0.1-0.6-0.4-0.7s-1.2-0.4-2.9-0.8c-1.2-0.3-2.1-0.7-2.6-1.1c-0.5-0.4-0.7-1.1-0.7-1.9c0-1,0.4-1.8,1.2-2.5
		c0.8-0.7,1.9-1.1,3.3-1.1c1.3,0,2.4,0.3,3.3,0.8c0.8,0.5,1.3,1.4,1.4,2.8h-2.8c0-0.4-0.1-0.6-0.3-0.9c-0.3-0.4-0.8-0.6-1.6-0.6
		c-0.6,0-1,0.1-1.3,0.3c-0.3,0.2-0.4,0.4-0.4,0.7c0,0.3,0.1,0.6,0.4,0.7c0.3,0.2,1.2,0.4,2.9,0.8c1.1,0.3,1.9,0.7,2.5,1.2
		c0.5,0.5,0.8,1.2,0.8,2c0,1.1-0.4,1.9-1.2,2.6c-0.8,0.7-2,1-3.7,1c-1.7,0-2.9-0.4-3.7-1.1c-0.8-0.7-1.2-1.6-1.2-2.7H582.4z"/>
	<path class="st1" d="M589.7,143.7v-2h1.5v-3h2.8v3h1.7v2h-1.7v5.6c0,0.4,0.1,0.7,0.2,0.8c0.1,0.1,0.5,0.2,1,0.2c0.1,0,0.2,0,0.3,0
		c0.1,0,0.2,0,0.3,0v2.1l-1.3,0c-1.3,0-2.2-0.2-2.7-0.7c-0.3-0.3-0.5-0.8-0.5-1.5v-6.6H589.7z"/>
</g>
</svg>
